SplineFontDB: 3.2
FontName: NewestShape-BookOblique
FullName: Newest Shape Book Oblique
FamilyName: Newest Shape
Weight: Book
Copyright: Copyright (c) 2022-2026 by Wojciech Kalinowski "wmk69" with Reserved Font Name "NewestShape-BookOblique".\nThis Font Software is licensed under the SIL Open Font License, Version 1.1.
Version: 1.0.0; 2022-02-24
ItalicAngle: -12
UnderlinePosition: -80
UnderlineWidth: 200
Ascent: 1638
Descent: 410
InvalidEm: 0
LayerCount: 2
Layer: 0 1 "Warstwa t+AUIA-a" 1
Layer: 1 1 "Plan pierwszy" 0
XUID: [1021 783 23647091 2952791]
StyleMap: 0x0001
FSType: 0
OS2Version: 3
OS2_WeightWidthSlopeOnly: 0
OS2_UseTypoMetrics: 1
CreationTime: 1260698820
ModificationTime: 1645721154
PfmFamily: 33
TTFWeight: 400
TTFWidth: 5
LineGap: 200
VLineGap: 0
Panose: 2 11 5 3 2 2 3 13 2 4
OS2TypoAscent: 2016
OS2TypoAOffset: 0
OS2TypoDescent: -573
OS2TypoDOffset: 0
OS2TypoLinegap: 200
OS2WinAscent: 2016
OS2WinAOffset: 0
OS2WinDescent: 573
OS2WinDOffset: 0
HheadAscent: 2016
HheadAOffset: 0
HheadDescent: -573
HheadDOffset: 0
OS2SubXSize: 1434
OS2SubYSize: 1331
OS2SubXOff: 0
OS2SubYOff: 287
OS2SupXSize: 1434
OS2SupYSize: 1331
OS2SupXOff: 0
OS2SupYOff: 977
OS2StrikeYSize: 102
OS2StrikeYPos: 512
OS2CapHeight: 1510
OS2XHeight: 1100
OS2Vendor: '    '
OS2CodePages: 20000093.00000000
OS2UnicodeRanges: 8000002f.4000204b.00000000.00000000
Lookup: 258 0 0 "'kern' Horizontal Kerning lookup 0" { "'kern' Horizontal Kerning lookup 0-1" [307,0,4] } ['kern' ('DFLT' <'dflt' > 'grek' <'dflt' > 'latn' <'dflt' > ) ]
MarkAttachClasses: 1
DEI: 91125
KernClass2: 75 55 "'kern' Horizontal Kerning lookup 0-1"
 84 A Agrave Aacute Acircumflex Atilde Adieresis Aring Amacron Abreve Aogonek Aringacute
 28 B germandbls uni1E02 uni1E9E
 140 C E AE Ccedilla Egrave Eacute Ecircumflex Edieresis Cacute Ccircumflex Cdotaccent Ccaron Emacron Ebreve Edotaccent Eogonek Ecaron OE AEacute

StartChar: .notdef
Encoding: 65536 -1 0
Width: 844
Flags: W
HStem: 0 68<232 640> 1297 68<494 902>
VStem: 150 544<0 544> 440 544<821 1365>
DStem2: 150 0 217.546 0 0.207912 0.978148<83.5628 1340.18> 625.546 0 694 0 0.207912 0.978148<69.5192 1326.14>
LayerCount: 2
Fore
SplineSet
150 0 m 1,0,-1
 440 1365 l 1,1,-1
 984 1365 l 1,2,-1
 694 0 l 1,3,-1
 150 0 l 1,0,-1
232 68 m 1,4,-1
 640 68 l 1,5,-1
 902 1297 l 1,6,-1
 494 1297 l 1,7,-1
 232 68 l 1,4,-1
EndSplineSet
Validated: 1
EndChar

StartChar: exclam
Encoding: 33 33 4
Width: 692
GlyphClass: 2
Flags: W
HStem: -20 265<282.814 453.186> 1490 20G<566.74 763>
VStem: 239 258<24.0632 200.937> 335 192<402 594> 571 192<1318 1510>
DStem2: 245.301 -20 437.301 -20 0.207912 0.978148<471.347 1564.28>
LayerCount: 2
Fore
SplineSet
342 -20 m 0,0,1
 290 -20 290 -20 262 16 c 0,2,3
 239 45 239 45 239 88 c 0,4,5
 239 105 239 105 241 117 c 0,6,7
 249 174 249 174 295 212 c 0,8,9
 335 245 335 245 394 245 c 0,10,11
 446 245 446 245 474 209 c 0,12,13
 497 180 497 180 497 137 c 0,14,15
 497 120 497 120 495 108 c 0,16,17
 487 51 487 51 441 13 c 0,18,19
 401 -20 401 -20 342 -20 c 0,0,1
335 402 m 1,20,-1
 571 1510 l 1,21,-1
 763 1510 l 1,22,-1
 527 402 l 1,23,-1
 335 402 l 1,20,-1
EndSplineSet
Validated: 1
EndChar

StartChar: quotedbl
Encoding: 34 34 5
Width: 507
GlyphClass: 2
Flags: W
HStem: 1120 390<371 428 638 695>
VStem: 288 140<1120 1260> 371 140<1370 1510> 555 140<1120 1260> 638 140<1370 1510>
DStem2: 288 1120 428 1120 0.207912 0.978148<29.1076 398.734> 555 1120 695 1120 0.207912 0.978148<29.1076 398.734>
LayerCount: 2
Fore
SplineSet
638 1510 m 1,0,-1
 778 1510 l 1,1,-1
 695 1120 l 1,2,-1
 555 1120 l 1,3,-1
 638 1510 l 1,0,-1
371 1510 m 1,4,-1
 511 1510 l 1,5,-1
 428 1120 l 1,6,-1
 288 1120 l 1,7,-1
 371 1510 l 1,4,-1
EndSplineSet
Validated: 1
EndChar

StartChar: numbersign
Encoding: 35 35 6
Width: 1399
GlyphClass: 2
Flags: W
HStem: 494 160<340 551 745 899 1093 1304> 842 160<413 625 819 973 1167 1377>
VStem: 499 160<248 408> 711 160<1086 1246> 847 160<250 410> 1059 160<1088 1248>
DStem2: 499 248 659 248 0.207912 0.978148<33.2659 251.436 448.274 607.217 804.055 1020.27> 846.575 248 1006.57 248 0.207912 0.978148<35.3106 251.524 448.363 607.305 804.143 1022.31>
LayerCount: 2
Fore
SplineSet
711 1246 m 1,0,-1
 871 1246 l 1,1,-1
 819 1002 l 1,2,-1
 1007 1002 l 1,3,-1
 1059 1248 l 1,4,-1
 1219 1248 l 1,5,-1
 1167 1002 l 1,6,-1
 1411 1002 l 1,7,-1
 1377 842 l 1,8,-1
 1133 842 l 1,9,-1
 1093 654 l 1,10,-1
 1338 654 l 1,11,-1
 1304 494 l 1,12,-1
 1059 494 l 1,13,-1
 1007 250 l 1,14,-1
 847 250 l 1,15,-1
 899 494 l 1,16,-1
 711 494 l 1,17,-1
 659 248 l 1,18,-1
 499 248 l 1,19,-1
 551 494 l 1,20,-1
 306 494 l 1,21,-1
 340 654 l 1,22,-1
 585 654 l 1,23,-1
 625 842 l 1,24,-1
 379 842 l 1,25,-1
 413 1002 l 1,26,-1
 659 1002 l 1,27,-1
 711 1246 l 1,0,-1
933 654 m 1,28,-1
 973 842 l 1,29,-1
 785 842 l 1,30,-1
 745 654 l 1,31,-1
 933 654 l 1,28,-1
EndSplineSet
Validated: 1
EndChar

StartChar: dollar
Encoding: 36 36 7
Width: 1244
GlyphClass: 2
Flags: W
HStem: -19 179<438.599 568> 1350 178<997 1068.66>
VStem: 511 195<1045.52 1273.8> 534 100<-180 -80> 931 100<1590 1690> 1024 203<360.922 644.609>
DStem2: 534 -180 634 -180 0.207912 0.978148<20.7912 164.551 375.594 974.569 1216.6 1556.87 1766.94 1911.68>
LayerCount: 2
Fore
SplineSet
568 -19 m 1,0,1
 313 -9 313 -9 144 206 c 1,2,-1
 317 324 l 1,3,4
 410 168 410 168 606 160 c 1,5,-1
 743 802 l 1,6,7
 511 938 511 938 511 1142 c 0,8,9
 511 1165 511 1165 514 1189 c 0,10,11
 535 1357 535 1357 687 1462 c 0,12,13
 768 1518 768 1518 897 1528 c 1,14,-1
 931 1690 l 1,15,-1
 1031 1690 l 1,16,-1
 997 1528 l 1,17,18
 1171 1515 1171 1515 1277 1387 c 1,19,-1
 1111 1265 l 1,20,21
 1047 1342 1047 1342 959 1350 c 1,22,-1
 875 955 l 1,23,-1
 1006 883 l 2,24,25
 1227 762 1227 762 1227 532 c 0,26,27
 1227 499 1227 499 1223 464 c 0,28,29
 1199 274 1199 274 1037 132 c 0,30,31
 887 2 887 2 669 -17 c 1,32,-1
 634 -180 l 1,33,-1
 534 -180 l 1,34,-1
 568 -19 l 1,0,1
787 1010 m 1,35,-1
 857 1343 l 1,36,37
 813 1333 813 1333 784 1310 c 0,38,39
 727 1267 727 1267 710 1189 c 0,40,41
 706 1171 706 1171 706 1154 c 0,42,43
 706 1075 706 1075 787 1010 c 1,35,-1
832 753 m 1,44,-1
 708 167 l 1,45,46
 806 185 806 185 883 249 c 0,47,48
 994 340 994 340 1018 457 c 0,49,50
 1024 486 1024 486 1024 514 c 0,51,52
 1024 649 1024 649 880 727 c 2,53,-1
 832 753 l 1,44,-1
EndSplineSet
Validated: 1
EndChar

StartChar: percent
Encoding: 37 37 8
Width: 1556
GlyphClass: 2
Flags: W
HStem: -20 157<1030.3 1237.45> 448 157<1075.44 1285.23> 905 157<590.3 797.453> 1373 157<635.444 845.23>
VStem: 405 158<1109.03 1300.3> 845 158<184.033 375.297> 870 162<1135.3 1326.97> 1310 162<210.299 401.967>
DStem2: 173 100 310 -20 0.697799 0.716294<9.64322 1997.73>
LayerCount: 2
Fore
SplineSet
1108 -20 m 0,0,1
 984 -20 984 -20 905 77 c 0,2,3
 845 149 845 149 845 245 c 0,4,5
 845 268 845 268 849 293 c 0,6,7
 869 433 869 433 981 524 c 0,8,9
 1080 605 1080 605 1209 605 c 256,10,11
 1333 605 1333 605 1412 508 c 0,12,13
 1472 436 1472 436 1472 340 c 0,14,15
 1472 317 1472 317 1468 292 c 0,16,17
 1448 152 1448 152 1336 61 c 0,18,19
 1237 -20 1237 -20 1108 -20 c 0,0,1
1124 137 m 256,20,21
 1186 137 1186 137 1240 183 c 0,22,23
 1292 229 1292 229 1306 293 c 0,24,25
 1310 311 1310 311 1310 328 c 0,26,27
 1310 370 1310 370 1286 403 c 0,28,29
 1252 448 1252 448 1191 448 c 0,30,31
 1126 448 1126 448 1074 403 c 0,32,33
 1020 356 1020 356 1007 293 c 0,34,35
 1003 275 1003 275 1003 258 c 0,36,37
 1003 216 1003 216 1028 183 c 0,38,39
 1064 137 1064 137 1124 137 c 256,20,21
769 1530 m 256,40,41
 893 1530 893 1530 972 1433 c 0,42,43
 1032 1361 1032 1361 1032 1265 c 0,44,45
 1032 1242 1032 1242 1028 1217 c 0,46,47
 1008 1077 1008 1077 896 986 c 0,48,49
 797 905 797 905 668 905 c 0,50,51
 544 905 544 905 465 1002 c 0,52,53
 405 1074 405 1074 405 1170 c 0,54,55
 405 1193 405 1193 409 1218 c 0,56,57
 429 1358 429 1358 541 1449 c 0,58,59
 640 1530 640 1530 769 1530 c 256,40,41
751 1373 m 0,60,61
 686 1373 686 1373 634 1328 c 0,62,63
 580 1281 580 1281 567 1218 c 0,64,65
 563 1200 563 1200 563 1183 c 0,66,67
 563 1141 563 1141 588 1108 c 0,68,69
 624 1062 624 1062 684 1062 c 256,70,71
 746 1062 746 1062 800 1108 c 0,72,73
 852 1154 852 1154 866 1218 c 0,74,75
 870 1236 870 1236 870 1253 c 0,76,77
 870 1295 870 1295 846 1328 c 0,78,79
 812 1373 812 1373 751 1373 c 0,60,61
173 100 m 1,80,-1
 1568 1530 l 1,81,-1
 1706 1413 l 1,82,-1
 310 -20 l 1,83,-1
 173 100 l 1,80,-1
EndSplineSet
Validated: 1
EndChar

StartChar: ampersand
Encoding: 38 38 9
Width: 1551
GlyphClass: 2
Flags: W
HStem: -20 180<522.419 913.643> 0 21G<1174.21 1401> 719 181<746.398 832> 1350 180<796.38 1136.38>
VStem: 236 196<247.477 541.365> 488 194<964.135 1234.25>
DStem2: 956 900 832 719 0.443225 -0.89641<86.7541 907.825> 1259 648 1490 730 0.432843 0.901469<-73.9603 278.679>
LayerCount: 2
Fore
SplineSet
1401 0 m 1,0,-1
 1184 0 l 1,1,-1
 832 719 l 1,2,3
 668 719 668 719 582 658 c 0,4,5
 468 577 468 577 439 438 c 0,6,7
 432 404 432 404 432 373 c 0,8,9
 432 286 432 286 491 229 c 0,10,11
 561 160 561 160 724 160 c 0,12,13
 853 160 853 160 980 241 c 9,14,-1
 935 28 l 1,15,16
 807 -20 807 -20 662 -20 c 0,17,18
 459 -20 459 -20 340 111 c 0,19,20
 236 225 236 225 236 365 c 0,21,22
 236 396 236 396 241 428 c 0,23,24
 269 606 269 606 380.5 710 c 128,-1,25
 492 814 492 814 656 829 c 1,26,27
 593 852 593 852 551 901 c 0,28,29
 488 974 488 974 488 1087 c 0,30,31
 488 1117 488 1117 492 1150 c 0,32,33
 516 1326 516 1326 678 1442 c 0,34,35
 801 1530 801 1530 981 1530 c 0,36,37
 1162 1530 1162 1530 1284 1412 c 1,38,-1
 1117 1284 l 1,39,40
 1056 1350 1056 1350 965 1350 c 0,41,42
 859 1350 859 1350 792 1303 c 0,43,44
 710 1246 710 1246 689 1148 c 0,45,46
 682 1116 682 1116 682 1087 c 0,47,48
 682 1021 682 1021 719 972 c 0,49,50
 772 900 772 900 913 900 c 2,51,-1
 956 900 l 1,52,-1
 1401 0 l 1,0,-1
1566 900 m 17,53,54
 1520 788 1520 788 1490 730 c 0,55,56
 1434 624 1434 624 1366 510 c 9,57,-1
 1174 510 l 1,58,59
 1211 564 1211 564 1259 648 c 0,60,61
 1333 781 1333 781 1378 900 c 1,62,-1
 1566 900 l 17,53,54
EndSplineSet
Validated: 1
EndChar

StartChar: quotesingle
Encoding: 39 39 10
Width: 240
GlyphClass: 2
Flags: W
HStem: 1120 390<371 428>
VStem: 288 140<1120 1260> 371 140<1370 1510>
DStem2: 288 1120 428 1120 0.207912 0.978148<29.1076 398.734>
LayerCount: 2
Fore
SplineSet
371 1510 m 1,0,-1
 511 1510 l 1,1,-1
 428 1120 l 1,2,-1
 288 1120 l 1,3,-1
 371 1510 l 1,0,-1
EndSplineSet
Validated: 1
EndChar

StartChar: parenleft
Encoding: 40 40 11
Width: 855
GlyphClass: 2
Flags: W
VStem: 323 179<49.9194 778.737> 904 175<1585 1760>
LayerCount: 2
Fore
SplineSet
904 1760 m 1,0,-1
 1079 1760 l 1,1,2
 644 1246 644 1246 540 755 c 0,3,4
 502 576 502 576 502 404 c 0,5,6
 502 63 502 63 652 -250 c 1,7,-1
 477 -250 l 1,8,9
 323 63 323 63 323 407 c 0,10,11
 323 578 323 578 360 755 c 0,12,13
 474 1292 474 1292 904 1760 c 1,0,-1
EndSplineSet
Validated: 1
EndChar

StartChar: parenright
Encoding: 41 41 12
Width: 855
GlyphClass: 2
Flags: W
VStem: 97 175<-250 -75> 674 179<731.263 1460.08>
LayerCount: 2
Fore
SplineSet
699 1760 m 1,0,1
 853 1447 853 1447 853 1103 c 0,2,3
 853 932 853 932 816 755 c 0,4,5
 702 218 702 218 272 -250 c 1,6,-1
 97 -250 l 1,7,8
 532 264 532 264 636 755 c 0,9,10
 674 934 674 934 674 1106 c 0,11,12
 674 1447 674 1447 524 1760 c 1,13,-1
 699 1760 l 1,0,1
EndSplineSet
Validated: 1
EndChar

StartChar: asterisk
Encoding: 42 42 13
Width: 1113
GlyphClass: 2
Flags: W
HStem: 1490 20G<798.749 953>
VStem: 626 150<677 827> 803 150<1360 1510>
DStem2: 355 965 408 820 0.89705 0.441929<0 297.379 595.734 892.215> 525 1367 434 1252 0.820473 -0.571685<0 247.915 500.468 746.742> 626 677 776 677 0.207912 0.978148<31.1868 293.411 589.373 851.597>
LayerCount: 2
Fore
SplineSet
803 1510 m 1,0,-1
 953 1510 l 1,1,-1
 892 1223 l 1,2,-1
 1171 1367 l 1,3,-1
 1223 1222 l 1,4,-1
 935 1080 l 1,5,-1
 1145 935 l 1,6,-1
 1054 820 l 1,7,-1
 837 964 l 1,8,-1
 776 677 l 1,9,-1
 626 677 l 1,10,-1
 687 964 l 1,11,-1
 408 820 l 1,12,-1
 355 965 l 1,13,-1
 646 1107 l 1,14,-1
 434 1252 l 1,15,-1
 525 1367 l 1,16,-1
 742 1223 l 1,17,-1
 803 1510 l 1,0,-1
EndSplineSet
Validated: 1
EndChar

StartChar: plus
Encoding: 43 43 14
Width: 1133
GlyphClass: 2
Flags: W
HStem: 655 180<327 615 833 1122>
VStem: 546 180<328 508> 723 180<982 1162>
DStem2: 546 328 726 328 0.207912 0.978148<37.4241 334.2 555.591 852.575>
LayerCount: 2
Fore
SplineSet
723 1162 m 1,0,-1
 903 1162 l 1,1,-1
 833 835 l 1,2,-1
 1160 835 l 1,3,-1
 1122 655 l 1,4,-1
 795 655 l 1,5,-1
 726 328 l 1,6,-1
 546 328 l 1,7,-1
 615 655 l 1,8,-1
 289 655 l 1,9,-1
 327 835 l 1,10,-1
 653 835 l 1,11,-1
 723 1162 l 1,0,-1
EndSplineSet
Validated: 1
EndChar

StartChar: comma
Encoding: 44 44 15
Width: 369
GlyphClass: 2
Flags: W
HStem: -292 560
VStem: 170 156<-72.5841 147.053>
LayerCount: 2
Fore
SplineSet
222 268 m 1,0,1
 326 177 326 177 326 49 c 0,2,3
 326 -157 326 -157 67 -292 c 1,4,-1
 6 -161 l 1,5,6
 170 -77 170 -77 170 38 c 0,7,8
 170 110 170 110 115 158 c 1,9,-1
 222 268 l 1,0,1
EndSplineSet
Validated: 1
EndChar

StartChar: hyphen
Encoding: 45 45 16
Width: 1133
GlyphClass: 2
Flags: W
HStem: 655 180<327 1122>
LayerCount: 2
Fore
SplineSet
327 835 m 1,0,-1
 1160 835 l 1,1,-1
 1122 655 l 1,2,-1
 289 655 l 1,3,-1
 327 835 l 1,0,-1
EndSplineSet
Validated: 1
EndChar

StartChar: period
Encoding: 46 46 17
Width: 356
GlyphClass: 2
Flags: W
HStem: -20 265<116.814 287.186>
VStem: 73 258<24.0632 200.937>
LayerCount: 2
Fore
SplineSet
176 -20 m 0,0,1
 124 -20 124 -20 96 16 c 0,2,3
 73 45 73 45 73 88 c 0,4,5
 73 105 73 105 75 117 c 0,6,7
 83 174 83 174 129 212 c 0,8,9
 169 245 169 245 228 245 c 0,10,11
 280 245 280 245 308 209 c 0,12,13
 331 180 331 180 331 137 c 0,14,15
 331 120 331 120 329 108 c 0,16,17
 321 51 321 51 275 13 c 0,18,19
 235 -20 235 -20 176 -20 c 0,0,1
EndSplineSet
Validated: 1
EndChar

StartChar: slash
Encoding: 47 47 18
Width: 1015
GlyphClass: 2
Flags: W
DStem2: -13 -107 121 -180 0.563992 0.82578<15.293 2175.95>
LayerCount: 2
Fore
SplineSet
-13 -107 m 1,0,-1
 1214 1690 l 1,1,-1
 1349 1618 l 1,2,-1
 121 -180 l 1,3,-1
 -13 -107 l 1,0,-1
EndSplineSet
Validated: 1
EndChar

StartChar: one
Encoding: 49 49 19
Width: 765
GlyphClass: 2
Flags: W
HStem: 0 21G<315 519.262> 1330 180<371 553.658>
VStem: 315 200<0 200> 571 202<1003.67 1317.25>
DStem2: 315 0 515 0 0.207912 0.978148<41.5823 1257.48>
LayerCount: 2
Fore
SplineSet
315 0 m 1,0,-1
 564 1170 l 2,1,2
 571 1205 571 1205 571 1232 c 0,3,4
 571 1330 571 1330 476 1330 c 10,5,-1
 333 1330 l 1,6,-1
 371 1510 l 25,7,-1
 476 1510 l 2,8,9
 773 1510 773 1510 773 1263 c 0,10,11
 773 1210 773 1210 759 1145 c 2,12,-1
 515 0 l 1,13,-1
 315 0 l 1,0,-1
EndSplineSet
Validated: 1
EndChar

StartChar: two
Encoding: 50 50 20
Width: 1175
GlyphClass: 2
Flags: W
HStem: 0 200<362 1024> 1350 180<661.697 981.15>
VStem: 1055 196<979.958 1277.4>
LayerCount: 2
Fore
SplineSet
100 0 m 1,0,1
 195 458 195 458 707 722 c 0,2,3
 1005 877 1005 877 1047 1074 c 0,4,5
 1055 1112 1055 1112 1055 1146 c 0,6,7
 1055 1223 1055 1223 1012 1276 c 0,8,9
 952 1350 952 1350 829 1350 c 0,10,11
 663 1350 663 1350 508 1186 c 1,12,-1
 385 1304 l 1,13,14
 589 1530 589 1530 851 1530 c 0,15,16
 1068 1530 1068 1530 1178 1380 c 0,17,18
 1251 1279 1251 1279 1251 1142 c 0,19,20
 1251 1109 1251 1109 1247 1073 c 0,21,22
 1210 768 1210 768 770 556 c 0,23,24
 468 410 468 410 362 200 c 1,25,-1
 1067 200 l 1,26,-1
 1024 0 l 1,27,-1
 100 0 l 1,0,1
EndSplineSet
Validated: 1
EndChar

StartChar: three
Encoding: 51 51 21
Width: 1202
GlyphClass: 2
Flags: W
HStem: -20 180<355.066 744.992> 740 180<656 829.844> 1350 180<638.908 930.133>
VStem: 959 196<357.582 654.704 1035.75 1198.28> 974 187<1057.87 1305.75>
LayerCount: 2
Fore
SplineSet
511 -20 m 0,0,1
 298 -20 298 -20 125 119 c 1,2,-1
 289 255 l 1,3,4
 384 160 384 160 529 160 c 0,5,6
 712 160 712 160 831 256 c 0,7,8
 923 330 923 330 951 460 c 0,9,10
 959 498 959 498 959 531 c 0,11,12
 959 605 959 605 918 652 c 0,13,14
 840 740 840 740 658 740 c 2,15,-1
 617 740 l 1,16,-1
 656 920 l 1,17,-1
 697 920 l 2,18,19
 775 920 775 920 860 984 c 0,20,21
 947 1049 947 1049 968 1150 c 0,22,23
 973 1176 973 1176 974 1199 c 0,24,25
 974 1254 974 1254 942 1294 c 0,26,27
 896 1350 896 1350 790.5 1350 c 128,-1,28
 685 1350 685 1350 611 1284 c 1,29,-1
 510 1402 l 1,30,31
 641 1530 641 1530 817 1530 c 0,32,33
 986 1530 986 1530 1082 1428 c 0,34,35
 1161 1344 1161 1344 1161 1221 c 0,36,37
 1161 1194 1161 1194 1158 1165 c 0,38,39
 1139 1021 1139 1021 1035 936 c 0,40,41
 977 888 977 888 902 867 c 1,42,43
 1025 831 1025 831 1094 737 c 0,44,45
 1155 655 1155 655 1155 534 c 0,46,47
 1155 499 1155 499 1150 460 c 0,48,49
 1124 260 1124 260 957 123 c 0,50,51
 782 -20 782 -20 511 -20 c 0,0,1
EndSplineSet
Validated: 1
EndChar

StartChar: four
Encoding: 52 52 22
Width: 1208
GlyphClass: 2
Flags: W
HStem: 0 21G<808 1012.25> 300 180<409.526 693> 1080 20G<1037.75 1242> 1489 20G<779.86 1002>
VStem: 204 205<386 596.496> 792 210<1299 1509> 808 200<0 200> 1042 200<900 1100>
DStem2: 253 621 442 580 0.516257 0.856434<-16.6037 1038.78> 808 0 1008 0 0.207912 0.978148<41.5823 1124.61>
LayerCount: 2
Fore
SplineSet
792 1509 m 1,0,-1
 1002 1509 l 1,1,-1
 442 580 l 2,2,3
 409 525 409 525 409 507 c 0,4,5
 409 480 409 480 442 480 c 2,6,-1
 731 480 l 1,7,-1
 693 300 l 1,8,-1
 423 300 l 2,9,10
 204 300 204 300 204 472 c 0,11,12
 204 540 204 540 253 621 c 2,13,-1
 792 1509 l 1,0,-1
1008 0 m 1,14,-1
 808 0 l 1,15,-1
 1042 1100 l 1,16,-1
 1242 1100 l 1,17,-1
 1008 0 l 1,14,-1
EndSplineSet
Validated: 1
EndChar

StartChar: five
Encoding: 53 53 23
Width: 1232
GlyphClass: 2
Flags: W
HStem: -20 180<403.084 764.146> 741 180<640 890.245> 1330 180<755.5 1221>
VStem: 989 196<370.685 652.394>
DStem2: 240.244 -20 439.984 -20 0.207912 0.978148<1003.55 1390.47>
LayerCount: 2
Fore
SplineSet
561 -20 m 0,0,1
 342 -20 342 -20 175 119 c 1,2,-1
 339 255 l 1,3,4
 432 160 432 160 576 160 c 0,5,6
 735 160 735 160 863 270 c 0,7,8
 958 351 958 351 984 479 c 0,9,10
 989 506 989 506 989 530 c 0,11,12
 989 623 989 623 913 682 c 0,13,14
 838 741 838 741 679 741 c 2,15,-1
 402 741 l 1,16,-1
 493 1170 l 2,17,18
 565 1510 565 1510 925 1510 c 2,19,-1
 1259 1510 l 1,20,-1
 1221 1330 l 1,21,-1
 887 1330 l 2,22,23
 727 1330 727 1330 693 1170 c 2,24,-1
 640 921 l 1,25,-1
 739 921 l 2,26,27
 931 921 931 921 1045 827 c 0,28,29
 1185 711 1185 711 1185 519 c 0,30,31
 1185 498 1185 498 1183 476 c 0,32,33
 1169 285 1169 285 1013 138 c 0,34,35
 846 -20 846 -20 561 -20 c 0,0,1
EndSplineSet
Validated: 1
EndChar

StartChar: six
Encoding: 54 54 24
Width: 1396
GlyphClass: 2
Flags: W
HStem: -20 180<565.739 925.71> 900 180<928 1049.57> 1490 20G<915 1254>
VStem: 258 197<269.637 657.625> 961 293<1217 1510> 1170 195<427.73 782.676>
LayerCount: 2
Fore
SplineSet
714 -20 m 0,0,1
 492 -20 492 -20 363 133 c 0,2,3
 258 258 258 258 258 446 c 0,4,5
 258 487 258 487 263 530 c 0,6,7
 298 844 298 844 613 1164 c 0,8,9
 869 1424 869 1424 961 1510 c 1,10,-1
 1254 1510 l 1,11,12
 1029 1312 1029 1312 804 1084 c 0,13,14
 502 778 502 778 463 530 c 0,15,16
 455 480 455 480 455 437 c 0,17,18
 455 319 455 319 514 249 c 0,19,20
 590 160 590 160 733 160 c 0,21,22
 890 160 890 160 999 252 c 0,23,24
 1122 356 1122 356 1159 530 c 0,25,26
 1170 582 1170 582 1170 628 c 0,27,28
 1170 734 1170 734 1109 805 c 0,29,30
 1027 900 1027 900 889 900 c 1,31,-1
 928 1080 l 1,32,33
 1147 1080 1147 1080 1270 916 c 0,34,35
 1365 790 1365 790 1365 616 c 0,36,37
 1365 574 1365 574 1359 530 c 0,38,39
 1322 268 1322 268 1114 107 c 0,40,41
 949 -20 949 -20 714 -20 c 0,0,1
EndSplineSet
Validated: 1
EndChar

StartChar: seven
Encoding: 55 55 25
Width: 939
GlyphClass: 2
Flags: W
HStem: 0 21G<30 291.271> 1330 180<351 948.534>
VStem: 30 247<0 247> 953 231<1221.69 1424.5>
DStem2: 30 0 277 0 0.585419 0.810731<144.599 1589.02>
LayerCount: 2
Fore
SplineSet
30 0 m 1,0,-1
 929 1245 l 2,1,2
 953 1278 953 1278 953 1294 c 0,3,4
 953 1330 953 1330 907 1330 c 2,5,-1
 313 1330 l 1,6,-1
 351 1510 l 1,7,-1
 941 1510 l 2,8,9
 1184 1510 1184 1510 1184 1339 c 0,10,11
 1184 1271 1184 1271 1129 1194 c 2,12,-1
 277 0 l 1,13,-1
 30 0 l 1,0,-1
EndSplineSet
Validated: 1
EndChar

StartChar: eight
Encoding: 56 56 26
Width: 1312
GlyphClass: 2
Flags: W
HStem: -20 180<521.282 872.503> 1350 180<791.189 1071.29>
VStem: 234 199<244.945 516.878> 491 193<996.696 1243.33> 1063 197<345 632.945> 1120 190<1070.4 1303.28>
LayerCount: 2
Fore
SplineSet
673 -20 m 0,0,1
 454 -20 454 -20 324 126 c 0,2,3
 234 226 234 226 234 358 c 0,4,5
 234 386 234 386 239 416 c 0,6,7
 265 596 265 596 433 692 c 1,8,-1
 666 692 l 1,9,10
 479 597 479 597 439 418 c 0,11,12
 433 391 433 391 433 366 c 0,13,14
 433 289 433 289 488 232 c 0,15,16
 557 160 557 160 691 160 c 0,17,18
 818 160 818 160 917 232 c 0,19,20
 1028 312 1028 312 1056 439 c 0,21,22
 1063 471 1063 471 1063 500 c 0,23,24
 1063 594 1063 594 997 658 c 0,25,26
 954 700 954 700 818 742 c 0,27,28
 665 789 665 789 577 882 c 0,29,30
 491 973 491 973 491 1111 c 0,31,32
 491 1131 491 1131 493 1151 c 0,33,34
 506 1311 506 1311 654 1431 c 0,35,36
 775 1530 775 1530 963 1530 c 0,37,38
 1128 1530 1128 1530 1226 1424 c 0,39,40
 1309 1335 1309 1335 1310 1213 c 0,41,42
 1310 1184 1310 1184 1308 1169 c 0,43,44
 1295 1057 1295 1057 1196 978 c 1,45,-1
 988 978 l 1,46,47
 1093 1057 1093 1057 1116 1166 c 0,48,49
 1120 1185 1120 1185 1120 1203 c 0,50,51
 1120 1265 1120 1265 1071 1310 c 0,52,53
 1028 1350 1028 1350 945 1350 c 0,54,55
 859 1350 859 1350 796 1309 c 0,56,57
 709 1253 709 1253 689 1152 c 0,58,59
 684 1127 684 1127 684 1105 c 0,60,61
 684 1046 684 1046 720 1000 c 0,62,63
 763 946 763 946 897 911 c 0,64,65
 1102 858 1102 858 1192 736 c 0,66,67
 1260 644 1260 644 1260 513 c 0,68,69
 1260 476 1260 476 1255 436 c 0,70,71
 1228 245 1228 245 1083 126 c 0,72,73
 906 -20 906 -20 673 -20 c 0,0,1
EndSplineSet
Validated: 1
EndChar

StartChar: nine
Encoding: 57 57 27
Width: 1396
GlyphClass: 2
Flags: W
HStem: 0 21G<463 802> 430 180<667.847 789> 1350 180<791.29 1151.26>
VStem: 352 195<727.324 1082.27> 463 293<0 293> 1262 197<852.375 1240.36>
DStem2: 463 0 756 0 0.712628 0.701542<208.8 1040.35>
LayerCount: 2
Fore
SplineSet
463 0 m 1,0,1
 688 198 688 198 913 426 c 0,2,3
 1215 732 1215 732 1254 980 c 0,4,5
 1262 1030 1262 1030 1262 1073 c 0,6,7
 1262 1191 1262 1191 1203 1261 c 0,8,9
 1127 1350 1127 1350 984 1350 c 0,10,11
 827 1350 827 1350 718 1258 c 0,12,13
 595 1154 595 1154 558 980 c 0,14,15
 547 928 547 928 547 882 c 0,16,17
 547 776 547 776 608 705 c 0,18,19
 690 610 690 610 828 610 c 1,20,-1
 789 430 l 1,21,22
 571 430 571 430 447 594 c 0,23,24
 352 720 352 720 352 894 c 0,25,26
 352 936 352 936 358 980 c 0,27,28
 395 1242 395 1242 603 1403 c 0,29,30
 768 1530 768 1530 1003 1530 c 0,31,32
 1225 1530 1225 1530 1354 1377 c 0,33,34
 1459 1252 1459 1252 1459 1064 c 0,35,36
 1459 1023 1459 1023 1454 980 c 0,37,38
 1419 666 1419 666 1104 346 c 0,39,40
 848 86 848 86 756 0 c 1,41,-1
 463 0 l 1,0,1
EndSplineSet
Validated: 1
EndChar

StartChar: colon
Encoding: 58 58 28
Width: 360
GlyphClass: 2
Flags: W
HStem: -20 265<116.814 287.186> 621 265<256.814 427.186>
VStem: 73 258<24.0632 200.937> 213 258<665.063 841.937>
LayerCount: 2
Fore
SplineSet
368 886 m 0,0,1
 420 886 420 886 448 850 c 0,2,3
 471 821 471 821 471 778 c 0,4,5
 471 761 471 761 469 749 c 0,6,7
 461 692 461 692 415 654 c 0,8,9
 375 621 375 621 316 621 c 0,10,11
 264 621 264 621 236 657 c 0,12,13
 213 686 213 686 213 729 c 0,14,15
 213 746 213 746 215 758 c 0,16,17
 223 815 223 815 269 853 c 0,18,19
 309 886 309 886 368 886 c 0,0,1
176 -20 m 0,20,21
 124 -20 124 -20 96 16 c 0,22,23
 73 45 73 45 73 88 c 0,24,25
 73 105 73 105 75 117 c 0,26,27
 83 174 83 174 129 212 c 0,28,29
 169 245 169 245 228 245 c 0,30,31
 280 245 280 245 308 209 c 0,32,33
 331 180 331 180 331 137 c 0,34,35
 331 120 331 120 329 108 c 0,36,37
 321 51 321 51 275 13 c 0,38,39
 235 -20 235 -20 176 -20 c 0,20,21
EndSplineSet
Validated: 1
EndChar

StartChar: semicolon
Encoding: 59 59 29
Width: 360
GlyphClass: 2
Flags: W
HStem: 621 265<256.814 427.186>
VStem: 134 156<-72.5841 147.053> 213 258<665.063 841.937>
LayerCount: 2
Fore
SplineSet
368 886 m 0,0,1
 420 886 420 886 448 850 c 0,2,3
 471 821 471 821 471 778 c 0,4,5
 471 761 471 761 469 749 c 0,6,7
 461 692 461 692 415 654 c 0,8,9
 375 621 375 621 316 621 c 0,10,11
 264 621 264 621 236 657 c 0,12,13
 213 686 213 686 213 729 c 0,14,15
 213 746 213 746 215 758 c 0,16,17
 223 815 223 815 269 853 c 0,18,19
 309 886 309 886 368 886 c 0,0,1
186 268 m 1,20,21
 290 177 290 177 290 49 c 0,22,23
 290 -157 290 -157 31 -292 c 1,24,-1
 -30 -161 l 1,25,26
 134 -77 134 -77 134 38 c 0,27,28
 134 110 134 110 79 158 c 1,29,-1
 186 268 l 1,20,21
EndSplineSet
Validated: 1
EndChar

StartChar: less
Encoding: 60 60 30
Width: 1164
GlyphClass: 2
Flags: W
DStem2: 513 725 289 654 0.833853 -0.551987<0 618.73> 327 834 513 725 0.881171 0.472797<112.363 884.002>
LayerCount: 2
Fore
SplineSet
1134 1267 m 1,0,-1
 1195 1086 l 1,1,-1
 513 725 l 1,2,-1
 1040 398 l 1,3,-1
 928 231 l 1,4,-1
 289 654 l 1,5,-1
 327 834 l 1,6,-1
 1134 1267 l 1,0,-1
EndSplineSet
Validated: 1
EndChar

StartChar: equal
Encoding: 61 61 31
Width: 1133
GlyphClass: 2
Flags: W
HStem: 481 170<288 1085> 839 170<364 1161>
LayerCount: 2
Fore
SplineSet
288 651 m 1,0,-1
 1121 651 l 1,1,-1
 1085 481 l 1,2,-1
 252 481 l 1,3,-1
 288 651 l 1,0,-1
364 1009 m 1,4,-1
 1197 1009 l 1,5,-1
 1161 839 l 1,6,-1
 328 839 l 1,7,-1
 364 1009 l 1,4,-1
EndSplineSet
Validated: 1
EndChar

StartChar: greater
Encoding: 62 62 32
Width: 1165
GlyphClass: 2
Flags: W
DStem2: 288 412 349 231 0.881171 0.472797<0 771.639> 555 1267 443 1100 0.833853 -0.551987<0 618.73>
LayerCount: 2
Fore
SplineSet
555 1267 m 1,0,-1
 1194 844 l 1,1,-1
 1156 664 l 1,2,-1
 349 231 l 1,3,-1
 288 412 l 1,4,-1
 970 773 l 1,5,-1
 443 1100 l 1,6,-1
 555 1267 l 1,0,-1
EndSplineSet
Validated: 1
EndChar

StartChar: question
Encoding: 63 63 33
Width: 1186
GlyphClass: 2
Flags: W
HStem: -20 265<491.814 662.186> 1350 180<672.759 991.661>
VStem: 448 258<24.0632 200.937> 555 160<354 514> 1072 197<988.284 1271.25>
LayerCount: 2
Fore
SplineSet
551 -20 m 0,0,1
 499 -20 499 -20 471 16 c 0,2,3
 448 45 448 45 448 88 c 0,4,5
 448 105 448 105 450 117 c 0,6,7
 458 174 458 174 504 212 c 0,8,9
 544 245 544 245 603 245 c 0,10,11
 655 245 655 245 683 209 c 0,12,13
 706 180 706 180 706 137 c 0,14,15
 706 120 706 120 704 108 c 0,16,17
 696 51 696 51 650 13 c 0,18,19
 610 -20 610 -20 551 -20 c 0,0,1
863 1530 m 0,20,21
 1073 1530 1073 1530 1191 1379 c 0,22,23
 1269 1280 1269 1280 1269 1146 c 0,24,25
 1269 1111 1269 1111 1264 1073 c 0,26,27
 1234 860 1234 860 980 691 c 0,28,29
 758 543 758 543 715 354 c 1,30,-1
 555 354 l 1,31,32
 616 644 616 644 859 819 c 0,33,34
 1037 948 1037 948 1064 1074 c 0,35,36
 1071 1108 1071 1108 1072 1139 c 0,37,38
 1072 1218 1072 1218 1024 1276 c 0,39,40
 964 1350 964 1350 841 1350 c 0,41,42
 675 1350 675 1350 520 1186 c 1,43,-1
 397 1304 l 1,44,45
 597 1530 597 1530 863 1530 c 0,20,21
EndSplineSet
Validated: 1
EndChar

StartChar: at
Encoding: 64 64 34
Width: 1496
GlyphClass: 2
Flags: W
HStem: -430 160<534.485 657> -20 160<867.193 1120.47> 540 160<925.613 1081> 1041 160<782.617 1134.44>
VStem: 215 180<-132.737 275.953> 648 177<182.803 439.578> 1266 180<495.844 914.902>
DStem2: 108.268 -430 289.094 -430 0.207912 0.978148<508.863 1356.2> 1024.58 -430 1204.58 -430 0.207912 0.978148<606.429 1207.83>
LayerCount: 2
Fore
SplineSet
975 -20 m 0,0,1
 812 -20 812 -20 719 93 c 0,2,3
 648 178 648 178 648 296 c 0,4,5
 648 317 648 317 650 340 c 0,6,7
 668 509 668 509 812 616 c 0,8,9
 925 700 925 700 1115 700 c 1,10,-1
 1081 540 l 1,11,12
 969 540 969 540 902 478 c 0,13,14
 849 429 849 429 830 340 c 0,15,16
 825 317 825 317 825 296 c 0,17,18
 825 245 825 245 853 202 c 0,19,20
 893 140 893 140 1015 140 c 0,21,22
 1146 140 1146 140 1184 320 c 2,23,-1
 1254 651 l 2,24,25
 1266 707 1266 707 1266 755 c 0,26,27
 1266 864 1266 864 1206 936 c 0,28,29
 1117 1041 1117 1041 969 1041 c 128,-1,30
 821 1041 821 1041 692 939 c 0,31,32
 557 833 557 833 518 651 c 2,33,-1
 406 120 l 2,34,35
 395 69 395 69 395 28 c 0,36,37
 395 -84 395 -84 463 -164 c 0,38,39
 553 -270 553 -270 691 -270 c 1,40,-1
 657 -430 l 1,41,42
 469 -430 469 -430 338 -296 c 0,43,44
 215 -170 215 -170 215 9 c 0,45,46
 215 70 215 70 229 138 c 2,47,-1
 338 651 l 2,48,49
 395 918 395 918 580 1068 c 0,50,51
 745 1201 745 1201 983 1201 c 0,52,53
 1211 1201 1211 1201 1343 1040 c 0,54,55
 1446 913 1446 913 1446 758 c 0,56,57
 1446 706 1446 706 1434 651 c 2,58,-1
 1364 320 l 2,59,60
 1292 -20 1292 -20 975 -20 c 0,0,1
EndSplineSet
Validated: 1
EndChar

StartChar: A
Encoding: 65 65 35
Width: 1626
GlyphClass: 2
Flags: W
HStem: 0 21G<5 222.54 1410.95 1621> 561 180<581.391 1070> 1490 20G<1015.43 1244.06>
VStem: 5 204<0 204> 548 204<801 1005> 1416 205<0 205>
DStem2: 5 0 209 0 0.56126 0.827639<114.497 804.249 1082.2 1682.95> 1239 1510 1088 1299 0.245254 -0.969459<167.522 1507.29>
LayerCount: 2
Fore
SplineSet
5 0 m 1,0,-1
 311 452 l 2,1,2
 507 741 507 741 768 741 c 2,3,-1
 1109 741 l 25,4,-1
 1070 561 l 1,5,-1
 729 561 l 2,6,7
 589 561 589 561 515 452 c 2,8,-1
 209 0 l 1,9,-1
 5 0 l 1,0,-1
1621 0 m 1,10,-1
 1416 0 l 1,11,-1
 1088 1299 l 1,12,-1
 752 801 l 1,13,-1
 548 801 l 1,14,-1
 1029 1510 l 1,15,-1
 1239 1510 l 1,16,-1
 1621 0 l 1,10,-1
EndSplineSet
Validated: 1
EndChar

StartChar: B
Encoding: 66 66 36
Width: 1238
GlyphClass: 2
Flags: W
HStem: -20 180<614 831.016> 0 21G<200 404.252> 740 180<782 914.844> 1356 174<719.851 1005.53>
VStem: 200 200<0 200> 1044 196<356.969 654.729> 1059 186<1057.11 1304.82>
DStem2: 195.749 -20 395.749 -20 0.207912 0.978148<62.0292 1419.36>
LayerCount: 2
Fore
SplineSet
200 0 m 1,0,-1
 453 1190 l 2,1,2
 525 1530 525 1530 885 1530 c 0,3,4
 1065 1530 1065 1530 1165 1418 c 0,5,6
 1245 1330 1245 1330 1245 1207 c 0,7,8
 1245 1187 1245 1187 1243 1165 c 0,9,10
 1229 1027 1229 1027 1108 932 c 0,11,12
 1056 891 1056 891 987 867 c 1,13,14
 1101 826 1101 826 1171 738 c 0,15,16
 1240 652 1240 652 1240 528 c 0,17,18
 1240 495 1240 495 1235 458 c 0,19,20
 1207 258 1207 258 1043 127 c 0,21,22
 859 -20 859 -20 576 -20 c 1,23,-1
 614 160 l 1,24,25
 797 160 797 160 916 256 c 0,26,27
 1008 330 1008 330 1036 460 c 0,28,29
 1044 498 1044 498 1044 531 c 0,30,31
 1044 605 1044 605 1003 652 c 0,32,33
 925 740 925 740 743 740 c 9,34,-1
 782 920 l 17,35,36
 860 920 860 920 945 984 c 0,37,38
 1032 1049 1032 1049 1053 1150 c 0,39,40
 1058 1175 1058 1175 1059 1197 c 0,41,42
 1059 1253 1059 1253 1025 1294 c 0,43,44
 973 1356 973 1356 850 1356 c 0,45,46
 688 1356 688 1356 653 1190 c 2,47,-1
 400 0 l 1,48,-1
 200 0 l 1,0,-1
EndSplineSet
Validated: 1
EndChar

StartChar: C
Encoding: 67 67 37
Width: 1452
GlyphClass: 2
Flags: W
HStem: -20 180<667.443 1082.22> 1350 180<899.781 1316.92>
VStem: 249 194<387.752 848.485>
LayerCount: 2
Fore
SplineSet
846 -20 m 0,0,1
 524 -20 524 -20 356 224 c 0,2,3
 249 377 249 377 249 599 c 0,4,5
 249 673 249 673 261 755 c 0,6,7
 311 1094 311 1094 558 1312 c 128,-1,8
 805 1530 805 1530 1136 1530 c 0,9,10
 1449 1530 1449 1530 1626 1286 c 1,11,-1
 1463 1176 l 1,12,13
 1341 1350 1341 1350 1117 1350 c 128,-1,14
 893 1350 893 1350 697 1176 c 0,15,16
 516 1015 516 1015 461 755 c 0,17,18
 443 669 443 669 443 595 c 0,19,20
 443 442 443 442 519 334 c 0,21,22
 641 160 641 160 865 160 c 128,-1,23
 1089 160 1089 160 1285 334 c 1,24,-1
 1424 198 l 1,25,26
 1177 -20 1177 -20 846 -20 c 0,0,1
EndSplineSet
Validated: 1
EndChar

StartChar: D
Encoding: 68 68 38
Width: 1616
GlyphClass: 2
Flags: W
HStem: -20 180<614 1037> 0 21G<200 404.252> 1350 180<715.5 1266.11>
VStem: 200 200<0 200> 1494 194<658.119 1120.7>
DStem2: 195.749 -20 395.749 -20 0.207912 0.978148<62.0292 1410.96>
LayerCount: 2
Fore
SplineSet
200 0 m 1,0,-1
 453 1190 l 2,1,2
 525 1530 525 1530 885 1530 c 2,3,-1
 1091 1530 l 2,4,5
 1407 1530 1407 1530 1581 1286 c 0,6,7
 1688 1136 1688 1136 1688 916 c 0,8,9
 1688 832 1688 832 1676 755 c 0,10,11
 1626 415 1626 415 1379 198 c 0,12,13
 1132 -20 1132 -20 801 -20 c 2,14,-1
 576 -20 l 1,15,-1
 614 160 l 1,16,-1
 820 160 l 2,17,18
 1044 160 1044 160 1240 334 c 0,19,20
 1424 498 1424 498 1476 755 c 0,21,22
 1494 841 1494 841 1494 915 c 0,23,24
 1494 1068 1494 1068 1418 1176 c 0,25,26
 1296 1350 1296 1350 1073 1350 c 2,27,-1
 847 1350 l 2,28,29
 687 1350 687 1350 653 1190 c 2,30,-1
 400 0 l 1,31,-1
 200 0 l 1,0,-1
EndSplineSet
Validated: 1
EndChar

StartChar: E
Encoding: 69 69 39
Width: 1452
GlyphClass: 2
Flags: W
HStem: -20 180<667.443 1082.22> 661 180<659 1326> 1350 180<899.781 1316.92>
VStem: 249 194<387.752 848.485>
LayerCount: 2
Fore
SplineSet
659 841 m 9,0,-1
 1365 841 l 1,1,-1
 1326 661 l 1,2,-1
 620 661 l 17,3,4
 659 841 l 9,0,-1
846 -20 m 0,5,6
 524 -20 524 -20 356 224 c 0,7,8
 249 377 249 377 249 599 c 0,9,10
 249 673 249 673 261 755 c 0,11,12
 311 1094 311 1094 558 1312 c 128,-1,13
 805 1530 805 1530 1136 1530 c 0,14,15
 1449 1530 1449 1530 1626 1286 c 1,16,-1
 1463 1176 l 1,17,18
 1341 1350 1341 1350 1117 1350 c 128,-1,19
 893 1350 893 1350 697 1176 c 0,20,21
 516 1015 516 1015 461 755 c 0,22,23
 443 669 443 669 443 595 c 0,24,25
 443 442 443 442 519 334 c 0,26,27
 641 160 641 160 865 160 c 128,-1,28
 1089 160 1089 160 1285 334 c 1,29,-1
 1424 198 l 1,30,31
 1177 -20 1177 -20 846 -20 c 0,5,6
EndSplineSet
Validated: 1
EndChar

StartChar: F
Encoding: 70 70 40
Width: 1136
GlyphClass: 2
Flags: W
HStem: 0 21G<200 404.232> 661 180<568.5 1076> 1330 180<711.5 1219>
VStem: 200 200<0 200> 392 200<901 1101>
DStem2: 200 0 400 0 0.207912 0.978148<41.5823 686.112 962.812 1370.12>
LayerCount: 2
Fore
SplineSet
392 901 m 1,0,-1
 449 1170 l 2,1,2
 521 1510 521 1510 881 1510 c 2,3,-1
 1257 1510 l 1,4,-1
 1219 1330 l 1,5,-1
 843 1330 l 2,6,7
 683 1330 683 1330 649 1170 c 2,8,-1
 592 901 l 1,9,-1
 392 901 l 1,0,-1
200 0 m 1,10,-1
 306 501 l 2,11,12
 379 841 379 841 739 841 c 2,13,-1
 1115 841 l 1,14,-1
 1076 661 l 1,15,-1
 700 661 l 2,16,17
 540 661 540 661 506 501 c 1,18,-1
 400 0 l 1,19,-1
 200 0 l 1,10,-1
EndSplineSet
Validated: 1
EndChar

StartChar: G
Encoding: 71 71 41
Width: 1616
GlyphClass: 2
Flags: W
HStem: -20 180<668.385 1221.5> 661 180<1109 1356> 1350 180<899.781 1316.92>
VStem: 249 194<388.252 848.485>
DStem2: 1211.73 -20 1411.73 -20 0.207912 0.978148<215.257 696.114>
LayerCount: 2
Fore
SplineSet
846 -20 m 2,0,1
 524 -20 524 -20 356 224 c 0,2,3
 249 379 249 379 249 599 c 0,4,5
 249 673 249 673 261 755 c 0,6,7
 311 1094 311 1094 558 1312 c 128,-1,8
 805 1530 805 1530 1136 1530 c 0,9,10
 1449 1530 1449 1530 1626 1286 c 1,11,-1
 1463 1176 l 1,12,13
 1341 1350 1341 1350 1117 1350 c 128,-1,14
 893 1350 893 1350 697 1176 c 0,15,16
 516 1015 516 1015 461 755 c 0,17,18
 443 669 443 669 443 595 c 0,19,20
 443 442 443 442 519 334 c 0,21,22
 641 160 641 160 865 160 c 2,23,-1
 1090 160 l 2,24,25
 1250 160 1250 160 1284 320 c 2,26,-1
 1356 661 l 1,27,-1
 1070 661 l 1,28,-1
 1109 841 l 1,29,-1
 1595 841 l 1,30,-1
 1484 320 l 2,31,32
 1412 -20 1412 -20 1052 -20 c 2,33,-1
 846 -20 l 2,0,1
EndSplineSet
Validated: 1
EndChar

StartChar: H
Encoding: 72 72 42
Width: 1571
GlyphClass: 2
Flags: W
HStem: 0 21G<200 404.232 1171 1375.25> 661 180<568.5 1132> 1490 20G<516.764 721 1487.75 1692>
VStem: 200 200<0 200> 392 200<901 1101> 521 200<1310 1510> 1171 200<0 200> 1492 200<1310 1510>
DStem2: 200 0 400 0 0.207912 0.978148<41.5823 686.112 962.812 1543.74> 1171 0 1371 0 0.207912 0.978148<41.5823 1543.74>
LayerCount: 2
Fore
SplineSet
200 0 m 1,0,-1
 306 501 l 2,1,2
 379 841 379 841 739 841 c 2,3,-1
 1170 841 l 25,4,-1
 1132 661 l 25,5,-1
 700 661 l 18,6,7
 540 661 540 661 506 501 c 2,8,-1
 400 0 l 1,9,-1
 200 0 l 1,0,-1
521 1510 m 1,10,-1
 721 1510 l 1,11,-1
 592 901 l 1,12,-1
 392 901 l 1,13,-1
 521 1510 l 1,10,-1
1371 0 m 1,14,-1
 1171 0 l 1,15,-1
 1492 1510 l 1,16,-1
 1692 1510 l 1,17,-1
 1371 0 l 1,14,-1
EndSplineSet
Validated: 1
EndChar

StartChar: I
Encoding: 73 73 43
Width: 600
GlyphClass: 2
Flags: W
HStem: 0 21G<200 404.252> 1490 20G<516.748 721>
VStem: 200 200<0 200> 521 200<1310 1510>
DStem2: 200 0 400 0 0.207912 0.978148<41.5823 1543.74>
LayerCount: 2
Fore
SplineSet
200 0 m 1,0,-1
 521 1510 l 1,1,-1
 721 1510 l 1,2,-1
 400 0 l 1,3,-1
 200 0 l 1,0,-1
EndSplineSet
Validated: 1
EndChar

StartChar: J
Encoding: 74 74 44
Width: 1121
GlyphClass: 2
Flags: W
HStem: -20 180<244.98 584.306> 1330 180<602 1004>
DStem2: 716.268 -20 916.693 -20 0.207912 0.978148<370.777 1380.32>
LayerCount: 2
Fore
SplineSet
400 -20 m 0,0,1
 167 -20 167 -20 39 136 c 1,2,-1
 180 268 l 1,3,4
 257 160 257 160 400 160 c 0,5,6
 569 160 569 160 692 283 c 0,7,8
 804 395 804 395 837 548 c 2,9,-1
 1004 1330 l 1,10,-1
 564 1330 l 1,11,-1
 602 1510 l 1,12,-1
 1242 1510 l 1,13,-1
 1037 546 l 2,14,15
 983 291 983 291 807 136 c 0,16,17
 629 -20 629 -20 400 -20 c 0,0,1
EndSplineSet
Validated: 1
EndChar

StartChar: K
Encoding: 75 75 45
Width: 1380
GlyphClass: 2
Flags: W
HStem: 0 21G<200 404.252 962.5 1230> 1490 20G<516.748 721 1280 1545>
VStem: 200 200<0 200> 521 200<1310 1510> 1004 226<0 114.57> 1345 200<1358.78 1510>
DStem2: 200 0 400 0 0.207912 0.978148<41.5823 1543.74>
LayerCount: 2
Fore
SplineSet
1230 0 m 1,0,1
 1004 0 l 1,2,3
 921 282 921 282 661 380 c 1,4,-1
 699 561 l 1,5,6
 1215 897 1215 897 1345 1510 c 1,7,-1
 1545 1510 l 1,8,9
 1414 893 1414 893 890 470 c 1,10,11
 1124 354 1124 354 1230 0 c 1,0,1
200 0 m 1,12,-1
 521 1510 l 17,13,-1
 721 1510 l 9,14,-1
 400 0 l 1,15,-1
 200 0 l 1,12,-1
EndSplineSet
Validated: 1
EndChar

StartChar: L
Encoding: 76 76 46
Width: 988
GlyphClass: 2
Flags: W
HStem: 0 180<438 978> 1490 20G<516.748 721>
VStem: 521 200<1310 1510>
DStem2: 200 0 399.74 0 0.207912 0.978148<225.55 1543.74>
LayerCount: 2
Fore
SplineSet
200 0 m 1,0,-1
 521 1510 l 1,1,-1
 721 1510 l 1,2,-1
 438 180 l 1,3,-1
 1016 180 l 1,4,-1
 978 0 l 1,5,-1
 200 0 l 1,0,-1
EndSplineSet
Validated: 1
EndChar

StartChar: M
Encoding: 77 77 47
Width: 2180
GlyphClass: 2
Flags: W
HStem: 0 21G<396.5 659 990 1194.26 1521 1810.5> 1350 180<902.03 1835.5>
VStem: 240 191<271.408 812.566> 990 200<0 200> 1239 200<970 1170> 2052 198<611.916 1133.28>
DStem2: 990 0 1190 0 0.207912 0.978148<41.5823 1196.2>
LayerCount: 2
Fore
SplineSet
990 0 m 1,0,-1
 1239 1170 l 1,1,-1
 1439 1170 l 1,2,-1
 1190 0 l 1,3,-1
 990 0 l 1,0,-1
659 0 m 1,4,5
 441 0 l 1,6,7
 352 96 352 96 305 216 c 0,8,9
 240 377 240 377 240 553 c 0,10,11
 240 642 240 642 256 735 c 0,12,13
 312 1055 312 1055 554 1294 c 0,14,15
 792 1530 792 1530 1135 1530 c 2,16,-1
 1655 1530 l 2,17,18
 1971 1530 1971 1530 2136 1294 c 0,19,20
 2250 1132 2250 1132 2250 902 c 0,21,22
 2250 823 2250 823 2236 735 c 0,23,24
 2191 445 2191 445 1987 216 c 0,25,26
 1862 77 1862 77 1759 0 c 1,27,-1
 1521 0 l 1,28,29
 1738 152 1738 152 1876 340 c 0,30,31
 2000 510 2000 510 2036 735 c 0,32,33
 2052 831 2052 831 2052 911 c 0,34,35
 2052 1078 2052 1078 1983 1176 c 0,36,37
 1861 1350 1861 1350 1637 1350 c 2,38,-1
 1117 1350 l 2,39,40
 893 1350 893 1350 697 1176 c 0,41,42
 516 1015 516 1015 456 735 c 0,43,44
 431 618 431 618 431 511 c 0,45,46
 431 422 431 422 448 340 c 0,47,48
 491 133 491 133 659 0 c 1,4,5
EndSplineSet
Validated: 1
EndChar

StartChar: N
Encoding: 78 78 48
Width: 1516
GlyphClass: 2
Flags: W
HStem: 0 21G<200 404.252 857 1156.5> 1350 180<720.347 1171.5>
VStem: 200 200<0 200> 1387 198<607.263 1135.05>
DStem2: 200 0 400 0 0.207912 0.978148<41.5823 1390.19>
LayerCount: 2
Fore
SplineSet
200 0 m 1,0,-1
 453 1190 l 2,1,2
 525 1530 525 1530 865 1530 c 2,3,-1
 991 1530 l 2,4,5
 1307 1530 1307 1530 1472 1294 c 0,6,7
 1585 1133 1585 1133 1585 900 c 0,8,9
 1585 822 1585 822 1572 735 c 0,10,11
 1531 459 1531 459 1323 216 c 0,12,13
 1218 95 1218 95 1095 0 c 1,14,-1
 857 0 l 1,15,16
 1082 164 1082 164 1212 340 c 0,17,18
 1338 512 1338 512 1372 735 c 0,19,20
 1387 830 1387 830 1387 910 c 0,21,22
 1387 1078 1387 1078 1319 1176 c 0,23,24
 1197 1350 1197 1350 973 1350 c 2,25,-1
 847 1350 l 2,26,27
 687 1350 687 1350 653 1190 c 2,28,-1
 400 0 l 1,29,-1
 200 0 l 1,0,-1
EndSplineSet
Validated: 1
EndChar

StartChar: O
Encoding: 79 79 49
Width: 1661
GlyphClass: 2
Flags: W
HStem: -20 180<667.443 1082.22> 1350 180<899.781 1316.92>
VStem: 249 194<387.752 848.485> 1539 194<661.756 1121.45>
LayerCount: 2
Fore
SplineSet
846 -20 m 0,0,1
 524 -20 524 -20 356 224 c 0,2,3
 249 377 249 377 249 599 c 0,4,5
 249 673 249 673 261 755 c 0,6,7
 311 1094 311 1094 558 1312 c 128,-1,8
 805 1530 805 1530 1136 1530 c 0,9,10
 1449 1530 1449 1530 1626 1286 c 0,11,12
 1733 1139 1733 1139 1733 916 c 0,13,14
 1733 840 1733 840 1721 755 c 0,15,16
 1671 418 1671 418 1424 198 c 0,17,18
 1177 -20 1177 -20 846 -20 c 0,0,1
865 160 m 128,-1,20
 1089 160 1089 160 1285 334 c 0,21,22
 1466 495 1466 495 1521 755 c 0,23,24
 1539 841 1539 841 1539 915 c 0,25,26
 1539 1068 1539 1068 1463 1176 c 0,27,28
 1341 1350 1341 1350 1117 1350 c 128,-1,29
 893 1350 893 1350 697 1176 c 0,30,31
 516 1015 516 1015 461 755 c 0,32,33
 443 669 443 669 443 595 c 0,34,35
 443 442 443 442 519 334 c 0,36,19
 641 160 641 160 865 160 c 128,-1,20
EndSplineSet
Validated: 1
EndChar

StartChar: P
Encoding: 80 80 50
Width: 1324
GlyphClass: 2
Flags: W
HStem: 0 21G<200 404.252> 380 181<699 932.14> 1350 180<714.785 1089.04>
VStem: 200 200<0 200> 1241 196<868.781 1214.53>
DStem2: 200 0 400 0 0.207912 0.978148<41.5823 1390.52>
LayerCount: 2
Fore
SplineSet
200 0 m 1,0,-1
 453 1190 l 2,1,2
 525 1530 525 1530 885 1530 c 0,3,4
 1152 1530 1152 1530 1298 1383 c 0,5,6
 1437 1241 1437 1241 1437 1055 c 0,7,8
 1437 1015 1437 1015 1431 974 c 0,9,10
 1393 723 1393 723 1216 568 c 0,11,12
 1002 380 1002 380 661 380 c 1,13,-1
 699 561 l 17,14,15
 917 561 917 561 1062 684 c 0,16,17
 1193 795 1193 795 1231 974 c 0,18,19
 1241 1021 1241 1021 1241 1062 c 0,20,21
 1241 1177 1241 1177 1166 1252 c 0,22,23
 1070 1350 1070 1350 847 1350 c 0,24,25
 687 1350 687 1350 653 1190 c 2,26,-1
 400 0 l 1,27,-1
 200 0 l 1,0,-1
EndSplineSet
Validated: 1
EndChar

StartChar: Q
Encoding: 81 81 51
Width: 1661
GlyphClass: 2
Flags: W
HStem: -20 180<669.638 944> 0 21G<1163.06 1402> 1350 180<899.781 1316.92>
VStem: 249 194<387.752 848.485> 1539 194<662.245 1121.45>
DStem2: 1285 334 1424 198 0.777417 0.628986<-58.8852 211.419>
LayerCount: 2
Fore
SplineSet
1402 0 m 1,0,-1
 1174 0 l 1,1,-1
 923 459 l 1,2,-1
 1151 459 l 1,3,-1
 1240 296 l 1,4,5
 1263 314 1263 314 1285 334 c 0,6,7
 1467 499 1467 499 1521 755 c 0,8,9
 1539 841 1539 841 1539 915 c 0,10,11
 1539 1068 1539 1068 1463 1176 c 0,12,13
 1341 1350 1341 1350 1117 1350 c 128,-1,14
 893 1350 893 1350 697 1176 c 0,15,16
 516 1015 516 1015 461 755 c 0,17,18
 443 669 443 669 443 595 c 0,19,20
 443 442 443 442 519 334 c 0,21,22
 641 160 641 160 865 160 c 2,23,-1
 982 160 l 1,24,-1
 944 -20 l 1,25,-1
 846 -20 l 2,26,27
 527 -20 527 -20 356 224 c 0,28,29
 249 377 249 377 249 599 c 0,30,31
 249 673 249 673 261 755 c 0,32,33
 311 1094 311 1094 558 1312 c 128,-1,34
 805 1530 805 1530 1136 1530 c 0,35,36
 1449 1530 1449 1530 1626 1286 c 0,37,38
 1733 1139 1733 1139 1733 916 c 0,39,40
 1733 836 1733 836 1721 755 c 0,41,42
 1671 417 1671 417 1424 198 c 0,43,44
 1380 159 1380 159 1333 127 c 1,45,-1
 1402 0 l 1,0,-1
EndSplineSet
Validated: 1
EndChar

StartChar: R
Encoding: 82 82 52
Width: 1395
GlyphClass: 2
Flags: W
HStem: 0 21G<200 404.252 1075.95 1385> 1350 180<714.785 1089.52>
VStem: 200 200<0 200> 1099 286<0 286> 1241 196<868.781 1214.53>
DStem2: 200 0 400 0 0.207912 0.978148<41.5823 1390.52> 908 411 661 380 0.757572 -0.652751<0 412.977>
LayerCount: 2
Fore
SplineSet
200 0 m 1,0,-1
 453 1190 l 2,1,2
 525 1530 525 1530 885 1530 c 0,3,4
 1154 1530 1154 1530 1298 1383 c 0,5,6
 1437 1241 1437 1241 1437 1055 c 0,7,8
 1437 1015 1437 1015 1431 974 c 0,9,10
 1393 723 1393 723 1216 568 c 0,11,12
 1093 461 1093 461 908 411 c 1,13,-1
 1385 0 l 1,14,-1
 1099 0 l 1,15,-1
 661 380 l 1,16,-1
 699 561 l 1,17,18
 917 561 917 561 1062 684 c 0,19,20
 1193 795 1193 795 1231 974 c 0,21,22
 1241 1021 1241 1021 1241 1062 c 0,23,24
 1241 1177 1241 1177 1166 1252 c 0,25,26
 1070 1350 1070 1350 847 1350 c 0,27,28
 687 1350 687 1350 653 1190 c 2,29,-1
 400 0 l 1,30,-1
 200 0 l 1,0,-1
EndSplineSet
Validated: 1
EndChar

StartChar: S
Encoding: 83 83 53
Width: 1244
GlyphClass: 2
Flags: W
HStem: -20 180<439.617 812.772> 1351 179<782.427 1068.41>
VStem: 511 195<1045.75 1273.8> 1024 203<360.262 645.553>
DStem2: 854 966 768 788 0.877675 -0.479257<-175.969 297.037>
LayerCount: 2
Fore
SplineSet
594 -20 m 0,0,1
 322 -20 322 -20 144 206 c 1,2,-1
 317 324 l 1,3,4
 415 160 415 160 626 160 c 0,5,6
 774 160 774 160 883 249 c 0,7,8
 994 340 994 340 1018 457 c 0,9,10
 1024 486 1024 486 1024 514 c 0,11,12
 1024 649 1024 649 880 727 c 2,13,-1
 768 788 l 2,14,15
 511 928 511 928 511 1142 c 0,16,17
 511 1165 511 1165 514 1189 c 0,18,19
 535 1357 535 1357 687 1462 c 0,20,21
 786 1530 786 1530 956 1530 c 0,22,23
 1158 1530 1158 1530 1277 1387 c 1,24,-1
 1111 1265 l 1,25,26
 1039 1351 1039 1351 938 1351 c 0,27,28
 838 1351 838 1351 784 1310 c 0,29,30
 727 1267 727 1267 710 1189 c 0,31,32
 706 1171 706 1171 706 1154 c 0,33,34
 706 1047 706 1047 854 966 c 2,35,-1
 1006 883 l 2,36,37
 1227 762 1227 762 1227 532 c 0,38,39
 1227 499 1227 499 1223 464 c 0,40,41
 1199 274 1199 274 1037 132 c 0,42,43
 862 -20 862 -20 594 -20 c 0,0,1
EndSplineSet
Validated: 1
EndChar

StartChar: T
Encoding: 84 84 54
Width: 1090
GlyphClass: 2
Flags: W
HStem: 0 21G<446 650.256> 1330 180<331 669 957.5 1363>
VStem: 446 200<0 200>
DStem2: 446 0 646 0 0.207912 0.978148<41.5823 1370.12>
LayerCount: 2
Fore
SplineSet
331 1510 m 25,0,-1
 707 1510 l 25,1,-1
 669 1330 l 25,2,-1
 293 1330 l 25,3,-1
 331 1510 l 25,0,-1
446 0 m 1,4,-1
 695 1170 l 2,5,6
 767 1510 767 1510 1127 1510 c 2,7,-1
 1401 1510 l 25,8,-1
 1363 1330 l 25,9,-1
 1089 1330 l 18,10,11
 929 1330 929 1330 895 1170 c 2,12,-1
 646 0 l 1,13,-1
 446 0 l 1,4,-1
EndSplineSet
Validated: 1
EndChar

StartChar: U
Encoding: 85 85 55
Width: 1516
GlyphClass: 2
Flags: W
HStem: -20 180<665.5 1116.65> 1490 20G<680.5 980 1432.75 1637>
VStem: 252 198<374.95 902.737> 1437 200<1310 1510>
DStem2: 1111.73 -20 1311.73 -20 0.207912 0.978148<215.586 1564.19>
LayerCount: 2
Fore
SplineSet
972 -20 m 2,0,-1
 846 -20 l 2,1,2
 530 -20 530 -20 365 216 c 0,3,4
 252 377 252 377 252 610 c 0,5,6
 252 688 252 688 265 775 c 0,7,8
 306 1051 306 1051 514 1294 c 0,9,10
 619 1415 619 1415 742 1510 c 1,11,-1
 980 1510 l 1,12,13
 755 1346 755 1346 625 1170 c 0,14,15
 499 998 499 998 465 775 c 0,16,17
 450 680 450 680 450 600 c 0,18,19
 450 432 450 432 518 334 c 0,20,21
 640 160 640 160 864 160 c 2,22,-1
 990 160 l 2,23,24
 1150 160 1150 160 1184 320 c 2,25,-1
 1437 1510 l 1,26,-1
 1637 1510 l 1,27,-1
 1384 320 l 2,28,29
 1312 -20 1312 -20 972 -20 c 2,0,-1
EndSplineSet
Validated: 1
EndChar

StartChar: V
Encoding: 86 86 56
Width: 1574
GlyphClass: 2
Flags: W
HStem: 0 21G<488 1237> 1490 20G<473 801 1415 1679.5>
VStem: 294 204<595.536 1095.9> 1508 204<930.238 1417.46>
LayerCount: 2
Fore
SplineSet
682 0 m 1,0,1
 294 415 294 415 294 823 c 0,2,3
 294 914 294 914 314 1005 c 0,4,5
 377 1301 377 1301 569 1510 c 1,6,-1
 801 1510 l 1,7,8
 577 1305 577 1305 514 1005 c 0,9,10
 498 929 498 929 498 852 c 0,11,12
 498 518 498 518 796 160 c 1,13,14
 1407 627 1407 627 1488 1005 c 0,15,16
 1508 1100 1508 1100 1508 1186 c 0,17,18
 1508 1370 1508 1370 1415 1510 c 1,19,-1
 1647 1510 l 1,20,21
 1712 1380 1712 1380 1712 1217 c 0,22,23
 1712 1117 1712 1117 1688 1005 c 0,24,25
 1582 507 1582 507 892 0 c 1,26,-1
 682 0 l 1,0,1
EndSplineSet
Validated: 1
EndChar

StartChar: W
Encoding: 87 87 57
Width: 2180
GlyphClass: 2
Flags: W
HStem: -20 180<658.295 993.077 1324 1548.43> 1490 20G<662 980 1306.75 1511 1842 2124>
VStem: 249 199<386.927 896.222> 1311 200<1310 1510> 2069 195<693.973 1263.42>
DStem2: 985.731 -20 1185.73 -20 0.207912 0.978148<215.586 1564.19>
LayerCount: 2
Fore
SplineSet
1286 -20 m 1,0,1
 1324 160 l 1,2,3
 1555 160 1555 160 1774 334 c 0,4,5
 1986 502 1986 502 2040 755 c 0,6,7
 2069 889 2069 889 2069 1006 c 0,8,9
 2069 1093 2069 1093 2053 1170 c 0,10,11
 2010 1377 2010 1377 1842 1510 c 1,12,-1
 2080 1510 l 1,13,14
 2168 1420 2168 1420 2211 1293 c 0,15,16
 2264 1138 2264 1138 2264 976 c 0,17,18
 2264 867 2264 867 2240 755 c 0,19,20
 2171 429 2171 429 1917 216 c 0,21,22
 1635 -20 1635 -20 1286 -20 c 1,0,1
846 -20 m 24,23,24
 518 -20 518 -20 365 216 c 0,25,26
 249 396 249 396 249 614 c 0,27,28
 249 683 249 683 260 755 c 0,29,30
 309 1066 309 1066 498 1294 c 0,31,32
 598 1415 598 1415 726 1510 c 1,33,-1
 980 1510 l 1,34,35
 769 1385 769 1385 625 1170 c 0,36,37
 494 975 494 975 460 755 c 0,38,39
 448 680 448 680 448 612 c 0,40,41
 448 449 448 449 518 334 c 0,42,43
 626 160 626 160 864 160 c 24,44,45
 1024 160 1024 160 1058 320 c 2,46,-1
 1311 1510 l 1,47,-1
 1511 1510 l 1,48,-1
 1258 320 l 2,49,50
 1186 -20 1186 -20 846 -20 c 24,23,24
EndSplineSet
Validated: 1
EndChar

StartChar: X
Encoding: 88 88 58
Width: 1339
GlyphClass: 2
Flags: W
HStem: 0 21G<120 363.5 1013 1230> 1490 20G<428 631 1295 1540>
VStem: 120 200<0 200> 415 192<1058.44 1506.24> 441 190<1320 1510> 1033 208<3.06018 398.529> 1340 200<1310 1510>
LayerCount: 2
Fore
SplineSet
1340 1510 m 1,0,-1
 1540 1510 l 1,1,2
 1442 1050 1442 1050 1116 908 c 1,3,-1
 873 908 l 1,4,5
 1250 1086 1250 1086 1340 1510 c 1,0,-1
120 0 m 1,6,7
 214 440 214 440 528 581 c 1,8,-1
 771 581 l 1,9,10
 407 412 407 412 320 0 c 1,11,-1
 120 0 l 1,6,7
1013 0 m 1,12,13
 1033 94 1033 94 1033 177 c 0,14,15
 1033 491 1033 491 752 668 c 0,16,17
 415 880 415 880 415 1274 c 0,18,19
 415 1385 415 1385 441 1510 c 1,20,-1
 631 1510 l 1,21,22
 607 1394 607 1394 607 1294 c 0,23,24
 607 983 607 983 846 836 c 0,25,26
 1241 592 1241 592 1241 196 c 0,27,28
 1241 102 1241 102 1219 0 c 1,29,-1
 1013 0 l 1,12,13
EndSplineSet
Validated: 1
EndChar

StartChar: Y
Encoding: 89 89 59
Width: 1312
GlyphClass: 2
Flags: W
HStem: 0 21G<559 763.246> 1490 20G<406 601 1286 1533>
VStem: 391 187<1057.56 1506.13> 421 180<1330 1510> 559 200<0 200> 678 204<369.188 708.018> 1333 200<1310 1510>
DStem2: 559 0 759 0 0.207912 0.978148<41.5823 595.276>
LayerCount: 2
Fore
SplineSet
1333 1510 m 1,0,-1
 1533 1510 l 1,1,2
 1429 1022 1429 1022 1075 871 c 1,3,-1
 832 871 l 1,4,5
 1239 1066 1239 1066 1333 1510 c 1,0,-1
759 0 m 1,6,7
 559 0 l 1,8,-1
 673 537 l 2,9,10
 678 561 678 561 678 584 c 0,11,12
 678 672 678 672 602 742 c 0,13,14
 391 934 391 934 391 1252 c 0,15,16
 391 1372 391 1372 421 1510 c 1,17,-1
 601 1510 l 1,18,19
 578 1400 578 1400 578 1303 c 0,20,21
 578 1008 578 1008 789 823 c 0,22,23
 882 741 882 741 882 618 c 0,24,25
 882 580 882 580 873 537 c 2,26,-1
 759 0 l 1,6,7
EndSplineSet
Validated: 1
EndChar

StartChar: Z
Encoding: 90 90 60
Width: 1247
GlyphClass: 2
Flags: W
HStem: 0 180<509 1147> 1330 180<501 1215.99>
VStem: 100 210<0 210> 1216 221<1262.87 1448.5>
LayerCount: 2
Fore
SplineSet
100 0 m 1,0,1
 221 564 221 564 740 837 c 0,2,3
 1153 1054 1153 1054 1215 1306 c 0,4,5
 1216 1310 1216 1310 1216 1313 c 0,6,7
 1216 1330 1216 1330 1179 1330 c 2,8,-1
 463 1330 l 1,9,-1
 501 1510 l 1,10,-1
 1262 1510 l 2,11,12
 1437 1510 1437 1510 1437 1387 c 0,13,14
 1437 1365 1437 1365 1432 1340 c 8,15,16
 1344 927 1344 927 801 662 c 0,17,18
 410 472 410 472 310 0 c 1,19,-1
 100 0 l 1,0,1
1147 0 m 1,20,-1
 471 0 l 1,21,-1
 509 180 l 1,22,-1
 1185 180 l 1,23,-1
 1147 0 l 1,20,-1
EndSplineSet
Validated: 1
EndChar

StartChar: bracketleft
Encoding: 91 91 61
Width: 783
GlyphClass: 2
Flags: W
HStem: -250 160<361 680> 1600 160<720 1073>
DStem2: 147 -250 326.991 -250 0.207912 0.978148<200.997 1928.71>
LayerCount: 2
Fore
SplineSet
147 -250 m 1,0,-1
 574 1760 l 1,1,-1
 1107 1760 l 1,2,-1
 1073 1600 l 1,3,-1
 720 1600 l 1,4,-1
 361 -90 l 1,5,-1
 714 -90 l 1,6,-1
 680 -250 l 1,7,-1
 147 -250 l 1,0,-1
EndSplineSet
Validated: 1
EndChar

StartChar: backslash
Encoding: 92 92 62
Width: 1015
GlyphClass: 2
Flags: W
VStem: 356 624
DStem2: 499 1690 356 1628 0.257596 -0.966253<23.0714 1868.96>
LayerCount: 2
Fore
SplineSet
980 -116 m 1,0,-1
 838 -180 l 1,1,-1
 356 1628 l 1,2,-1
 499 1690 l 5,3,-1
 980 -116 l 1,0,-1
EndSplineSet
Validated: 1
EndChar

StartChar: bracketright
Encoding: 93 93 63
Width: 783
GlyphClass: 2
Flags: W
HStem: -250 160<31 384> 1600 160<424 743>
DStem2: 349.991 -250 530 -250 0.207912 0.978148<163.574 1891.28>
LayerCount: 2
Fore
SplineSet
530 -250 m 1,0,-1
 -3 -250 l 1,1,-1
 31 -90 l 1,2,-1
 384 -90 l 1,3,-1
 743 1600 l 1,4,-1
 390 1600 l 1,5,-1
 424 1760 l 1,6,-1
 957 1760 l 1,7,-1
 530 -250 l 1,0,-1
EndSplineSet
Validated: 1
EndChar

StartChar: asciicircum
Encoding: 94 94 64
Width: 832
GlyphClass: 2
Flags: W
HStem: 1039 491
DStem2: 300 1175 407 1039 0.771153 0.63665<0 373.902> 730 1530 699 1279 0.618833 -0.785522<177.982 479.935>
LayerCount: 2
Fore
SplineSet
730 1530 m 1,0,-1
 1027 1153 l 1,1,-1
 889 1039 l 1,2,-1
 699 1279 l 1,3,-1
 407 1039 l 1,4,-1
 300 1175 l 1,5,-1
 730 1530 l 1,0,-1
EndSplineSet
Validated: 1
EndChar

StartChar: underscore
Encoding: 95 95 65
Width: 1133
GlyphClass: 2
Flags: W
HStem: -180 140<141 945>
LayerCount: 2
Fore
SplineSet
141 -40 m 1,0,-1
 974 -40 l 1,1,-1
 945 -180 l 1,2,-1
 112 -180 l 1,3,-1
 141 -40 l 1,0,-1
EndSplineSet
Validated: 1
EndChar

StartChar: grave
Encoding: 96 96 66
Width: 454
GlyphClass: 2
Flags: W
HStem: 1242 339
VStem: 364 326
DStem2: 480 1581 364 1476 0.66791 -0.744242<0.66791 314.414>
LayerCount: 2
Fore
SplineSet
480 1581 m 1,0,-1
 690 1347 l 1,1,-1
 574 1242 l 1,2,-1
 364 1476 l 1,3,-1
 480 1581 l 1,0,-1
EndSplineSet
Validated: 1
EndChar

StartChar: a
Encoding: 97 97 67
Width: 1230
GlyphClass: 2
Flags: W
HStem: -20 160<517.381 665> 0 21G<849 1033.27> 960 160<674.875 1000.71>
VStem: 210 175<271.227 652.069> 849 180<0 180> 1022 180<605.312 936.903>
DStem2: 844.749 -20 1024.75 -20 0.207912 0.978148<57.8709 880.136>
LayerCount: 2
Fore
SplineSet
1029 0 m 1,0,-1
 849 0 l 1,1,-1
 1015 780 l 2,2,3
 1022 815 1022 815 1022 843 c 0,4,5
 1022 960 1022 960 893 960 c 0,6,7
 699 960 699 960 568 846 c 128,-1,8
 437 732 437 732 398 550 c 0,9,10
 385 491 385 491 385 440 c 0,11,12
 385 331 385 331 441 254 c 0,13,14
 523 140 523 140 699 140 c 1,15,-1
 665 -20 l 1,16,17
 430 -20 430 -20 313 133 c 0,18,19
 210 269 210 269 210 451 c 0,20,21
 210 498 210 498 217 550 c 0,22,23
 253 816 253 816 460 982 c 0,24,25
 632 1120 632 1120 917 1120 c 128,-1,26
 1202 1120 1202 1120 1202 869 c 0,27,28
 1202 811 1202 811 1187 740 c 2,29,-1
 1029 0 l 1,0,-1
EndSplineSet
Validated: 1
EndChar

StartChar: b
Encoding: 98 98 68
Width: 1230
GlyphClass: 2
Flags: W
HStem: -20 160<463.29 789.125> 960 160<799 946.619> 1490 20G<517.739 702>
VStem: 262 180<163.097 486.562> 522 180<1330 1510> 1079 175<453.766 828.773>
DStem2: 196.229 -20 376.731 -20 0.207912 0.978148<322.964 1564.3>
LayerCount: 2
Fore
SplineSet
547 -20 m 128,-1,1
 262 -20 262 -20 262 231 c 0,2,3
 262 290 262 290 277 360 c 2,4,-1
 522 1510 l 1,5,-1
 702 1510 l 1,6,-1
 449 320 l 2,7,8
 442 287 442 287 442 257 c 0,9,10
 442 140 442 140 571 140 c 0,11,12
 765 140 765 140 896 254 c 0,13,14
 1026 367 1026 367 1066 550 c 0,15,16
 1079 609 1079 609 1079 660 c 0,17,18
 1079 769 1079 769 1023 846 c 0,19,20
 941 960 941 960 765 960 c 1,21,-1
 799 1120 l 1,22,23
 1034 1120 1034 1120 1151 967 c 0,24,25
 1254 831 1254 831 1254 649 c 0,26,27
 1254 602 1254 602 1247 550 c 0,28,29
 1211 284 1211 284 1004 118 c 0,30,0
 832 -20 832 -20 547 -20 c 128,-1,1
EndSplineSet
Validated: 1
EndChar

StartChar: c
Encoding: 99 99 69
Width: 1123
GlyphClass: 2
Flags: W
HStem: -20 160<511.6 861.775> 960 160<668.225 1018.4>
VStem: 209 175<271.215 652.069>
LayerCount: 2
Fore
SplineSet
654 -20 m 0,0,1
 431 -20 431 -20 309 135 c 0,2,3
 209 260 209 260 209 444 c 0,4,5
 209 495 209 495 217 550 c 0,6,7
 253 815 253 815 451 978 c 0,8,9
 624 1120 624 1120 876 1120 c 0,10,11
 1099 1120 1099 1120 1221 965 c 1,12,-1
 1091 846 l 1,13,14
 1010 960 1010 960 852 960 c 128,-1,15
 694 960 694 960 565 846 c 128,-1,16
 436 732 436 732 397 550 c 0,17,18
 384 491 384 491 384 439 c 0,19,20
 384 331 384 331 439 254 c 0,21,22
 520 140 520 140 678 140 c 128,-1,23
 836 140 836 140 965 254 c 1,24,-1
 1079 122 l 1,25,26
 906 -20 906 -20 654 -20 c 0,0,1
EndSplineSet
Validated: 1
EndChar

StartChar: d
Encoding: 100 100 70
Width: 1228
GlyphClass: 2
Flags: W
HStem: -20 160<505.175 828.216> 960 160<672.156 872> 1490 20G<1164.75 1349>
VStem: 210 175<272.59 653.937> 1169 180<1330 1510>
DStem2: 843.731 -20 1023.73 -20 0.207912 0.978148<210.787 1564.19>
LayerCount: 2
Fore
SplineSet
645 -20 m 0,0,1
 435 -20 435 -20 313 133 c 0,2,3
 210 262 210 262 210 451 c 0,4,5
 210 498 210 498 217 550 c 0,6,7
 253 816 253 816 460 982 c 0,8,9
 633 1120 633 1120 906 1120 c 1,10,-1
 872 960 l 1,11,12
 699 960 699 960 568 846 c 0,13,14
 433 729 433 729 397 550 c 0,15,16
 385 491 385 491 385 440 c 0,17,18
 385 338 385 338 440 254 c 0,19,20
 514 140 514 140 655 140 c 0,21,22
 878 140 878 140 916 320 c 2,23,-1
 1169 1510 l 1,24,-1
 1349 1510 l 1,25,-1
 1096 320 l 2,26,27
 1024 -20 1024 -20 645 -20 c 0,0,1
EndSplineSet
Validated: 1
EndChar

StartChar: e
Encoding: 101 101 71
Width: 1123
GlyphClass: 2
Flags: W
HStem: -20 160<511.6 861.775> 470 160<594 981> 960 160<668.225 1018.4>
VStem: 209 175<271.215 652.069>
CounterMasks: 1 e0
LayerCount: 2
Fore
SplineSet
594 630 m 1,0,-1
 1015 630 l 1,1,-1
 981 470 l 1,2,-1
 560 470 l 1,3,-1
 594 630 l 1,0,-1
654 -20 m 0,4,5
 431 -20 431 -20 309 135 c 0,6,7
 209 260 209 260 209 444 c 0,8,9
 209 495 209 495 217 550 c 0,10,11
 253 815 253 815 451 978 c 0,12,13
 624 1120 624 1120 876 1120 c 0,14,15
 1099 1120 1099 1120 1221 965 c 1,16,-1
 1091 846 l 1,17,18
 1010 960 1010 960 852 960 c 128,-1,19
 694 960 694 960 565 846 c 128,-1,20
 436 732 436 732 397 550 c 0,21,22
 384 491 384 491 384 439 c 0,23,24
 384 331 384 331 439 254 c 0,25,26
 520 140 520 140 678 140 c 128,-1,27
 836 140 836 140 965 254 c 1,28,-1
 1079 122 l 1,29,30
 906 -20 906 -20 654 -20 c 0,4,5
EndSplineSet
Validated: 1
EndChar

StartChar: f
Encoding: 102 102 72
Width: 740
GlyphClass: 2
Flags: W
HStem: 0 21G<200 384.263> 940 160<612.284 930> 1370 160<768.32 1021>
VStem: 200 180<0 180> 447 180<1160 1340>
DStem2: 200 0 380 0 0.207912 0.978148<37.4241 967.25 1223.43 1358.4>
LayerCount: 2
Fore
SplineSet
200 0 m 1,0,-1
 362 760 l 2,1,2
 434 1100 434 1100 774 1100 c 2,3,-1
 964 1100 l 25,4,-1
 930 940 l 25,5,-1
 740 940 l 18,6,7
 580 940 580 940 542 760 c 2,8,-1
 380 0 l 1,9,-1
 200 0 l 1,0,-1
447 1160 m 1,10,11
 526 1530 526 1530 1055 1530 c 1,12,-1
 1021 1370 l 1,13,14
 671 1370 671 1370 627 1160 c 1,15,-1
 447 1160 l 1,10,11
EndSplineSet
Validated: 1
EndChar

StartChar: g
Encoding: 103 103 73
Width: 1230
GlyphClass: 2
Flags: W
HStem: -430 160<442 631.686> -20 160<517.381 665> 960 160<674.875 1000.71>
VStem: 210 175<271.227 646.234> 1022 180<604.531 936.903>
DStem2: 758.094 -430 938.094 -430 0.207912 0.978148<329.151 1299.13>
LayerCount: 2
Fore
SplineSet
665 -20 m 1,0,1
 430 -20 430 -20 313 133 c 0,2,3
 210 269 210 269 210 451 c 0,4,5
 210 498 210 498 217 550 c 0,6,7
 253 816 253 816 460 982 c 0,8,9
 632 1120 632 1120 917 1120 c 128,-1,10
 1202 1120 1202 1120 1202 869 c 0,11,12
 1202 811 1202 811 1187 740 c 2,13,-1
 1055 120 l 2,14,15
 1001 -134 1001 -134 870 -262 c 0,16,17
 698 -430 698 -430 408 -430 c 1,18,-1
 442 -270 l 1,19,20
 593 -270 593 -270 706 -182 c 0,21,22
 832 -84 832 -84 875 120 c 2,23,-1
 1015 780 l 2,24,25
 1022 813 1022 813 1022 843 c 0,26,27
 1022 960 1022 960 893 960 c 0,28,29
 699 960 699 960 568 846 c 0,30,31
 438 733 438 733 398 550 c 0,32,33
 385 491 385 491 385 440 c 0,34,35
 385 331 385 331 441 254 c 0,36,37
 523 140 523 140 699 140 c 1,38,-1
 665 -20 l 1,0,1
EndSplineSet
Validated: 1
EndChar

StartChar: h
Encoding: 104 104 74
Width: 1248
GlyphClass: 2
Flags: W
HStem: 0 21G<200 384.252 678 949.5> 960 160<798 946.801> 1490 20G<516.748 701>
VStem: 200 180<0 180> 521 180<1330 1510> 678 221<0 221> 1098 179<444.61 824.149>
DStem2: 200 0 380 0 0.207912 0.978148<37.4241 1543.74>
LayerCount: 2
Fore
SplineSet
678 0 m 1,0,1
 847 126 847 126 940 244 c 0,2,3
 1049 383 1049 383 1085 550 c 0,4,5
 1098 610 1098 610 1098 662 c 0,6,7
 1098 774 1098 774 1037 845 c 0,8,9
 938 960 938 960 764 960 c 1,10,-1
 798 1120 l 1,11,12
 1033 1120 1033 1120 1160 980 c 0,13,14
 1277 852 1277 852 1277 671 c 0,15,16
 1277 613 1277 613 1265 550 c 0,17,18
 1229 358 1229 358 1098 199 c 0,19,20
 1000 79 1000 79 899 0 c 1,21,-1
 678 0 l 1,0,1
380 0 m 1,22,-1
 200 0 l 1,23,-1
 521 1510 l 1,24,-1
 701 1510 l 1,25,-1
 380 0 l 1,22,-1
EndSplineSet
Validated: 1
EndChar

StartChar: i
Encoding: 105 105 75
Width: 580
GlyphClass: 2
Flags: W
HStem: 0 21G<200 384.255> 1080 20G<429.745 614> 1209 265<489.814 660.186>
VStem: 200 180<0 180> 434 180<920 1100> 446 258<1253.06 1429.94>
DStem2: 200 0 380 0 0.207912 0.978148<37.4241 1124.61>
LayerCount: 2
Fore
SplineSet
601 1474 m 0,0,1
 653 1474 653 1474 681 1438 c 0,2,3
 704 1409 704 1409 704 1366 c 0,4,5
 704 1349 704 1349 702 1337 c 0,6,7
 694 1280 694 1280 648 1242 c 0,8,9
 608 1209 608 1209 549 1209 c 0,10,11
 497 1209 497 1209 469 1245 c 0,12,13
 446 1274 446 1274 446 1317 c 0,14,15
 446 1334 446 1334 448 1346 c 0,16,17
 456 1403 456 1403 502 1441 c 0,18,19
 542 1474 542 1474 601 1474 c 0,0,1
200 0 m 1,20,-1
 434 1100 l 1,21,-1
 614 1100 l 1,22,-1
 380 0 l 1,23,-1
 200 0 l 1,20,-1
EndSplineSet
Validated: 1
EndChar

StartChar: j
Encoding: 106 106 76
Width: 580
GlyphClass: 2
Flags: W
HStem: -430 21G<-66.8192 36.5> 1080 20G<429.753 614> 1209 265<489.814 660.186>
VStem: 434 180<920 1100> 446 258<1253.06 1429.94>
DStem2: 108.983 -430 288.732 -430 0.207912 0.978148<294.111 1564.14>
LayerCount: 2
Fore
SplineSet
601 1474 m 0,0,1
 653 1474 653 1474 681 1438 c 0,2,3
 704 1409 704 1409 704 1366 c 0,4,5
 704 1349 704 1349 702 1337 c 0,6,7
 694 1280 694 1280 648 1242 c 0,8,9
 608 1209 608 1209 549 1209 c 0,10,11
 497 1209 497 1209 469 1245 c 0,12,13
 446 1274 446 1274 446 1317 c 0,14,15
 446 1334 446 1334 448 1346 c 0,16,17
 456 1403 456 1403 502 1441 c 0,18,19
 542 1474 542 1474 601 1474 c 0,0,1
-71 -430 m 1,20,-1
 -34 -253 l 1,21,22
 46 -220 46 -220 104 -161 c 0,23,24
 183 -82 183 -82 221 97 c 2,25,-1
 434 1100 l 17,26,-1
 614 1100 l 1,27,-1
 405 117 l 2,28,29
 356 -114 356 -114 269 -218 c 0,30,31
 144 -368 144 -368 -71 -430 c 1,20,-1
EndSplineSet
Validated: 1
EndChar

StartChar: k
Encoding: 107 107 77
Width: 1266
GlyphClass: 2
Flags: W
HStem: 0 21G<200 384.252 892 1116> 1080 20G<1064.5 1298> 1490 20G<516.748 701>
VStem: 200 180<0 180> 521 180<1330 1510> 921 195<0 195> 1118 180<920 1100>
DStem2: 200 0 380 0 0.207912 0.978148<37.4241 1543.74>
LayerCount: 2
Fore
SplineSet
1116 0 m 1,0,1
 921 0 l 1,2,3
 863 233 863 233 623 297 c 1,4,-1
 662 479 l 1,5,6
 1011 598 1011 598 1118 1100 c 1,7,-1
 1298 1100 l 1,8,9
 1178 521 1178 521 811 385 c 1,10,11
 1029 320 1029 320 1116 0 c 1,0,1
200 0 m 1,12,-1
 521 1510 l 1,13,-1
 701 1510 l 1,14,-1
 380 0 l 1,15,-1
 200 0 l 1,12,-1
EndSplineSet
Validated: 1
EndChar

StartChar: l
Encoding: 108 108 78
Width: 580
GlyphClass: 2
Flags: W
HStem: 0 21G<200 384.252> 1490 20G<516.748 701>
VStem: 200 180<0 180> 521 180<1330 1510>
DStem2: 200 0 380 0 0.207912 0.978148<37.4241 1543.74>
LayerCount: 2
Fore
SplineSet
200 0 m 1,0,-1
 521 1510 l 1,1,-1
 701 1510 l 1,2,-1
 380 0 l 1,3,-1
 200 0 l 1,0,-1
EndSplineSet
Validated: 1
EndChar

StartChar: m
Encoding: 109 109 79
Width: 1658
GlyphClass: 2
Flags: W
HStem: 0 21G<321.5 570 739 923.256 1088 1359.5> 960 160<687.582 1356.8>
VStem: 208 174<209.781 645.747> 359 211<0 211> 739 180<0 180> 905 180<600 780> 1088 221<0 221> 1508 179<444.61 824.149>
DStem2: 739 0 919 0 0.207912 0.978148<37.4241 797.468>
LayerCount: 2
Fore
SplineSet
570 0 m 1,0,1
 359 0 l 1,2,3
 284 80 284 80 244 199 c 0,4,5
 208 307 208 307 208 426 c 0,6,7
 208 486 208 486 217 550 c 0,8,9
 257 816 257 816 474 980 c 0,10,11
 661 1120 661 1120 926 1120 c 2,12,-1
 1208 1120 l 2,13,14
 1443 1120 1443 1120 1570 980 c 0,15,16
 1687 852 1687 852 1687 671 c 0,17,18
 1687 613 1687 613 1675 550 c 0,19,20
 1639 358 1639 358 1508 199 c 0,21,22
 1410 79 1410 79 1309 0 c 1,23,-1
 1088 0 l 1,24,25
 1257 126 1257 126 1350 244 c 0,26,27
 1459 383 1459 383 1495 550 c 0,28,29
 1508 610 1508 610 1508 662 c 0,30,31
 1508 774 1508 774 1447 845 c 0,32,33
 1348 960 1348 960 1174 960 c 2,34,-1
 892 960 l 2,35,36
 718 960 718 960 571 845 c 0,37,38
 438 741 438 741 397 550 c 0,39,40
 382 481 382 481 382 417 c 0,41,42
 382 325 382 325 412 244 c 0,43,44
 455 125 455 125 570 0 c 1,0,1
919 0 m 1,45,-1
 739 0 l 1,46,-1
 905 780 l 9,47,-1
 1085 780 l 17,48,-1
 919 0 l 1,45,-1
EndSplineSet
Validated: 1
EndChar

StartChar: n
Encoding: 110 110 80
Width: 1248
GlyphClass: 2
Flags: W
HStem: 0 21G<200 384.256 678 949.5> 960 160<623.531 949.503>
VStem: 200 180<0 180> 678 221<0 221> 1098 179<444.61 824.149>
DStem2: 200 0 380 0 0.207912 0.978148<37.4241 979.512>
LayerCount: 2
Fore
SplineSet
200 0 m 1,0,-1
 366 780 l 2,1,2
 438 1120 438 1120 783 1120 c 24,3,4
 1033 1120 1033 1120 1160 980 c 0,5,6
 1277 852 1277 852 1277 671 c 0,7,8
 1277 613 1277 613 1265 550 c 0,9,10
 1229 358 1229 358 1098 199 c 0,11,12
 1000 79 1000 79 899 0 c 1,13,-1
 678 0 l 1,14,15
 847 126 847 126 940 244 c 0,16,17
 1049 383 1049 383 1085 550 c 0,18,19
 1098 610 1098 610 1098 662 c 0,20,21
 1098 774 1098 774 1037 845 c 0,22,23
 938 960 938 960 764 960 c 24,24,25
 584 960 584 960 546 780 c 2,26,-1
 380 0 l 1,27,-1
 200 0 l 1,0,-1
EndSplineSet
Validated: 1
EndChar

StartChar: o
Encoding: 111 111 81
Width: 1296
GlyphClass: 2
Flags: W
HStem: -20 160<511.6 861.775> 960 160<668.225 1018.4>
VStem: 209 175<271.215 652.069> 1146 175<447.931 828.785>
LayerCount: 2
Fore
SplineSet
654 -20 m 0,0,1
 431 -20 431 -20 309 135 c 0,2,3
 209 260 209 260 209 444 c 0,4,5
 209 495 209 495 217 550 c 0,6,7
 253 815 253 815 451 978 c 0,8,9
 624 1120 624 1120 876 1120 c 0,10,11
 1099 1120 1099 1120 1221 965 c 0,12,13
 1321 840 1321 840 1321 656 c 0,14,15
 1321 605 1321 605 1313 550 c 0,16,17
 1277 285 1277 285 1079 122 c 0,18,19
 906 -20 906 -20 654 -20 c 0,0,1
678 140 m 128,-1,21
 836 140 836 140 965 254 c 128,-1,22
 1094 368 1094 368 1133 550 c 0,23,24
 1146 609 1146 609 1146 661 c 0,25,26
 1146 769 1146 769 1091 846 c 0,27,28
 1010 960 1010 960 852 960 c 128,-1,29
 694 960 694 960 565 846 c 128,-1,30
 436 732 436 732 397 550 c 0,31,32
 384 491 384 491 384 439 c 0,33,34
 384 331 384 331 439 254 c 0,35,20
 520 140 520 140 678 140 c 128,-1,21
EndSplineSet
Validated: 1
EndChar

StartChar: p
Encoding: 112 112 82
Width: 1228
GlyphClass: 2
Flags: W
HStem: -20 160<590 789.844> 960 160<633.784 956.825>
VStem: 113 180<-410 -230> 1077 175<446.063 827.41>
DStem2: 113 -410 293 -410 0.207912 0.978148<37.4241 1390.83>
LayerCount: 2
Fore
SplineSet
556 -20 m 1,0,-1
 590 140 l 1,1,2
 763 140 763 140 894 254 c 0,3,4
 1029 371 1029 371 1065 550 c 0,5,6
 1077 609 1077 609 1077 660 c 0,7,8
 1077 762 1077 762 1022 846 c 0,9,10
 948 960 948 960 807 960 c 0,11,12
 584 960 584 960 546 780 c 2,13,-1
 293 -410 l 1,14,-1
 113 -410 l 1,15,-1
 366 780 l 2,16,17
 438 1120 438 1120 817 1120 c 0,18,19
 1027 1120 1027 1120 1149 967 c 0,20,21
 1252 838 1252 838 1252 649 c 0,22,23
 1252 602 1252 602 1245 550 c 0,24,25
 1209 284 1209 284 1002 118 c 0,26,27
 829 -20 829 -20 556 -20 c 1,0,-1
EndSplineSet
Validated: 1
EndChar

StartChar: q
Encoding: 113 113 83
Width: 1230
GlyphClass: 2
Flags: W
HStem: -430 160<1032.01 1117> -20 160<517.381 665> 960 160<674.875 1000.71>
VStem: 210 175<271.227 646.234> 822 180<-244.626 75.8828> 1022 180<610.164 936.903>
DStem2: 756.866 -430 936.794 -430 0.207912 0.978148<325.613 1299.39>
LayerCount: 2
Fore
SplineSet
665 -20 m 1,0,1
 430 -20 430 -20 313 133 c 0,2,3
 210 269 210 269 210 451 c 0,4,5
 210 498 210 498 217 550 c 0,6,7
 253 816 253 816 460 982 c 0,8,9
 632 1120 632 1120 917 1120 c 128,-1,10
 1202 1120 1202 1120 1202 869 c 0,11,12
 1202 810 1202 810 1187 740 c 2,13,-1
 1008 -95 l 2,14,15
 1002 -125 1002 -125 1002 -150 c 0,16,17
 1002 -270 1002 -270 1151 -270 c 1,18,-1
 1117 -430 l 1,19,20
 822 -430 822 -430 822 -178 c 0,21,22
 822 -123 822 -123 837 -53 c 2,23,-1
 1015 780 l 2,24,25
 1022 813 1022 813 1022 843 c 0,26,27
 1022 960 1022 960 893 960 c 0,28,29
 699 960 699 960 568 846 c 0,30,31
 438 733 438 733 398 550 c 0,32,33
 385 491 385 491 385 440 c 0,34,35
 385 331 385 331 441 254 c 0,36,37
 523 140 523 140 699 140 c 1,38,-1
 665 -20 l 1,0,1
EndSplineSet
Validated: 1
EndChar

StartChar: r
Encoding: 114 114 84
Width: 740
GlyphClass: 2
Flags: W
HStem: 0 21G<200 384.263> 940 160<612.284 930>
VStem: 200 180<0 180>
DStem2: 200 0 380 0 0.207912 0.978148<37.4241 967.25>
LayerCount: 2
Fore
SplineSet
200 0 m 1,0,-1
 362 760 l 2,1,2
 434 1100 434 1100 774 1100 c 2,3,-1
 964 1100 l 25,4,-1
 930 940 l 25,5,-1
 740 940 l 18,6,7
 580 940 580 940 542 760 c 2,8,-1
 380 0 l 1,9,-1
 200 0 l 1,0,-1
EndSplineSet
Validated: 1
EndChar

StartChar: s
Encoding: 115 115 85
Width: 967
GlyphClass: 2
Flags: W
HStem: -20 160<319.847 646.485> 960 160<569.286 807.86>
VStem: 358 176<745.127 923.292> 762 182<247.17 465.847>
DStem2: 650 699 577 536 0.92258 -0.385806<-135.86 205.608>
LayerCount: 2
Fore
SplineSet
447 -20 m 0,0,1
 245 -20 245 -20 105 119 c 1,2,-1
 253 244 l 1,3,4
 341 140 341 140 472 140 c 0,5,6
 580 140 580 140 657 191 c 0,7,8
 739 246 739 246 757 330 c 0,9,10
 762 351 762 351 762 370 c 0,11,12
 762 460 762 460 660 502 c 2,13,-1
 577 536 l 2,14,15
 358 625 358 625 358 804 c 0,16,17
 358 824 358 824 361 845 c 0,18,19
 378 980 378 980 491 1059 c 0,20,21
 579 1120 579 1120 712 1120 c 0,22,23
 879 1120 879 1120 992 995 c 1,24,-1
 845 870 l 1,25,26
 791 960 791 960 696 960 c 0,27,28
 639 960 639 960 598 937 c 0,29,30
 544 906 544 906 535 848 c 0,31,32
 534 839 534 839 534 830 c 0,33,34
 534 748 534 748 650 699 c 2,35,-1
 760 653 l 2,36,37
 944 576 944 576 944 395 c 0,38,39
 944 373 944 373 941 350 c 0,40,41
 923 191 923 191 798 90 c 0,42,43
 658 -20 658 -20 447 -20 c 0,0,1
EndSplineSet
Validated: 1
EndChar

StartChar: t
Encoding: 116 116 86
Width: 740
GlyphClass: 2
Flags: W
HStem: 0 21G<200 384.263> 940 160<612.284 930> 1490 20G<516.771 701>
VStem: 200 180<0 180> 447 180<1160 1340> 521 180<1330 1510>
DStem2: 200 0 380 0 0.207912 0.978148<37.4241 967.25 1223.43 1543.74>
LayerCount: 2
Fore
SplineSet
200 0 m 1,0,-1
 362 760 l 2,1,2
 434 1100 434 1100 774 1100 c 2,3,-1
 964 1100 l 25,4,-1
 930 940 l 25,5,-1
 740 940 l 18,6,7
 580 940 580 940 542 760 c 2,8,-1
 380 0 l 1,9,-1
 200 0 l 1,0,-1
521 1510 m 1,10,-1
 701 1510 l 1,11,-1
 627 1160 l 1,12,-1
 447 1160 l 1,13,-1
 521 1510 l 1,10,-1
EndSplineSet
Validated: 1
EndChar

StartChar: u
Encoding: 117 117 87
Width: 1248
GlyphClass: 2
Flags: W
HStem: -20 160<532.497 858.469> 1080 20G<532.5 804 1097.74 1282>
VStem: 205 179<275.851 655.39> 583 221<879 1100> 1102 180<920 1100>
DStem2: 863.731 -20 1043.73 -20 0.207912 0.978148<202.977 1145.06>
LayerCount: 2
Fore
SplineSet
1282 1100 m 1,0,-1
 1116 320 l 2,1,2
 1044 -20 1044 -20 699 -20 c 24,3,4
 449 -20 449 -20 322 120 c 0,5,6
 205 248 205 248 205 429 c 0,7,8
 205 487 205 487 217 550 c 0,9,10
 253 742 253 742 384 901 c 0,11,12
 482 1021 482 1021 583 1100 c 1,13,-1
 804 1100 l 1,14,15
 635 974 635 974 542 856 c 0,16,17
 433 717 433 717 397 550 c 0,18,19
 384 490 384 490 384 438 c 0,20,21
 384 326 384 326 445 255 c 0,22,23
 544 140 544 140 718 140 c 24,24,25
 898 140 898 140 936 320 c 2,26,-1
 1102 1100 l 1,27,-1
 1282 1100 l 1,0,-1
EndSplineSet
Validated: 1
EndChar

StartChar: v
Encoding: 118 118 88
Width: 1218
GlyphClass: 2
Flags: W
HStem: 0 21G<377 951> 1080 20G<365.5 655 1031 1264>
VStem: 241 183<403.875 838.508> 1107 182<639.499 1052.13>
LayerCount: 2
Fore
SplineSet
513 0 m 1,0,1
 241 294 241 294 241 593 c 0,2,3
 241 664 241 664 256 735 c 0,4,5
 299 934 299 934 432 1100 c 1,6,-1
 655 1100 l 1,7,8
 484 961 484 961 436 728 c 0,9,10
 425 675 425 675 424 620 c 0,11,12
 424 391 424 391 625 143 c 1,13,14
 1036 467 1036 467 1092 728 c 0,15,16
 1107 800 1107 800 1107 863 c 0,17,18
 1107 1004 1107 1004 1031 1100 c 1,19,-1
 1239 1100 l 1,20,21
 1289 991 1289 991 1289 870 c 0,22,23
 1289 804 1289 804 1274 735 c 0,24,25
 1197 365 1197 365 705 0 c 1,26,-1
 513 0 l 1,0,1
EndSplineSet
Validated: 1
EndChar

StartChar: w
Encoding: 119 119 89
Width: 1816
GlyphClass: 2
Flags: W
HStem: -20 160<528.587 818.625 1148 1359.76> 1080 20G<532.5 804 1047.74 1232 1480 1728.5>
VStem: 205 179<275.851 655.39> 583 221<879 1100> 1052 180<920 1100> 1480 211<889 1100> 1668 174<454.253 890.219>
DStem2: 813.731 -20 993.731 -20 0.207912 0.978148<195.25 1145.06>
LayerCount: 2
Fore
SplineSet
1114 -20 m 9,0,-1
 1148 140 l 17,1,2
 1332 140 1332 140 1479 255 c 0,3,4
 1612 359 1612 359 1653 550 c 0,5,6
 1668 619 1668 619 1668 683 c 0,7,8
 1668 775 1668 775 1638 856 c 0,9,10
 1595 975 1595 975 1480 1100 c 1,11,-1
 1691 1100 l 1,12,13
 1766 1020 1766 1020 1806 901 c 0,14,15
 1842 793 1842 793 1842 674 c 0,16,17
 1842 614 1842 614 1833 550 c 0,18,19
 1793 284 1793 284 1576 120 c 0,20,21
 1389 -20 1389 -20 1114 -20 c 9,0,-1
1232 1100 m 1,22,-1
 1066 320 l 2,23,24
 994 -20 994 -20 674 -20 c 24,25,26
 449 -20 449 -20 322 120 c 0,27,28
 205 248 205 248 205 429 c 0,29,30
 205 487 205 487 217 550 c 0,31,32
 253 742 253 742 384 901 c 0,33,34
 482 1021 482 1021 583 1100 c 1,35,-1
 804 1100 l 1,36,37
 635 974 635 974 542 856 c 0,38,39
 433 717 433 717 397 550 c 0,40,41
 384 490 384 490 384 438 c 0,42,43
 384 326 384 326 445 255 c 0,44,45
 544 140 544 140 693 140 c 24,46,47
 848 140 848 140 886 320 c 2,48,-1
 1052 1100 l 1,49,-1
 1232 1100 l 1,22,-1
EndSplineSet
Validated: 1
EndChar

StartChar: x
Encoding: 120 120 90
Width: 1099
GlyphClass: 2
Flags: W
HStem: 0 21G<120 338 798 986.5> 1084 20G<344.5 519 996 1214>
VStem: 120 185<0 185> 335 168<766.517 1097.41> 811 183<2.10803 297.884>
LayerCount: 2
Fore
SplineSet
1029 1104 m 1,0,-1
 1214 1104 l 1,1,2
 1142 766 1142 766 939 686 c 1,3,-1
 756 686 l 1,4,5
 963 793 963 793 1029 1104 c 1,0,-1
305 0 m 1,6,-1
 120 0 l 1,7,8
 187 317 187 317 374 398 c 1,9,-1
 557 398 l 1,10,11
 371 309 371 309 305 0 c 1,6,-1
798 0 m 1,12,13
 811 63 811 63 811 120 c 0,14,15
 811 336 811 336 599 468 c 0,16,17
 335 633 335 633 335 931 c 0,18,19
 335 1011 335 1011 354 1100 c 1,20,-1
 519 1100 l 1,21,22
 503 1023 503 1023 503 957 c 0,23,24
 503 740 503 740 676 632 c 0,25,26
 994 434 994 434 994 139 c 0,27,28
 994 72 994 72 979 0 c 1,29,-1
 798 0 l 1,12,13
EndSplineSet
Validated: 1
EndChar

StartChar: y
Encoding: 121 121 91
Width: 1248
VWidth: 1638
GlyphClass: 2
Flags: W
HStem: -430 160<461 654.063> -20 160<535.199 684> 1080 20G<532.5 804 1097.76 1282>
VStem: 205 179<275.851 655.39> 583 221<879 1100> 1102 180<920 1100>
DStem2: 777.094 -430 957.094 -430 0.207912 0.978148<330.908 1564.12>
LayerCount: 2
Fore
SplineSet
684 -20 m 1,0,1
 449 -20 449 -20 322 120 c 0,2,3
 205 248 205 248 205 429 c 0,4,5
 205 487 205 487 217 550 c 0,6,7
 253 742 253 742 384 901 c 0,8,9
 482 1021 482 1021 583 1100 c 1,10,-1
 804 1100 l 1,11,12
 635 974 635 974 542 856 c 0,13,14
 433 717 433 717 397 550 c 0,15,16
 384 490 384 490 384 438 c 0,17,18
 384 326 384 326 445 255 c 0,19,20
 544 140 544 140 718 140 c 1,21,-1
 684 -20 l 1,0,1
461 -270 m 1,22,23
 612 -270 612 -270 724 -182 c 0,24,25
 850 -83 850 -83 894 120 c 2,26,-1
 1102 1100 l 17,27,-1
 1282 1100 l 9,28,-1
 1074 120 l 2,29,30
 1017 -149 1017 -149 836 -289 c 0,31,32
 654 -430 654 -430 427 -430 c 9,33,-1
 461 -270 l 1,22,23
EndSplineSet
Validated: 1
EndChar

StartChar: z
Encoding: 122 122 92
Width: 1059
GlyphClass: 2
Flags: W
HStem: 0 160<463 959> 940 160<379 959.991>
VStem: 100 185<0 185> 960 202<839.02 1038.5>
LayerCount: 2
Fore
SplineSet
100 0 m 1,0,1
 191 425 191 425 609 632 c 0,2,3
 928 790 928 790 959 916 c 0,4,5
 960 920 960 920 960 922 c 0,6,7
 960 940 960 940 923 940 c 2,8,-1
 345 940 l 1,9,-1
 379 1100 l 1,10,-1
 987 1100 l 2,11,12
 1162 1100 1162 1100 1162 977 c 0,13,14
 1162 955 1162 955 1157 930 c 0,15,16
 1106 688 1106 688 642 458 c 0,17,18
 353 314 353 314 285 0 c 1,19,-1
 100 0 l 1,0,1
959 0 m 1,20,-1
 429 0 l 1,21,-1
 463 160 l 1,22,-1
 993 160 l 1,23,-1
 959 0 l 1,20,-1
EndSplineSet
Validated: 1
EndChar

StartChar: braceleft
Encoding: 123 123 93
Width: 848
GlyphClass: 2
Flags: W
HStem: -250 160<556.438 745> 677 160<228 430> 1600 160<916.186 1138>
VStem: 314 174<-25.8093 329.406>
DStem2: 233.311 -250 408.287 -250 0.207912 0.978148<376.178 947.637 1111.21 1812.76>
LayerCount: 2
Fore
SplineSet
228 837 m 1,0,-1
 464 837 l 1,1,-1
 560 1291 l 2,2,3
 659 1760 659 1760 1172 1760 c 1,4,5
 1138 1600 l 1,6,7
 800 1600 800 1600 738 1305 c 2,8,-1
 505 205 l 2,9,10
 488 125 488 125 488 79 c 0,11,12
 488 -90 488 -90 779 -90 c 1,13,-1
 745 -250 l 1,14,15
 314 -250 314 -250 314 79 c 0,16,17
 314 129 314 129 333 219 c 2,18,-1
 430 677 l 1,19,-1
 194 677 l 1,20,-1
 228 837 l 1,0,-1
EndSplineSet
Validated: 1
EndChar

StartChar: bar
Encoding: 124 124 94
Width: 660
GlyphClass: 2
Flags: W
VStem: 212 160<-180 -20> 609 160<1530 1690>
DStem2: 212 -180 372 -180 0.207912 0.978148<33.2659 1911.68>
LayerCount: 2
Fore
SplineSet
212 -180 m 1,0,-1
 609 1690 l 1,1,-1
 769 1690 l 1,2,-1
 372 -180 l 1,3,-1
 212 -180 l 1,0,-1
EndSplineSet
Validated: 1
EndChar

StartChar: braceright
Encoding: 125 125 95
Width: 848
GlyphClass: 2
Flags: W
HStem: -250 160<31 252.814> 673 160<739 941> 1600 160<424 612.562>
VStem: 681 174<1180.59 1535.81>
DStem2: 334.287 -250 509.311 -250 0.207912 0.978148<278.358 979.906 1143.48 1714.94>
LayerCount: 2
Fore
SplineSet
941 673 m 1,0,-1
 705 673 l 1,1,-1
 609 219 l 2,2,3
 510 -250 510 -250 -3 -250 c 1,4,5
 31 -90 l 1,6,7
 369 -90 369 -90 431 205 c 2,8,-1
 664 1305 l 2,9,10
 681 1385 681 1385 681 1431 c 0,11,12
 681 1600 681 1600 390 1600 c 1,13,-1
 424 1760 l 1,14,15
 855 1760 855 1760 855 1431 c 0,16,17
 855 1381 855 1381 836 1291 c 2,18,-1
 739 833 l 1,19,-1
 975 833 l 1,20,-1
 941 673 l 1,0,-1
EndSplineSet
Validated: 1
EndChar

StartChar: asciitilde
Encoding: 126 126 96
Width: 1303
GlyphClass: 2
Flags: W
HStem: 546 189<913.483 1095.3> 781 189<526.473 707.729>
DStem2: 820 888 702 745 0.649721 -0.760173<-43.1596 229.11>
LayerCount: 2
Fore
SplineSet
292 670 m 1,0,1
 460 970 460 970 645 970 c 0,2,3
 750 970 750 970 820 888 c 2,4,-1
 920 771 l 2,5,6
 951 735 951 735 995 735 c 0,7,8
 1102 735 1102 735 1215 929 c 1,9,-1
 1333 846 l 1,10,11
 1165 546 1165 546 980 546 c 0,12,13
 872 546 872 546 802 628 c 2,14,-1
 702 745 l 2,15,16
 671 781 671 781 627 781 c 0,17,18
 523 781 523 781 410 587 c 1,19,-1
 292 670 l 1,0,1
EndSplineSet
Validated: 1
EndChar

StartChar: exclamdown
Encoding: 161 161 98
Width: 692
GlyphClass: 2
Flags: W
HStem: 855 265<472.814 643.186>
VStem: 163 192<-410 -218> 399 192<506 698> 429 258<899.063 1075.94>
DStem2: 163 -410 355 -410 0.207912 0.978148<39.919 1132.85>
LayerCount: 2
Fore
SplineSet
584 1120 m 0,0,1
 636 1120 636 1120 664 1084 c 0,2,3
 687 1055 687 1055 687 1012 c 0,4,5
 687 995 687 995 685 983 c 0,6,7
 677 926 677 926 631 888 c 0,8,9
 591 855 591 855 532 855 c 0,10,11
 480 855 480 855 452 891 c 0,12,13
 429 920 429 920 429 963 c 0,14,15
 429 980 429 980 431 992 c 0,16,17
 439 1049 439 1049 485 1087 c 0,18,19
 525 1120 525 1120 584 1120 c 0,0,1
591 698 m 1,20,-1
 355 -410 l 1,21,-1
 163 -410 l 1,22,-1
 399 698 l 1,23,-1
 591 698 l 1,20,-1
EndSplineSet
Validated: 1
EndChar

StartChar: cent
Encoding: 162 162 99
Width: 1123
GlyphClass: 2
Flags: W
HStem: -14 161<500.846 569 702 872.82> 959 160<910 1019.33>
VStem: 209 175<271.215 652.069> 534 100<-180 -80> 844 100<1180 1280>
DStem2: 534 -180 634 -180 0.207912 0.978148<20.7912 169.649 348.915 1158.35 1348.79 1492.55>
LayerCount: 2
Fore
SplineSet
569 -14 m 1,0,1
 406 11 406 11 309 135 c 0,2,3
 209 260 209 260 209 444 c 0,4,5
 209 495 209 495 217 550 c 0,6,7
 253 815 253 815 451 978 c 0,8,9
 601 1101 601 1101 809 1117 c 1,10,-1
 844 1280 l 1,11,-1
 944 1280 l 1,12,-1
 910 1119 l 1,13,14
 1109 1108 1109 1108 1221 965 c 1,15,-1
 1091 846 l 1,16,17
 1016 951 1016 951 876 959 c 1,18,-1
 702 141 l 1,19,20
 846 149 846 149 965 254 c 1,21,-1
 1079 122 l 1,22,23
 911 -16 911 -16 668 -20 c 1,24,-1
 634 -180 l 1,25,-1
 534 -180 l 1,26,-1
 569 -14 l 1,0,1
603 147 m 1,27,-1
 775 953 l 1,28,29
 662 932 662 932 565 846 c 0,30,31
 436 732 436 732 397 550 c 0,32,33
 384 491 384 491 384 439 c 0,34,35
 384 331 384 331 439 254 c 0,36,37
 499 168 499 168 603 147 c 1,27,-1
EndSplineSet
Validated: 1
EndChar

StartChar: sterling
Encoding: 163 163 100
Width: 1182
GlyphClass: 2
Flags: W
HStem: 0 180<438 1032> 655 104<271 339 561 882> 1350 180<778.349 1062.08>
DStem2: 200 0 399.74 0 0.207912 0.978148<225.55 669.586 817.47 1317.61>
LayerCount: 2
Fore
SplineSet
200 0 m 1,0,-1
 339 655 l 1,1,-1
 249 655 l 1,2,-1
 271 759 l 1,3,-1
 361 759 l 1,4,-1
 405 964 l 2,5,6
 470 1270 470 1270 580 1380 c 0,7,8
 729 1530 729 1530 942 1530 c 128,-1,9
 1155 1530 1155 1530 1283 1374 c 1,10,-1
 1128 1228 l 1,11,12
 1060 1350 1060 1350 934 1350 c 0,13,14
 794 1350 794 1350 709 1241 c 0,15,16
 647 1161 647 1161 604 962 c 2,17,-1
 561 759 l 1,18,-1
 904 759 l 1,19,-1
 882 655 l 1,20,-1
 539 655 l 1,21,-1
 438 180 l 1,22,-1
 1070 180 l 1,23,-1
 1032 0 l 1,24,-1
 200 0 l 1,0,-1
EndSplineSet
Validated: 1
EndChar

StartChar: currency
Encoding: 164 164 101
Width: 1617
GlyphClass: 2
Flags: W
HStem: 191 160<733.503 1083.81> 1171 160<887.734 1239.86>
VStem: 430 175<482.215 863.069> 1367 175<658.931 1039.79>
DStem2: 220 248 334 102 0.770123 0.637896<0 312.564 1521.98 1802.17> 576 1410 424 1287 0.614713 -0.788751<3.57992 239.57 1280.66 1522.05>
LayerCount: 2
Fore
SplineSet
899 351 m 128,-1,1
 1057 351 1057 351 1186 465 c 128,-1,2
 1315 579 1315 579 1354 761 c 0,3,4
 1367 820 1367 820 1367 872 c 0,5,6
 1367 980 1367 980 1312 1057 c 0,7,8
 1231 1171 1231 1171 1073 1171 c 128,-1,9
 915 1171 915 1171 786 1057 c 128,-1,10
 657 943 657 943 618 761 c 0,11,12
 605 702 605 702 605 650 c 0,13,14
 605 542 605 542 660 465 c 0,15,0
 741 351 741 351 899 351 c 128,-1,1
1214 274 m 1,16,17
 1068 191 1068 191 875 191 c 0,18,19
 689 191 689 191 573 299 c 1,20,-1
 334 102 l 1,21,-1
 220 248 l 1,22,-1
 467 452 l 1,23,24
 430 542 430 542 430 655 c 0,25,26
 430 706 430 706 438 761 c 0,27,28
 464 953 464 953 576 1092 c 1,29,-1
 424 1287 l 1,30,-1
 576 1410 l 1,31,-1
 721 1225 l 1,32,33
 880 1331 880 1331 1097 1331 c 0,34,35
 1280 1331 1280 1331 1395 1227 c 1,36,-1
 1610 1403 l 1,37,-1
 1726 1255 l 1,38,-1
 1503 1073 l 1,39,40
 1541 982 1541 982 1542 867 c 0,41,42
 1542 816 1542 816 1534 761 c 0,43,44
 1505 544 1505 544 1366 395 c 1,45,-1
 1511 209 l 1,46,-1
 1360 86 l 1,47,-1
 1214 274 l 1,16,17
EndSplineSet
Validated: 1
EndChar

StartChar: yen
Encoding: 165 165 102
Width: 1312
GlyphClass: 2
Flags: W
HStem: 0 21G<559 763.259> 432 104<354 651 873 1164> 646 104<399 593 881 1209> 1490 20G<406 601 1286 1533>
VStem: 391 187<1059.53 1506.13> 421 180<1330 1510> 559 200<0 200> 673 200<536 645.062> 1333 200<1310 1510>
DStem2: 559 0 759 0 0.207912 0.978148<41.5823 441.688>
LayerCount: 2
Fore
SplineSet
559 0 m 1,0,-1
 651 432 l 1,1,-1
 332 432 l 1,2,-1
 354 536 l 1,3,-1
 673 536 l 1,4,-1
 673 537 l 2,5,6
 678 561 678 561 678 584 c 0,7,8
 678 616 678 616 668 646 c 1,9,-1
 377 646 l 1,10,-1
 399 750 l 1,11,-1
 593 750 l 1,12,13
 391 941 391 941 391 1252 c 0,14,15
 391 1372 391 1372 421 1510 c 1,16,-1
 601 1510 l 1,17,18
 578 1400 578 1400 578 1303 c 0,19,20
 578 1008 578 1008 789 823 c 0,21,22
 827 790 827 790 849 750 c 1,23,-1
 1231 750 l 1,24,-1
 1209 646 l 1,25,-1
 881 646 l 1,26,27
 882 632 882 632 882 618 c 0,28,29
 882 580 882 580 873 537 c 2,30,-1
 873 536 l 1,31,-1
 1186 536 l 1,32,-1
 1164 432 l 1,33,-1
 851 432 l 1,34,-1
 759 0 l 1,35,-1
 559 0 l 1,0,-1
1333 1510 m 1,36,-1
 1533 1510 l 1,37,38
 1429 1022 1429 1022 1075 871 c 1,39,-1
 832 871 l 1,40,41
 1239 1066 1239 1066 1333 1510 c 1,36,-1
EndSplineSet
Validated: 1
EndChar

StartChar: brokenbar
Encoding: 166 166 103
Width: 660
GlyphClass: 2
Flags: W
VStem: 212 160<-180 -20> 388 160<487 647> 433 160<862 1022> 609 160<1530 1690>
DStem2: 212 -180 372 -180 0.207912 0.978148<33.2659 845.521 1098.44 1911.68>
LayerCount: 2
Fore
SplineSet
212 -180 m 1,0,-1
 388 647 l 1,1,-1
 548 647 l 1,2,-1
 372 -180 l 1,3,-1
 212 -180 l 1,0,-1
609 1690 m 1,4,-1
 769 1690 l 1,5,-1
 593 862 l 1,6,-1
 433 862 l 1,7,-1
 609 1690 l 1,4,-1
EndSplineSet
Validated: 1
EndChar

StartChar: section
Encoding: 167 167 104
Width: 1085
GlyphClass: 2
Flags: W
HStem: -20 160<442.14 680.714> 1370 160<724.286 962.86>
VStem: 306 182<634.153 853.288> 513 176<1155.41 1331.06> 716 176<178.944 354.588> 917 182<658.028 875.847>
DStem2: 590 598 490 447 0.92258 -0.385806<-120.378 221.256> 805 1109 732 946 0.92258 -0.385806<-136.026 205.608>
LayerCount: 2
Fore
SplineSet
538 -20 m 0,0,1
 371 -20 371 -20 258 105 c 1,2,-1
 405 230 l 1,3,4
 459 140 459 140 554 140 c 0,5,6
 611 140 611 140 652 163 c 0,7,8
 706 194 706 194 715 252 c 0,9,10
 716 261 716 261 716 270 c 0,11,12
 716 352 716 352 600 401 c 2,13,-1
 490 447 l 2,14,15
 306 524 306 524 306 705 c 0,16,17
 306 727 306 727 309 750 c 0,18,19
 330 911 330 911 452 1010 c 1,20,-1
 591 907 l 1,21,22
 511 851 511 851 493 770 c 0,23,24
 488 749 488 749 488 730 c 0,25,26
 488 640 488 640 590 598 c 2,27,-1
 673 564 l 2,28,29
 892 474 892 474 892 296 c 0,30,31
 892 276 892 276 889 255 c 0,32,33
 869 118 869 118 759 41 c 0,34,35
 671 -20 671 -20 538 -20 c 0,0,1
867 1530 m 0,36,37
 1034 1530 1034 1530 1147 1405 c 1,38,-1
 1000 1280 l 1,39,40
 946 1370 946 1370 851 1370 c 0,41,42
 794 1370 794 1370 753 1347 c 0,43,44
 699 1316 699 1316 690 1258 c 0,45,46
 689 1249 689 1249 689 1240 c 0,47,48
 689 1158 689 1158 805 1109 c 2,49,-1
 915 1063 l 2,50,51
 1099 986 1099 986 1099 805 c 0,52,53
 1099 783 1099 783 1096 760 c 0,54,55
 1076 612 1076 612 946 505 c 1,56,-1
 812 601 l 1,57,58
 895 661 895 661 912 740 c 0,59,60
 917 761 917 761 917 780 c 0,61,62
 917 870 917 870 815 912 c 2,63,-1
 732 946 l 2,64,65
 513 1036 513 1036 513 1214 c 0,66,67
 513 1234 513 1234 516 1255 c 0,68,69
 536 1392 536 1392 646 1469 c 0,70,71
 734 1530 734 1530 867 1530 c 0,36,37
EndSplineSet
Validated: 1
EndChar

StartChar: dieresis
Encoding: 168 168 105
Width: 616
GlyphClass: 2
Flags: W
HStem: 1257 223<371.067 526.933 671.067 826.933>
VStem: 341 217<1288.75 1449.25> 641 217<1288.75 1449.25>
LayerCount: 2
Fore
SplineSet
771 1480 m 0,0,1
 815 1480 815 1480 838 1450 c 0,2,3
 857 1426 857 1426 858 1389 c 0,4,5
 858 1375 858 1375 856 1365 c 0,6,7
 849 1317 849 1317 810 1285 c 0,8,9
 777 1257 777 1257 727 1257 c 0,10,11
 683 1257 683 1257 660 1288 c 0,12,13
 641 1312 641 1312 641 1348 c 0,14,15
 641 1362 641 1362 642 1372 c 0,16,17
 649 1420 649 1420 688 1452 c 0,18,19
 722 1480 722 1480 771 1480 c 0,0,1
471 1480 m 0,20,21
 515 1480 515 1480 538 1450 c 0,22,23
 557 1426 557 1426 558 1389 c 0,24,25
 558 1375 558 1375 556 1365 c 0,26,27
 549 1317 549 1317 510 1285 c 0,28,29
 477 1257 477 1257 427 1257 c 0,30,31
 383 1257 383 1257 360 1288 c 0,32,33
 341 1312 341 1312 341 1348 c 0,34,35
 341 1362 341 1362 342 1372 c 0,36,37
 349 1420 349 1420 388 1452 c 0,38,39
 422 1480 422 1480 471 1480 c 0,20,21
EndSplineSet
Validated: 1
EndChar

StartChar: copyright
Encoding: 169 169 106
Width: 1396
GlyphClass: 2
Flags: W
HStem: 191 74<585.408 978.873> 334 152<663.023 958.501> 1021 153<756.758 1052.1> 1257 74<740.768 1134.47>
VStem: 304 72<485.34 878.297> 437 159<551.588 855.396> 1344 72<643.703 1036.66>
LayerCount: 2
Fore
SplineSet
763 265 m 0,0,1
 982 265 982 265 1133 389 c 0,2,3
 1305 531 1305 531 1337 761 c 0,4,5
 1344 809 1344 809 1344 853 c 0,6,7
 1344 1013 1344 1013 1257 1122 c 0,8,9
 1151 1257 1151 1257 956 1257 c 0,10,11
 737 1257 737 1257 587 1133 c 0,12,13
 415 991 415 991 383 761 c 0,14,15
 376 713 376 713 376 669 c 0,16,17
 376 509 376 509 463 400 c 0,18,19
 569 265 569 265 763 265 c 0,0,1
749 191 m 0,20,21
 526 191 526 191 404 346 c 0,22,23
 304 471 304 471 304 655 c 0,24,25
 304 706 304 706 312 761 c 0,26,27
 348 1026 348 1026 546 1189 c 0,28,29
 719 1331 719 1331 971 1331 c 0,30,31
 1194 1331 1194 1331 1316 1176 c 0,32,33
 1416 1051 1416 1051 1416 867 c 0,34,35
 1416 816 1416 816 1408 761 c 0,36,37
 1372 496 1372 496 1174 333 c 0,38,39
 1001 191 1001 191 749 191 c 0,20,21
1131 485 m 1,40,41
 978 334 978 334 789 334 c 0,42,43
 598 334 598 334 505 460 c 0,44,45
 437 552 437 552 437 684 c 0,46,47
 437 718 437 718 441 754 c 0,48,49
 462 933 462 933 610 1060 c 0,50,51
 743 1174 743 1174 939 1174 c 0,52,53
 1123 1174 1123 1174 1242 1027 c 1,54,-1
 1103 924 l 1,55,56
 1031 1021 1031 1021 919 1021 c 0,57,58
 801 1021 801 1021 716 948 c 0,59,60
 628 872 628 872 603 754 c 0,61,62
 596 719 596 719 596 687 c 0,63,64
 596 615 596 615 634 560 c 0,65,66
 686 486 686 486 798 486 c 0,67,68
 925 486 925 486 1030 583 c 1,69,-1
 1131 485 l 1,40,41
EndSplineSet
Validated: 1
EndChar

StartChar: ordfeminine
Encoding: 170 170 107
Width: 644
GlyphClass: 2
Flags: W
HStem: 843 153<262 773> 1068 143<515.562 627> 1537 143<570.255 755.758>
VStem: 339 151<1238.39 1460.75> 668 153<1068 1221> 758 157<1300.31 1609.5>
DStem2: 620.175 843 773.175 843 0.207912 0.978148<261.837 670.075>
LayerCount: 2
Fore
SplineSet
821 1068 m 1,0,-1
 668 1068 l 1,1,-1
 756 1481 l 2,2,3
 758 1491 758 1491 758 1499 c 0,4,5
 758 1537 758 1537 712 1537 c 8,6,7
 624 1537 624 1537 572 1498 c 0,8,9
 511 1451 511 1451 495 1374 c 0,10,11
 490 1352 490 1352 490 1332 c 0,12,13
 490 1285 490 1285 517 1253 c 0,14,15
 552 1211 552 1211 657 1211 c 1,16,-1
 627 1068 l 1,17,18
 466 1068 466 1068 399 1150 c 0,19,20
 339 1223 339 1223 339 1327 c 0,21,22
 339 1350 339 1350 342 1374 c 0,23,24
 360 1515 360 1515 479 1606 c 0,25,26
 577 1680 577 1680 725 1680 c 0,27,28
 915 1680 915 1680 915 1539 c 0,29,30
 915 1513 915 1513 909 1481 c 2,31,-1
 821 1068 l 1,0,-1
262 996 m 1,32,-1
 806 996 l 1,33,-1
 773 843 l 1,34,-1
 229 843 l 1,35,-1
 262 996 l 1,32,-1
EndSplineSet
Validated: 1
EndChar

StartChar: guillemotleft
Encoding: 171 171 108
Width: 1305
GlyphClass: 2
Flags: W
DStem2: 531 726 309 747 0.531098 -0.847311<0 425.907> 309 747 531 726 0.724645 0.689123<146.4 703.793> 986 726 764 747 0.531098 -0.847311<0 425.907> 764 747 986 726 0.724645 0.689123<146.4 703.793>
LayerCount: 2
Fore
SplineSet
819 1232 m 1,0,-1
 936 1112 l 1,1,-1
 531 726 l 1,2,-1
 757 365 l 1,3,-1
 613 262 l 1,4,-1
 309 747 l 1,5,-1
 819 1232 l 1,0,-1
1274 1232 m 1,6,-1
 1391 1112 l 1,7,-1
 986 726 l 1,8,-1
 1212 365 l 1,9,-1
 1068 262 l 1,10,-1
 764 747 l 1,11,-1
 1274 1232 l 1,6,-1
EndSplineSet
Validated: 1
EndChar

StartChar: logicalnot
Encoding: 172 172 109
Width: 1133
GlyphClass: 2
Flags: W
HStem: 655 180<327 942>
VStem: 894 180<426 606>
LayerCount: 2
Fore
SplineSet
289 655 m 1,0,-1
 327 835 l 1,1,-1
 1160 835 l 1,2,-1
 1074 426 l 1,3,-1
 894 426 l 1,4,-1
 942 655 l 1,5,-1
 289 655 l 1,0,-1
EndSplineSet
Validated: 1
EndChar

StartChar: registered
Encoding: 174 174 110
Width: 1396
GlyphClass: 2
Flags: W
HStem: 191 74<584.391 981.06> 1038 152<779.188 1010.79> 1257 74<740.768 1134.47>
VStem: 304 72<485.75 876.979> 1041 164<778.69 992.965> 1344 72<642.384 1036.25>
DStem2: 445.89 191 607.368 191 0.207912 0.978148<188.111 903.257>
LayerCount: 2
Fore
SplineSet
749 191 m 0,0,1
 526 191 526 191 404 346 c 0,2,3
 304 471 304 471 304 655 c 0,4,5
 304 706 304 706 312 761 c 0,6,7
 348 1026 348 1026 546 1189 c 0,8,9
 719 1331 719 1331 971 1331 c 0,10,11
 1194 1331 1194 1331 1316 1176 c 0,12,13
 1416 1051 1416 1051 1416 867 c 0,14,15
 1416 816 1416 816 1408 761 c 0,16,17
 1372 496 1372 496 1174 333 c 0,18,19
 1001 191 1001 191 749 191 c 0,0,1
485 375 m 1,20,-1
 613 980 l 2,21,22
 657 1190 657 1190 879 1190 c 0,23,24
 1043 1190 1043 1190 1125 1108 c 0,25,26
 1204 1030 1204 1030 1205 924 c 0,27,28
 1205 881 1205 881 1199 852 c 0,29,30
 1174 722 1174 722 1071 636 c 0,31,32
 1014 588 1014 588 939 560 c 1,33,-1
 1139 394 l 1,34,35
 1306 535 1306 535 1337 761 c 0,36,37
 1344 809 1344 809 1344 853 c 0,38,39
 1344 1013 1344 1013 1257 1122 c 0,40,41
 1151 1257 1151 1257 956 1257 c 0,42,43
 737 1257 737 1257 587 1133 c 0,44,45
 415 991 415 991 383 761 c 0,46,47
 376 713 376 713 376 669 c 0,48,49
 376 509 376 509 463 400 c 0,50,51
 474 387 474 387 485 375 c 1,20,-1
550 321 m 1,52,53
 638 265 638 265 763 265 c 0,54,55
 884 265 884 265 984 303 c 1,56,-1
 719 529 l 1,57,-1
 749 668 l 1,58,59
 889 668 889 668 961 736 c 0,60,61
 1021 793 1021 793 1036 866 c 0,62,63
 1041 891 1041 891 1041 912 c 0,64,65
 1041 961 1041 961 1012 994 c 0,66,67
 974 1038 974 1038 879 1038 c 0,68,69
 787 1038 787 1038 775 980 c 2,70,-1
 635 321 l 1,71,-1
 550 321 l 1,52,53
EndSplineSet
Validated: 1
EndChar

StartChar: macron
Encoding: 175 175 111
Width: 603
GlyphClass: 2
Flags: W
HStem: 1309 140<358 831>
VStem: 328 533
LayerCount: 2
Fore
SplineSet
358 1449 m 1,0,-1
 861 1449 l 1,1,-1
 831 1309 l 1,2,-1
 328 1309 l 1,3,-1
 358 1449 l 1,0,-1
EndSplineSet
Validated: 1
EndChar

StartChar: degree
Encoding: 176 176 112
Width: 718
GlyphClass: 2
Flags: W
HStem: 905 157<489.3 695.969> 1373 157<534.444 744.23>
VStem: 304 158<1109.03 1300.3> 769 162<1138.19 1326.97>
LayerCount: 2
Fore
SplineSet
668 1530 m 256,0,1
 792 1530 792 1530 871 1433 c 0,2,3
 931 1361 931 1361 931 1265 c 0,4,5
 931 1242 931 1242 927 1217 c 0,6,7
 907 1077 907 1077 795 986 c 0,8,9
 696 905 696 905 567 905 c 0,10,11
 443 905 443 905 364 1002 c 0,12,13
 304 1074 304 1074 304 1170 c 0,14,15
 304 1193 304 1193 308 1218 c 0,16,17
 328 1358 328 1358 440 1449 c 0,18,19
 539 1530 539 1530 668 1530 c 256,0,1
650 1373 m 0,20,21
 585 1373 585 1373 533 1328 c 0,22,23
 479 1281 479 1281 466 1218 c 0,24,25
 462 1200 462 1200 462 1183 c 0,26,27
 462 1141 462 1141 487 1108 c 0,28,29
 523 1062 523 1062 583 1062 c 256,30,31
 645 1062 645 1062 698 1108 c 128,-1,32
 751 1154 751 1154 765 1218 c 0,33,34
 769 1236 769 1236 769 1253 c 0,35,36
 769 1295 769 1295 745 1328 c 0,37,38
 711 1373 711 1373 650 1373 c 0,20,21
EndSplineSet
Validated: 1
EndChar

StartChar: plusminus
Encoding: 177 177 113
Width: 1133
GlyphClass: 2
Flags: W
HStem: 228 180<237 1031> 805 180<359 647 865 1154>
VStem: 578 180<478 658> 755 180<1132 1312>
DStem2: 524.861 228 704.861 228 0.207912 0.978148<293.009 589.785 811.177 1108.16>
LayerCount: 2
Fore
SplineSet
198 228 m 1,0,-1
 237 408 l 1,1,-1
 1070 408 l 1,2,-1
 1031 228 l 1,3,-1
 198 228 l 1,0,-1
755 1312 m 1,4,-1
 935 1312 l 1,5,-1
 865 985 l 1,6,-1
 1192 985 l 1,7,-1
 1154 805 l 1,8,-1
 827 805 l 1,9,-1
 758 478 l 1,10,-1
 578 478 l 1,11,-1
 647 805 l 1,12,-1
 321 805 l 1,13,-1
 359 985 l 1,14,-1
 685 985 l 1,15,-1
 755 1312 l 1,4,-1
EndSplineSet
Validated: 1
EndChar

StartChar: uni00B2
Encoding: 178 178 114
Width: 629
GlyphClass: 2
Flags: W
HStem: 878 133<455 766> 1537 143<516.158 713.168>
VStem: 729 152<1339.33 1497.28>
LayerCount: 2
Fore
SplineSet
652 1680 m 0,0,1
 787 1680 787 1680 853 1570 c 0,2,3
 881 1522 881 1522 881 1462 c 0,4,5
 881 1437 881 1437 877 1410 c 0,6,7
 844 1226 844 1226 620 1130 c 0,8,9
 525 1089 525 1089 455 1011 c 1,10,-1
 794 1011 l 1,11,-1
 766 878 l 1,12,-1
 244 878 l 1,13,14
 291 1100 291 1100 577 1255 c 0,15,16
 699 1321 699 1321 724 1411 c 0,17,18
 729 1429 729 1429 729 1445 c 0,19,20
 729 1475 729 1475 712 1498 c 0,21,22
 685 1536 685 1536 629 1537 c 0,23,24
 536 1537 536 1537 474 1442 c 1,25,-1
 376 1535 l 1,26,27
 475 1680 475 1680 652 1680 c 0,0,1
EndSplineSet
Validated: 1
EndChar

StartChar: uni00B3
Encoding: 179 179 115
Width: 640
GlyphClass: 2
Flags: W
HStem: 860 143<357.543 624.956> 1228 142<537 651.98> 1539 141<512.562 689.63>
VStem: 677 153<1046.74 1206.04> 698 155<1395.94 1517.5>
LayerCount: 2
Fore
SplineSet
640 1680 m 0,0,1
 746 1680 746 1680 804 1619 c 0,2,3
 853 1567 853 1567 853 1496 c 0,4,5
 853 1484 853 1484 852 1471 c 0,6,7
 841 1372 841 1372 735 1314 c 1,8,9
 773 1290 773 1290 794 1260 c 0,10,11
 830 1212 830 1212 830 1149 c 0,12,13
 830 1135 830 1135 828 1120 c 0,14,15
 815 1007 815 1007 721 931 c 0,16,17
 632 860 632 860 491 860 c 0,18,19
 355 860 355 860 253 954 c 1,20,-1
 382 1061 l 1,21,22
 433 1003 433 1003 501 1003 c 0,23,24
 578 1003 578 1003 618 1034 c 0,25,26
 663 1070 663 1070 674 1120 c 0,27,28
 677 1134 677 1134 677 1147 c 0,29,30
 677 1181 677 1181 653 1201 c 0,31,32
 621 1228 621 1228 507 1228 c 1,33,-1
 537 1370 l 1,34,35
 632 1370 632 1370 659 1395 c 0,36,37
 690 1425 690 1425 696 1459 c 0,38,39
 698 1470 698 1470 698 1479 c 0,40,41
 698 1502 698 1502 684 1518 c 0,42,43
 666 1539 666 1539 625 1539 c 0,44,45
 581 1539 581 1539 530 1494 c 1,46,-1
 441 1594 l 1,47,48
 532 1680 532 1680 640 1680 c 0,0,1
EndSplineSet
Validated: 1
EndChar

StartChar: acute
Encoding: 180 180 116
Width: 451
GlyphClass: 2
Flags: W
HStem: 1242 339
VStem: 340 371
DStem2: 340 1366 425 1242 0.799329 0.600894<0 351.232>
LayerCount: 2
Fore
SplineSet
626 1581 m 1,0,-1
 711 1457 l 1,1,-1
 425 1242 l 1,2,-1
 340 1366 l 1,3,-1
 626 1581 l 1,0,-1
EndSplineSet
Validated: 1
EndChar

StartChar: uni00B5
Encoding: 181 181 117
Width: 1348
GlyphClass: 2
Flags: W
HStem: -20 160<632.497 958.469> 1080 20G<632.5 904 1197.74 1382>
VStem: 113 180<-410 -230> 683 221<879 1100> 1202 180<920 1100>
DStem2: 113 -410 293 -410 0.207912 0.978148<37.4241 594.632 908.046 1248.52> 880.834 -410 1060.83 -410 0.207912 0.978148<601.689 1543.78>
LayerCount: 2
Fore
SplineSet
799 -20 m 0,0,1
 549 -20 549 -20 422 120 c 0,2,3
 415 127 415 127 409 135 c 1,4,-1
 293 -410 l 1,5,-1
 113 -410 l 1,6,-1
 317 550 l 2,7,8
 358 741 358 741 484 901 c 0,9,10
 582 1021 582 1021 683 1100 c 1,11,-1
 904 1100 l 1,12,13
 735 974 735 974 642 856 c 0,14,15
 534 718 534 718 498 550 c 0,16,17
 484 485 484 485 484 438 c 0,18,19
 484 326 484 326 545 255 c 0,20,21
 644 140 644 140 818 140 c 0,22,23
 998 140 998 140 1036 320 c 2,24,-1
 1202 1100 l 1,25,-1
 1382 1100 l 1,26,-1
 1216 320 l 2,27,28
 1144 -20 1144 -20 799 -20 c 0,0,1
EndSplineSet
Validated: 1
EndChar

StartChar: paragraph
Encoding: 182 182 118
Width: 1153
GlyphClass: 2
Flags: W
HStem: 0 21G<713 805.248 867 957.252> 705 815<676.866 867.435> 1436 74<1106 1172>
VStem: 713 88<0 88> 867 86<0 86>
DStem2: 713 0 801 0 0.207912 0.978148<18.2962 756.471> 867 0 953 0 0.207912 0.978148<17.8804 1468.03>
LayerCount: 2
Fore
SplineSet
713 0 m 1,0,-1
 870 740 l 1,1,2
 788 705 788 705 697 705 c 0,3,4
 532 705 532 705 442 825 c 0,5,6
 377 911 377 911 376 1022 c 0,7,8
 376 1064 376 1064 386 1112 c 0,9,10
 422 1280 422 1280 564 1401 c 0,11,12
 703 1520 703 1520 870 1520 c 0,13,14
 961 1520 961 1520 1029 1485 c 1,15,-1
 1034 1510 l 1,16,-1
 1274 1510 l 1,17,-1
 953 0 l 1,18,-1
 867 0 l 1,19,-1
 1172 1436 l 1,20,-1
 1106 1436 l 1,21,-1
 801 0 l 1,22,-1
 713 0 l 1,0,-1
EndSplineSet
Validated: 1
EndChar

StartChar: periodcentered
Encoding: 183 183 119
Width: 356
GlyphClass: 2
Flags: W
HStem: 621 265<252.814 423.186>
VStem: 209 258<665.063 841.937>
LayerCount: 2
Fore
SplineSet
364 886 m 0,0,1
 416 886 416 886 444 850 c 0,2,3
 467 821 467 821 467 778 c 0,4,5
 467 761 467 761 465 749 c 0,6,7
 457 692 457 692 411 654 c 0,8,9
 371 621 371 621 312 621 c 0,10,11
 260 621 260 621 232 657 c 0,12,13
 209 686 209 686 209 729 c 0,14,15
 209 746 209 746 211 758 c 0,16,17
 219 815 219 815 265 853 c 0,18,19
 305 886 305 886 364 886 c 0,0,1
EndSplineSet
Validated: 1
EndChar

StartChar: cedilla
Encoding: 184 184 120
Width: 369
GlyphClass: 2
Flags: W
HStem: -430 560
VStem: 141 156<-210.584 9.05322>
LayerCount: 2
Fore
SplineSet
193 130 m 1,0,1
 297 39 297 39 297 -89 c 0,2,3
 297 -295 297 -295 38 -430 c 1,4,-1
 -23 -299 l 1,5,6
 141 -215 141 -215 141 -100 c 0,7,8
 141 -28 141 -28 86 20 c 1,9,-1
 193 130 l 1,0,1
EndSplineSet
Validated: 1
EndChar

StartChar: uni00B9
Encoding: 185 185 121
Width: 389
GlyphClass: 2
Flags: W
HStem: 1537 143<407 502.022>
VStem: 373 153<878 1031> 503 158<1301.98 1611>
DStem2: 373 878 526 878 0.207912 0.978148<31.8105 634.213>
LayerCount: 2
Fore
SplineSet
407 1680 m 1,0,-1
 486 1680 l 2,1,2
 661 1680 661 1680 661 1542 c 0,3,4
 661 1514 661 1514 654 1481 c 2,5,-1
 526 878 l 1,6,-1
 373 878 l 1,7,-1
 501 1481 l 2,8,9
 503 1491 503 1491 503 1499 c 0,10,11
 503 1537 503 1537 456 1537 c 2,12,-1
 377 1537 l 1,13,-1
 407 1680 l 1,0,-1
EndSplineSet
Validated: 1
EndChar

StartChar: ordmasculine
Encoding: 186 186 122
Width: 730
GlyphClass: 2
Flags: W
HStem: 843 153<262 854> 1055 157<533.3 739.969> 1523 157<578.444 788.23>
VStem: 348 158<1259.03 1450.3> 813 162<1288.19 1476.97>
LayerCount: 2
Fore
SplineSet
712 1680 m 256,0,1
 836 1680 836 1680 915 1583 c 0,2,3
 975 1511 975 1511 975 1415 c 0,4,5
 975 1392 975 1392 971 1367 c 0,6,7
 951 1227 951 1227 839 1136 c 0,8,9
 740 1055 740 1055 611 1055 c 0,10,11
 487 1055 487 1055 408 1152 c 0,12,13
 348 1224 348 1224 348 1320 c 0,14,15
 348 1343 348 1343 352 1368 c 0,16,17
 372 1508 372 1508 484 1599 c 0,18,19
 583 1680 583 1680 712 1680 c 256,0,1
694 1523 m 0,20,21
 629 1523 629 1523 577 1478 c 0,22,23
 523 1431 523 1431 510 1368 c 0,24,25
 506 1350 506 1350 506 1333 c 0,26,27
 506 1291 506 1291 531 1258 c 0,28,29
 567 1212 567 1212 627 1212 c 256,30,31
 689 1212 689 1212 742 1258 c 128,-1,32
 795 1304 795 1304 809 1368 c 0,33,34
 813 1386 813 1386 813 1403 c 0,35,36
 813 1445 813 1445 789 1478 c 0,37,38
 755 1523 755 1523 694 1523 c 0,20,21
262 996 m 1,39,-1
 887 996 l 1,40,-1
 854 843 l 1,41,-1
 229 843 l 1,42,-1
 262 996 l 1,39,-1
EndSplineSet
Validated: 1
EndChar

StartChar: guillemotright
Encoding: 187 187 123
Width: 1304
GlyphClass: 2
Flags: W
DStem2: 231 382 348 262 0.724645 0.689123<2.08868 559.482> 554 1232 410 1129 0.531098 -0.847311<10.7949 436.702> 686 382 803 262 0.724645 0.689123<2.08868 559.482> 1009 1232 865 1129 0.531098 -0.847311<10.7949 436.702>
LayerCount: 2
Fore
SplineSet
1009 1232 m 1,0,-1
 1313 747 l 1,1,-1
 803 262 l 1,2,-1
 686 382 l 1,3,-1
 1091 768 l 1,4,-1
 865 1129 l 1,5,-1
 1009 1232 l 1,0,-1
554 1232 m 1,6,-1
 858 747 l 1,7,-1
 348 262 l 1,8,-1
 231 382 l 1,9,-1
 636 768 l 1,10,-1
 410 1129 l 1,11,-1
 554 1232 l 1,6,-1
EndSplineSet
Validated: 1
EndChar

StartChar: onequarter
Encoding: 188 188 124
Width: 1450
GlyphClass: 2
Flags: W
HStem: 0 1G<147.167 189.484 1147 1304.25> 160 143<1013 1134> 1387 143<375 470.022>
VStem: 341 153<728 881> 471 158<1151.98 1461> 1147 153<0 153> 1153 168<634 802> 1277 153<459 612>
DStem2: 33 100 170 -20 0.697799 0.716294<9.64322 1997.73> 182.008 -20 335.008 -20 0.207912 0.978148<796.521 1398.92> 1142.75 -20 1295.75 -20 0.207912 0.978148<52.2573 646.102> 1153 802 1321 802 0.525239 0.850955<-498.16 0>
LayerCount: 2
Fore
SplineSet
1153 802 m 1,0,-1
 1321 802 l 1,1,-1
 1013 303 l 25,2,-1
 1164 303 l 1,3,-1
 1134 160 l 1,4,-1
 978 160 l 2,5,6
 843 160 843 160 843 255 c 0,7,8
 843 301 843 301 892 380 c 2,9,-1
 1153 802 l 1,0,-1
33 100 m 1,10,-1
 1428 1530 l 1,11,-1
 1566 1413 l 1,12,-1
 170 -20 l 1,13,-1
 33 100 l 1,10,-1
1300 0 m 1,14,-1
 1147 0 l 1,15,-1
 1277 612 l 1,16,-1
 1430 612 l 1,17,-1
 1300 0 l 1,14,-1
375 1530 m 1,18,-1
 454 1530 l 2,19,20
 629 1530 629 1530 629 1392 c 0,21,22
 629 1364 629 1364 622 1331 c 2,23,-1
 494 728 l 1,24,-1
 341 728 l 1,25,-1
 469 1331 l 2,26,27
 471 1341 471 1341 471 1349 c 0,28,29
 471 1387 471 1387 424 1387 c 2,30,-1
 345 1387 l 1,31,-1
 375 1530 l 1,18,-1
EndSplineSet
Validated: 1
EndChar

StartChar: onehalf
Encoding: 189 189 125
Width: 1565
GlyphClass: 2
Flags: W
HStem: -20 21G<147.167 189.484> 0 133<1104 1415> 659 143<1165.16 1362.17> 1387 143<375 470.022>
VStem: 341 153<728 881> 471 158<1151.98 1461> 1378 152<461.334 619.28>
DStem2: 33 100 170 -20 0.697799 0.716294<9.64322 1997.73> 182.008 -20 335.008 -20 0.207912 0.978148<796.521 1398.92>
LayerCount: 2
Fore
SplineSet
893 0 m 1,0,1
 940 222 940 222 1226 377 c 0,2,3
 1348 443 1348 443 1373 533 c 0,4,5
 1378 551 1378 551 1378 567 c 0,6,7
 1378 597 1378 597 1361 620 c 0,8,9
 1334 658 1334 658 1278 659 c 0,10,11
 1185 659 1185 659 1123 564 c 1,12,-1
 1025 657 l 1,13,14
 1124 802 1124 802 1301 802 c 0,15,16
 1436 802 1436 802 1502 692 c 0,17,18
 1530 644 1530 644 1530 584 c 0,19,20
 1530 559 1530 559 1526 532 c 0,21,22
 1493 348 1493 348 1269 252 c 0,23,24
 1174 211 1174 211 1104 133 c 1,25,-1
 1443 133 l 1,26,-1
 1415 0 l 1,27,-1
 893 0 l 1,0,1
33 100 m 1,28,-1
 1428 1530 l 1,29,-1
 1566 1413 l 1,30,-1
 170 -20 l 1,31,-1
 33 100 l 1,28,-1
375 1530 m 1,32,-1
 454 1530 l 2,33,34
 629 1530 629 1530 629 1392 c 0,35,36
 629 1364 629 1364 622 1331 c 2,37,-1
 494 728 l 1,38,-1
 341 728 l 1,39,-1
 469 1331 l 2,40,41
 471 1341 471 1341 471 1349 c 0,42,43
 471 1387 471 1387 424 1387 c 2,44,-1
 345 1387 l 1,45,-1
 375 1530 l 1,32,-1
EndSplineSet
Validated: 1
EndChar

StartChar: threequarters
Encoding: 190 190 126
Width: 1717
GlyphClass: 2
Flags: W
HStem: 0 1G<414.167 456.484 1414 1571.25> 160 143<1280 1401> 710 143<438.543 705.956> 1078 142<618 732.98> 1389 141<593.562 770.63>
VStem: 758 153<896.737 1056.04> 779 155<1245.94 1367.5> 1414 153<0 153> 1420 168<634 802> 1544 153<459 612>
DStem2: 300 100 437 -20 0.697799 0.716294<9.64322 1997.73> 1409.75 -20 1562.75 -20 0.207912 0.978148<52.2573 646.102> 1420 802 1588 802 0.525239 0.850955<-498.16 0>
LayerCount: 2
Fore
SplineSet
721 1530 m 0,0,1
 827 1530 827 1530 885 1469 c 0,2,3
 934 1417 934 1417 934 1346 c 0,4,5
 934 1334 934 1334 933 1321 c 0,6,7
 922 1222 922 1222 816 1164 c 1,8,9
 854 1140 854 1140 875 1110 c 0,10,11
 911 1062 911 1062 911 999 c 0,12,13
 911 985 911 985 909 970 c 0,14,15
 896 857 896 857 802 781 c 0,16,17
 713 710 713 710 572 710 c 0,18,19
 436 710 436 710 334 804 c 1,20,-1
 463 911 l 1,21,22
 514 853 514 853 582 853 c 0,23,24
 659 853 659 853 699 884 c 0,25,26
 744 920 744 920 755 970 c 0,27,28
 758 984 758 984 758 997 c 0,29,30
 758 1031 758 1031 734 1051 c 0,31,32
 702 1078 702 1078 588 1078 c 1,33,-1
 618 1220 l 1,34,35
 713 1220 713 1220 740 1245 c 0,36,37
 771 1275 771 1275 777 1309 c 0,38,39
 779 1320 779 1320 779 1329 c 0,40,41
 779 1352 779 1352 765 1368 c 0,42,43
 747 1389 747 1389 706 1389 c 0,44,45
 662 1389 662 1389 611 1344 c 1,46,-1
 522 1444 l 1,47,48
 613 1530 613 1530 721 1530 c 0,0,1
300 100 m 1,49,-1
 1695 1530 l 1,50,-1
 1833 1413 l 1,51,-1
 437 -20 l 1,52,-1
 300 100 l 1,49,-1
1420 802 m 1,53,-1
 1588 802 l 1,54,-1
 1280 303 l 25,55,-1
 1431 303 l 1,56,-1
 1401 160 l 1,57,-1
 1245 160 l 2,58,59
 1110 160 1110 160 1110 255 c 0,60,61
 1110 301 1110 301 1159 380 c 2,62,-1
 1420 802 l 1,53,-1
1567 0 m 1,63,-1
 1414 0 l 1,64,-1
 1544 612 l 1,65,-1
 1697 612 l 1,66,-1
 1567 0 l 1,63,-1
EndSplineSet
Validated: 1
EndChar

StartChar: questiondown
Encoding: 191 191 127
Width: 1186
GlyphClass: 2
Flags: W
HStem: -430 180<428.339 747.241> 855 265<757.814 928.186>
VStem: 151 197<-171.25 111.716> 705 160<586 746> 714 258<899.063 1075.94>
LayerCount: 2
Fore
SplineSet
869 1120 m 0,0,1
 921 1120 921 1120 949 1084 c 0,2,3
 972 1055 972 1055 972 1012 c 0,4,5
 972 995 972 995 970 983 c 0,6,7
 962 926 962 926 916 888 c 0,8,9
 876 855 876 855 817 855 c 0,10,11
 765 855 765 855 737 891 c 0,12,13
 714 920 714 920 714 963 c 0,14,15
 714 980 714 980 716 992 c 0,16,17
 724 1049 724 1049 770 1087 c 0,18,19
 810 1120 810 1120 869 1120 c 0,0,1
557 -430 m 0,20,21
 347 -430 347 -430 229 -279 c 0,22,23
 151 -180 151 -180 151 -46 c 0,24,25
 151 -11 151 -11 156 27 c 0,26,27
 186 240 186 240 440 409 c 0,28,29
 662 557 662 557 705 746 c 1,30,-1
 865 746 l 1,31,32
 804 456 804 456 561 281 c 0,33,34
 383 152 383 152 356 26 c 0,35,36
 349 -8 349 -8 348 -39 c 0,37,38
 348 -118 348 -118 396 -176 c 0,39,40
 456 -250 456 -250 579 -250 c 0,41,42
 745 -250 745 -250 900 -86 c 1,43,-1
 1023 -204 l 1,44,45
 823 -430 823 -430 557 -430 c 0,20,21
EndSplineSet
Validated: 1
EndChar

StartChar: multiply
Encoding: 215 215 128
Width: 1117
GlyphClass: 2
Flags: W
HStem: 1083 20G<536.748 576.844 999.758 1039.75>
DStem2: 310 514 410 387 0.7714 0.636351<0 358.676 562.601 921.914> 561 1103 407 976 0.618997 -0.785394<4.4195 294.702 461.552 751.216>
LayerCount: 2
Fore
SplineSet
561 1103 m 1,0,-1
 744 872 l 1,1,-1
 1024 1103 l 1,2,-1
 1124 976 l 1,3,-1
 844 745 l 1,4,-1
 1026 513 l 1,5,-1
 872 386 l 1,6,-1
 690 617 l 1,7,-1
 410 387 l 1,8,-1
 310 514 l 1,9,-1
 589 745 l 1,10,-1
 407 976 l 1,11,-1
 561 1103 l 1,0,-1
EndSplineSet
Validated: 1
EndChar

StartChar: Oslash
Encoding: 216 216 129
Width: 1661
GlyphClass: 2
Flags: W
HStem: -20 180<666.237 1082.22> 1350 180<899.781 1313.67>
VStem: 249 194<399.993 848.485> 1539 194<661.909 1112.6>
DStem2: 161 129 221 52 0.769049 0.63919<0 207.802 418.937 1658.59 1866.09 2076.12>
LayerCount: 2
Fore
SplineSet
846 -20 m 0,0,1
 549 -20 549 -20 383 187 c 1,2,-1
 221 52 l 1,3,-1
 161 129 l 1,4,-1
 328 268 l 1,5,6
 249 408 249 408 249 599 c 0,7,8
 249 673 249 673 261 755 c 0,9,10
 311 1094 311 1094 558 1312 c 128,-1,11
 805 1530 805 1530 1136 1530 c 0,12,13
 1424 1530 1424 1530 1597 1323 c 1,14,-1
 1760 1458 l 1,15,-1
 1820 1381 l 1,16,-1
 1654 1243 l 1,17,18
 1733 1108 1733 1108 1733 916 c 0,19,20
 1733 840 1733 840 1721 755 c 0,21,22
 1671 418 1671 418 1424 198 c 0,23,24
 1177 -20 1177 -20 846 -20 c 0,0,1
535 313 m 1,25,26
 655 160 655 160 865 160 c 0,27,28
 1089 160 1089 160 1285 334 c 0,29,30
 1467 496 1467 496 1521 755 c 0,31,32
 1539 841 1539 841 1539 915 c 0,33,34
 1539 1026 1539 1026 1499 1114 c 1,35,-1
 535 313 l 1,25,26
483 397 m 1,36,-1
 1447 1198 l 1,37,38
 1327 1350 1327 1350 1117 1350 c 0,39,40
 893 1350 893 1350 697 1176 c 0,41,42
 516 1015 516 1015 461 755 c 0,43,44
 443 669 443 669 443 595 c 0,45,46
 443 484 443 484 483 397 c 1,36,-1
EndSplineSet
Validated: 1
EndChar

StartChar: divide
Encoding: 247 247 130
Width: 1133
GlyphClass: 2
Flags: W
HStem: 180 265<542.814 713.186> 655 180<327 1122> 1023 265<736.814 907.186>
VStem: 499 258<224.063 400.937> 693 258<1067.06 1243.94>
LayerCount: 2
Fore
SplineSet
654 445 m 0,0,1
 706 445 706 445 734 409 c 0,2,3
 757 380 757 380 757 337 c 0,4,5
 757 320 757 320 755 308 c 0,6,7
 747 251 747 251 701 213 c 0,8,9
 661 180 661 180 602 180 c 0,10,11
 550 180 550 180 522 216 c 0,12,13
 499 245 499 245 499 288 c 0,14,15
 499 305 499 305 501 317 c 0,16,17
 509 374 509 374 555 412 c 0,18,19
 595 445 595 445 654 445 c 0,0,1
848 1288 m 0,20,21
 900 1288 900 1288 928 1252 c 0,22,23
 951 1223 951 1223 951 1180 c 0,24,25
 951 1163 951 1163 949 1151 c 0,26,27
 941 1094 941 1094 895 1056 c 0,28,29
 855 1023 855 1023 796 1023 c 0,30,31
 744 1023 744 1023 716 1059 c 0,32,33
 693 1088 693 1088 693 1131 c 0,34,35
 693 1148 693 1148 695 1160 c 0,36,37
 703 1217 703 1217 749 1255 c 0,38,39
 789 1288 789 1288 848 1288 c 0,20,21
327 835 m 1,40,-1
 1160 835 l 1,41,-1
 1122 655 l 1,42,-1
 289 655 l 1,43,-1
 327 835 l 1,40,-1
EndSplineSet
Validated: 1
EndChar

StartChar: oslash
Encoding: 248 248 131
Width: 1296
GlyphClass: 2
Flags: W
HStem: -20 160<512.464 861.775> 960 160<668.225 1017.33>
VStem: 209 175<316.352 652.069> 1146 175<447.931 782.914>
DStem2: 114 70 172 -8 0.768272 0.640124<0 194.899 380.526 1233.64 1420.63 1617.75>
LayerCount: 2
Fore
SplineSet
654 -20 m 0,0,1
 444 -20 444 -20 323 118 c 1,2,-1
 172 -8 l 1,3,-1
 114 70 l 1,4,-1
 267 198 l 1,5,6
 209 304 209 304 209 444 c 0,7,8
 209 495 209 495 217 550 c 0,9,10
 253 815 253 815 451 978 c 0,11,12
 624 1120 624 1120 876 1120 c 0,13,14
 1086 1120 1086 1120 1207 982 c 1,15,-1
 1358 1108 l 1,16,-1
 1419 1031 l 1,17,-1
 1263 901 l 1,18,19
 1321 795 1321 795 1321 656 c 0,20,21
 1321 605 1321 605 1313 550 c 0,22,23
 1277 285 1277 285 1079 122 c 0,24,25
 906 -20 906 -20 654 -20 c 0,0,1
678 140 m 0,26,27
 836 140 836 140 965 254 c 128,-1,28
 1094 368 1094 368 1133 550 c 0,29,30
 1146 609 1146 609 1146 661 c 0,31,32
 1146 729 1146 729 1124 785 c 1,33,-1
 458 230 l 1,34,35
 537 140 537 140 678 140 c 0,26,27
406 314 m 1,36,-1
 1072 870 l 1,37,38
 992 960 992 960 852 960 c 0,39,40
 694 960 694 960 565 846 c 128,-1,41
 436 732 436 732 397 550 c 0,42,43
 384 491 384 491 384 439 c 0,44,45
 384 370 384 370 406 314 c 1,36,-1
EndSplineSet
Validated: 1
EndChar

StartChar: florin
Encoding: 402 402 132
Width: 740
GlyphClass: 2
Flags: W
HStem: -430 21G<-66.8192 36> 940 160<612.284 930> 1370 160<768.32 1021>
VStem: 447 180<1160 1340>
DStem2: 108.983 -430 288.732 -430 0.207912 0.978148<294.111 1406.78 1662.96 1797.93>
LayerCount: 2
Fore
SplineSet
-71 -430 m 1,0,-1
 -34 -253 l 1,1,2
 46 -220 46 -220 104 -161 c 0,3,4
 183 -82 183 -82 221 97 c 2,5,-1
 362 760 l 2,6,7
 434 1100 434 1100 774 1100 c 2,8,-1
 964 1100 l 25,9,-1
 930 940 l 1,10,-1
 740 940 l 18,11,12
 580 940 580 940 542 760 c 2,13,-1
 405 117 l 2,14,15
 356 -114 356 -114 269 -218 c 0,16,17
 143 -368 143 -368 -71 -430 c 1,0,-1
447 1160 m 1,18,19
 526 1530 526 1530 1055 1530 c 1,20,-1
 1021 1370 l 1,21,22
 671 1370 671 1370 627 1160 c 1,23,-1
 447 1160 l 1,18,19
EndSplineSet
Validated: 1
EndChar

StartChar: endash
Encoding: 8211 8211 133
Width: 1133
GlyphClass: 2
Flags: W
HStem: 655 180<327 1122>
LayerCount: 2
Fore
SplineSet
327 835 m 1,0,-1
 1160 835 l 1,1,-1
 1122 655 l 1,2,-1
 289 655 l 1,3,-1
 327 835 l 1,0,-1
EndSplineSet
Validated: 1
EndChar

StartChar: emdash
Encoding: 8212 8212 134
Width: 1634
GlyphClass: 2
Flags: W
HStem: 655 180<328 1623>
LayerCount: 2
Fore
SplineSet
328 835 m 1,0,-1
 1661 835 l 1,1,-1
 1623 655 l 1,2,-1
 290 655 l 1,3,-1
 328 835 l 1,0,-1
EndSplineSet
Validated: 19457
EndChar

StartChar: afii00208
Encoding: 8213 8213 135
Width: 1634
GlyphClass: 2
Flags: W
HStem: 655 180<328 1623>
LayerCount: 2
Fore
SplineSet
328 835 m 1,0,-1
 1661 835 l 1,1,-1
 1623 655 l 1,2,-1
 290 655 l 1,3,-1
 328 835 l 1,0,-1
EndSplineSet
Validated: 19457
EndChar

StartChar: quoteleft
Encoding: 8216 8216 136
Width: 369
GlyphClass: 2
Flags: W
HStem: 990 560
VStem: 316 143<1133.94 1351.04>
LayerCount: 2
Fore
SplineSet
533 1550 m 1,0,-1
 594 1419 l 1,1,2
 459 1353 459 1353 459 1227 c 0,3,4
 459 1141 459 1141 553 1106 c 1,5,-1
 450 990 l 1,6,7
 316 1090 316 1090 316 1222 c 0,8,9
 316 1413 316 1413 533 1550 c 1,0,-1
EndSplineSet
Validated: 1
EndChar

StartChar: quoteright
Encoding: 8217 8217 137
Width: 369
GlyphClass: 2
Flags: W
HStem: 990 560
VStem: 442 156<1209.42 1429.05>
LayerCount: 2
Fore
SplineSet
494 1550 m 1,0,1
 598 1459 598 1459 598 1331 c 0,2,3
 598 1125 598 1125 339 990 c 1,4,-1
 278 1121 l 1,5,6
 442 1205 442 1205 442 1320 c 0,7,8
 442 1392 442 1392 387 1440 c 1,9,-1
 494 1550 l 1,0,1
EndSplineSet
Validated: 1
EndChar

StartChar: quotesinglbase
Encoding: 8218 8218 138
Width: 369
GlyphClass: 2
Flags: W
HStem: -292 560
VStem: 170 156<-72.5841 147.053>
LayerCount: 2
Fore
SplineSet
222 268 m 1,0,1
 326 177 326 177 326 49 c 0,2,3
 326 -157 326 -157 67 -292 c 1,4,-1
 6 -161 l 1,5,6
 170 -77 170 -77 170 38 c 0,7,8
 170 110 170 110 115 158 c 1,9,-1
 222 268 l 1,0,1
EndSplineSet
Validated: 1
EndChar

StartChar: quotereversed
Encoding: 8219 8219 139
Width: 369
GlyphClass: 2
Flags: W
HStem: 990 560
VStem: 316 143<1133.94 1351.04>
LayerCount: 2
Fore
SplineSet
533 1550 m 1,0,-1
 594 1419 l 1,1,2
 459 1353 459 1353 459 1227 c 0,3,4
 459 1141 459 1141 553 1106 c 1,5,-1
 450 990 l 1,6,7
 316 1090 316 1090 316 1222 c 0,8,9
 316 1413 316 1413 533 1550 c 1,0,-1
EndSplineSet
Validated: 1
EndChar

StartChar: quotedblleft
Encoding: 8220 8220 140
Width: 650
GlyphClass: 2
Flags: W
HStem: 990 560
VStem: 316 143<1133.94 1351.04> 597 143<1133.94 1351.04>
LayerCount: 2
Fore
SplineSet
814 1550 m 1,0,-1
 875 1419 l 1,1,2
 740 1353 740 1353 740 1227 c 0,3,4
 740 1141 740 1141 834 1106 c 1,5,-1
 731 990 l 1,6,7
 597 1090 597 1090 597 1222 c 0,8,9
 597 1413 597 1413 814 1550 c 1,0,-1
533 1550 m 1,10,-1
 594 1419 l 1,11,12
 459 1353 459 1353 459 1227 c 0,13,14
 459 1141 459 1141 553 1106 c 1,15,-1
 450 990 l 1,16,17
 316 1090 316 1090 316 1222 c 0,18,19
 316 1413 316 1413 533 1550 c 1,10,-1
EndSplineSet
Validated: 1
EndChar

StartChar: quotedblright
Encoding: 8221 8221 141
Width: 650
GlyphClass: 2
Flags: W
HStem: 990 560
VStem: 442 156<1209.42 1429.05> 723 156<1209.42 1429.05>
LayerCount: 2
Fore
SplineSet
775 1550 m 1,0,1
 879 1459 879 1459 879 1331 c 0,2,3
 879 1125 879 1125 620 990 c 1,4,-1
 559 1121 l 1,5,6
 723 1205 723 1205 723 1320 c 0,7,8
 723 1392 723 1392 668 1440 c 1,9,-1
 775 1550 l 1,0,1
494 1550 m 1,10,11
 598 1459 598 1459 598 1331 c 0,12,13
 598 1125 598 1125 339 990 c 1,14,-1
 278 1121 l 1,15,16
 442 1205 442 1205 442 1320 c 0,17,18
 442 1392 442 1392 387 1440 c 1,19,-1
 494 1550 l 1,10,11
EndSplineSet
Validated: 1
EndChar

StartChar: quotedblbase
Encoding: 8222 8222 142
Width: 650
GlyphClass: 2
Flags: W
HStem: -292 560
VStem: 170 156<-72.5841 147.053> 451 156<-72.5841 147.053>
LayerCount: 2
Fore
SplineSet
503 268 m 1,0,1
 607 177 607 177 607 49 c 0,2,3
 607 -157 607 -157 348 -292 c 1,4,-1
 287 -161 l 1,5,6
 451 -77 451 -77 451 38 c 0,7,8
 451 110 451 110 396 158 c 1,9,-1
 503 268 l 1,0,1
222 268 m 1,10,11
 326 177 326 177 326 49 c 0,12,13
 326 -157 326 -157 67 -292 c 1,14,-1
 6 -161 l 1,15,16
 170 -77 170 -77 170 38 c 0,17,18
 170 110 170 110 115 158 c 1,19,-1
 222 268 l 1,10,11
EndSplineSet
Validated: 1
EndChar

StartChar: dagger
Encoding: 8224 8224 143
Width: 1114
GlyphClass: 2
Flags: W
HStem: 0 21G<467 651.258> 1024 160<402 685 899 1182> 1490 20G<783.767 968>
VStem: 467 180<0 180> 788 180<1330 1510>
DStem2: 467 0 647 0 0.207912 0.978148<37.4241 1046.95 1247.94 1543.74>
LayerCount: 2
Fore
SplineSet
467 0 m 1,0,-1
 685 1024 l 1,1,-1
 368 1024 l 1,2,-1
 402 1184 l 1,3,-1
 719 1184 l 1,4,-1
 788 1510 l 1,5,-1
 968 1510 l 1,6,-1
 899 1184 l 1,7,-1
 1216 1184 l 1,8,-1
 1182 1024 l 1,9,-1
 865 1024 l 1,10,-1
 647 0 l 1,11,-1
 467 0 l 1,0,-1
EndSplineSet
Validated: 1
EndChar

StartChar: daggerdbl
Encoding: 8225 8225 144
Width: 1114
GlyphClass: 2
Flags: W
HStem: 0 21G<467 651.233> 326 160<253 536 750 1033> 1024 160<402 685 899 1182> 1490 20G<783.767 968>
VStem: 467 180<0 180> 788 180<1330 1510>
DStem2: 467 0 647 0 0.207912 0.978148<37.4241 333.222 534.219 1046.95 1247.94 1543.74>
LayerCount: 2
Fore
SplineSet
467 0 m 1,0,-1
 536 326 l 1,1,-1
 219 326 l 1,2,-1
 253 486 l 1,3,-1
 570 486 l 1,4,-1
 685 1024 l 1,5,-1
 368 1024 l 1,6,-1
 402 1184 l 1,7,-1
 719 1184 l 1,8,-1
 788 1510 l 1,9,-1
 968 1510 l 1,10,-1
 899 1184 l 1,11,-1
 1216 1184 l 1,12,-1
 1182 1024 l 1,13,-1
 865 1024 l 1,14,-1
 750 486 l 1,15,-1
 1067 486 l 1,16,-1
 1033 326 l 1,17,-1
 716 326 l 1,18,-1
 647 0 l 1,19,-1
 467 0 l 1,0,-1
EndSplineSet
Validated: 1
EndChar

StartChar: bullet
Encoding: 8226 8226 145
Width: 919
GlyphClass: 2
Flags: W
HStem: 437 625<495.71 741.29>
VStem: 305 627<625.271 873.729>
LayerCount: 2
Fore
SplineSet
669 1062 m 256,0,1
 793 1062 793 1062 872 965 c 0,2,3
 932 893 932 893 932 797 c 0,4,5
 932 774 932 774 928 749 c 0,6,7
 908 609 908 609 796 518 c 0,8,9
 697 437 697 437 568 437 c 0,10,11
 444 437 444 437 365 534 c 0,12,13
 305 606 305 606 305 702 c 0,14,15
 305 725 305 725 309 750 c 0,16,17
 329 890 329 890 441 981 c 0,18,19
 540 1062 540 1062 669 1062 c 256,0,1
EndSplineSet
Validated: 1
EndChar

StartChar: ellipsis
Encoding: 8230 8230 146
Width: 1187
GlyphClass: 2
Flags: W
HStem: -20 265<116.814 287.186 533.814 704.186 947.814 1118.19>
VStem: 73 258<24.0632 200.937> 490 258<24.0632 200.937> 904 258<24.0632 200.937>
LayerCount: 2
Fore
SplineSet
1007 -20 m 0,0,1
 955 -20 955 -20 927 16 c 0,2,3
 904 45 904 45 904 88 c 0,4,5
 904 105 904 105 906 117 c 0,6,7
 914 174 914 174 960 212 c 0,8,9
 1000 245 1000 245 1059 245 c 0,10,11
 1111 245 1111 245 1139 209 c 0,12,13
 1162 180 1162 180 1162 137 c 0,14,15
 1162 120 1162 120 1160 108 c 0,16,17
 1152 51 1152 51 1106 13 c 0,18,19
 1066 -20 1066 -20 1007 -20 c 0,0,1
593 -20 m 0,20,21
 541 -20 541 -20 513 16 c 0,22,23
 490 45 490 45 490 88 c 0,24,25
 490 105 490 105 492 117 c 0,26,27
 500 174 500 174 546 212 c 0,28,29
 586 245 586 245 645 245 c 0,30,31
 697 245 697 245 725 209 c 0,32,33
 748 180 748 180 748 137 c 0,34,35
 748 120 748 120 746 108 c 0,36,37
 738 51 738 51 692 13 c 0,38,39
 652 -20 652 -20 593 -20 c 0,20,21
176 -20 m 0,40,41
 124 -20 124 -20 96 16 c 0,42,43
 73 45 73 45 73 88 c 0,44,45
 73 105 73 105 75 117 c 0,46,47
 83 174 83 174 129 212 c 0,48,49
 169 245 169 245 228 245 c 0,50,51
 280 245 280 245 308 209 c 0,52,53
 331 180 331 180 331 137 c 0,54,55
 331 120 331 120 329 108 c 0,56,57
 321 51 321 51 275 13 c 0,58,59
 235 -20 235 -20 176 -20 c 0,40,41
EndSplineSet
Validated: 1
EndChar

StartChar: perthousand
Encoding: 8240 8240 147
Width: 2254
GlyphClass: 2
Flags: W
HStem: -20 157<1030.3 1237.45 1728.3 1935.45> 448 157<1075.44 1285.23 1773.44 1983.23> 905 157<590.3 797.453> 1373 157<635.444 845.23>
VStem: 405 158<1109.03 1300.3> 845 158<184.033 375.297> 870 162<1135.3 1326.97> 1310 162<210.299 401.967> 1543 158<184.033 375.297> 2008 162<210.299 401.967>
DStem2: 173 100 310 -20 0.697799 0.716294<9.64322 1997.73>
LayerCount: 2
Fore
SplineSet
1806 -20 m 0,0,1
 1682 -20 1682 -20 1603 77 c 0,2,3
 1543 149 1543 149 1543 245 c 0,4,5
 1543 268 1543 268 1547 293 c 0,6,7
 1567 433 1567 433 1679 524 c 0,8,9
 1778 605 1778 605 1907 605 c 256,10,11
 2031 605 2031 605 2110 508 c 0,12,13
 2170 436 2170 436 2170 340 c 0,14,15
 2170 317 2170 317 2166 292 c 0,16,17
 2146 152 2146 152 2034 61 c 0,18,19
 1935 -20 1935 -20 1806 -20 c 0,0,1
1822 137 m 256,20,21
 1884 137 1884 137 1938 183 c 0,22,23
 1990 229 1990 229 2004 293 c 0,24,25
 2008 311 2008 311 2008 328 c 0,26,27
 2008 370 2008 370 1984 403 c 0,28,29
 1950 448 1950 448 1889 448 c 0,30,31
 1824 448 1824 448 1772 403 c 0,32,33
 1718 356 1718 356 1705 293 c 0,34,35
 1701 275 1701 275 1701 258 c 0,36,37
 1701 216 1701 216 1726 183 c 0,38,39
 1762 137 1762 137 1822 137 c 256,20,21
1108 -20 m 0,40,41
 984 -20 984 -20 905 77 c 0,42,43
 845 149 845 149 845 245 c 0,44,45
 845 268 845 268 849 293 c 0,46,47
 869 433 869 433 981 524 c 0,48,49
 1080 605 1080 605 1209 605 c 256,50,51
 1333 605 1333 605 1412 508 c 0,52,53
 1472 436 1472 436 1472 340 c 0,54,55
 1472 317 1472 317 1468 292 c 0,56,57
 1448 152 1448 152 1336 61 c 0,58,59
 1237 -20 1237 -20 1108 -20 c 0,40,41
1124 137 m 256,60,61
 1186 137 1186 137 1240 183 c 0,62,63
 1292 229 1292 229 1306 293 c 0,64,65
 1310 311 1310 311 1310 328 c 0,66,67
 1310 370 1310 370 1286 403 c 0,68,69
 1252 448 1252 448 1191 448 c 0,70,71
 1126 448 1126 448 1074 403 c 0,72,73
 1020 356 1020 356 1007 293 c 0,74,75
 1003 275 1003 275 1003 258 c 0,76,77
 1003 216 1003 216 1028 183 c 0,78,79
 1064 137 1064 137 1124 137 c 256,60,61
769 1530 m 256,80,81
 893 1530 893 1530 972 1433 c 0,82,83
 1032 1361 1032 1361 1032 1265 c 0,84,85
 1032 1242 1032 1242 1028 1217 c 0,86,87
 1008 1077 1008 1077 896 986 c 0,88,89
 797 905 797 905 668 905 c 0,90,91
 544 905 544 905 465 1002 c 0,92,93
 405 1074 405 1074 405 1170 c 0,94,95
 405 1193 405 1193 409 1218 c 0,96,97
 429 1358 429 1358 541 1449 c 0,98,99
 640 1530 640 1530 769 1530 c 256,80,81
751 1373 m 0,100,101
 686 1373 686 1373 634 1328 c 0,102,103
 580 1281 580 1281 567 1218 c 0,104,105
 563 1200 563 1200 563 1183 c 0,106,107
 563 1141 563 1141 588 1108 c 0,108,109
 624 1062 624 1062 684 1062 c 256,110,111
 746 1062 746 1062 800 1108 c 0,112,113
 852 1154 852 1154 866 1218 c 0,114,115
 870 1236 870 1236 870 1253 c 0,116,117
 870 1295 870 1295 846 1328 c 0,118,119
 812 1373 812 1373 751 1373 c 0,100,101
173 100 m 1,120,-1
 1568 1530 l 1,121,-1
 1706 1413 l 1,122,-1
 310 -20 l 1,123,-1
 173 100 l 1,120,-1
EndSplineSet
Validated: 1
EndChar

StartChar: minute
Encoding: 8242 8242 148
Width: 421
GlyphClass: 2
Flags: W
HStem: 1011 519
VStem: 278 405
DStem2: 278 1074 427 1011 0.48872 0.872441<17.8554 522.945>
LayerCount: 2
Fore
SplineSet
534 1530 m 1,0,-1
 683 1468 l 1,1,-1
 427 1011 l 1,2,-1
 278 1074 l 1,3,-1
 534 1530 l 1,0,-1
EndSplineSet
Validated: 1
EndChar

StartChar: second
Encoding: 8243 8243 149
Width: 745
GlyphClass: 2
Flags: W
HStem: 1011 519
DStem2: 278 1074 427 1011 0.48872 0.872441<17.8554 522.945> 602 1074 751 1011 0.48872 0.872441<17.8554 522.945>
LayerCount: 2
Fore
SplineSet
858 1530 m 1,0,-1
 1007 1468 l 1,1,-1
 751 1011 l 1,2,-1
 602 1074 l 1,3,-1
 858 1530 l 1,0,-1
534 1530 m 1,4,-1
 683 1468 l 1,5,-1
 427 1011 l 1,6,-1
 278 1074 l 1,7,-1
 534 1530 l 1,4,-1
EndSplineSet
Validated: 1
EndChar

StartChar: guilsinglleft
Encoding: 8249 8249 150
Width: 850
GlyphClass: 2
Flags: W
VStem: 309 627
DStem2: 531 726 309 747 0.531098 -0.847311<0 425.907> 309 747 531 726 0.724645 0.689123<146.4 703.793>
LayerCount: 2
Fore
SplineSet
819 1232 m 1,0,-1
 936 1112 l 1,1,-1
 531 726 l 1,2,-1
 757 365 l 1,3,-1
 613 262 l 1,4,-1
 309 747 l 1,5,-1
 819 1232 l 1,0,-1
EndSplineSet
Validated: 1
EndChar

StartChar: guilsinglright
Encoding: 8250 8250 151
Width: 849
GlyphClass: 2
Flags: W
VStem: 231 627
DStem2: 231 382 348 262 0.724645 0.689123<2.08868 559.482> 554 1232 410 1129 0.531098 -0.847311<10.7949 436.702>
LayerCount: 2
Fore
SplineSet
554 1232 m 1,0,-1
 858 747 l 1,1,-1
 348 262 l 1,2,-1
 231 382 l 1,3,-1
 636 768 l 1,4,-1
 410 1129 l 1,5,-1
 554 1232 l 1,0,-1
EndSplineSet
Validated: 1
EndChar

StartChar: fraction
Encoding: 8260 8260 152
Width: 1015
GlyphClass: 2
Flags: W
DStem2: -13 -107 121 -180 0.563992 0.82578<15.293 2175.95>
LayerCount: 2
Fore
SplineSet
-13 -107 m 1,0,-1
 1214 1690 l 1,1,-1
 1349 1618 l 1,2,-1
 121 -180 l 1,3,-1
 -13 -107 l 1,0,-1
EndSplineSet
Validated: 1
EndChar

StartChar: Euro
Encoding: 8364 8364 153
Width: 1631
GlyphClass: 2
Flags: W
HStem: -20 180<766.86 1181.22> 596 104<249 348 550 1059> 810 104<294 370 609 1104> 1350 180<998.297 1415.92>
VStem: 348 194<387.204 596 700.844 809.156>
LayerCount: 2
Fore
SplineSet
945 -20 m 0,0,1
 625 -20 625 -20 455 224 c 0,2,3
 349 376 349 376 348 596 c 1,4,-1
 227 596 l 1,5,-1
 249 700 l 1,6,-1
 353 700 l 1,7,8
 356 727 356 727 360 755 c 128,-1,9
 364 783 364 783 370 810 c 1,10,-1
 272 810 l 1,11,-1
 294 914 l 1,12,-1
 396 914 l 1,13,14
 471 1147 471 1147 657 1312 c 0,15,16
 903 1530 903 1530 1235 1530 c 0,17,18
 1548 1530 1548 1530 1725 1286 c 1,19,-1
 1562 1176 l 1,20,21
 1440 1350 1440 1350 1216 1350 c 0,22,23
 991 1350 991 1350 796 1176 c 0,24,25
 674 1067 674 1067 609 914 c 1,26,-1
 1126 914 l 1,27,-1
 1104 810 l 1,28,-1
 573 810 l 1,29,30
 566 783 566 783 560 755 c 128,-1,31
 554 727 554 727 550 700 c 1,32,-1
 1081 700 l 1,33,-1
 1059 596 l 1,34,-1
 542 596 l 17,35,36
 542 442 542 442 618 334 c 0,37,38
 740 160 740 160 964 160 c 128,-1,39
 1188 160 1188 160 1384 334 c 1,40,-1
 1523 198 l 1,41,42
 1276 -20 1276 -20 945 -20 c 0,0,1
EndSplineSet
Validated: 1
EndChar

StartChar: afii61248
Encoding: 8453 8453 154
Width: 2109
GlyphClass: 2
Flags: W
HStem: -20 144<1450.17 1741.51> 630 145<1536.93 1830.35> 734 144<598.173 889.51> 1384 145<684.935 978.347>
VStem: 385 151<940.755 1229.27> 1237 151<186.755 475.266> 1892 152<281.116 568.245>
DStem2: 427 100 564 -20 0.697799 0.716294<9.64322 1997.73>
LayerCount: 2
Fore
SplineSet
1028 846 m 1,0,1
 893 734 893 734 719 734 c 0,2,3
 553 734 553 734 456 852 c 0,4,5
 385 938 385 938 385 1061 c 0,6,7
 385 1095 385 1095 390 1131 c 0,8,9
 415 1306 415 1306 549 1417 c 0,10,11
 684 1529 684 1529 858 1529 c 0,12,13
 1024 1529 1024 1529 1121 1411 c 1,14,15
 1002 1315 l 1,16,17
 953 1384 953 1384 842 1384 c 0,18,19
 732 1384 732 1384 652 1315 c 0,20,21
 566 1242 566 1242 543 1131 c 0,22,23
 536 1099 536 1099 536 1070 c 0,24,25
 536 1001 536 1001 574 948 c 0,26,27
 623 878 623 878 735 878 c 0,28,29
 846 878 846 878 924 948 c 1,30,31
 1028 846 l 1,0,1
1571 -20 m 0,32,33
 1405 -20 1405 -20 1308 98 c 0,34,35
 1237 184 1237 184 1237 307 c 0,36,37
 1237 341 1237 341 1242 377 c 0,38,39
 1267 552 1267 552 1401 663 c 0,40,41
 1536 775 1536 775 1710 775 c 0,42,43
 1876 775 1876 775 1973 657 c 0,44,45
 2044 571 2044 571 2044 448 c 0,46,47
 2044 414 2044 414 2039 378 c 0,48,49
 2014 205 2014 205 1880 92 c 0,50,51
 1745 -20 1745 -20 1571 -20 c 0,32,33
1587 124 m 0,52,53
 1698 124 1698 124 1776 194 c 0,54,55
 1862 271 1862 271 1885 377 c 0,56,57
 1892 410 1892 410 1892 439 c 0,58,59
 1892 508 1892 508 1854 561 c 0,60,61
 1805 630 1805 630 1694 630 c 0,62,63
 1584 630 1584 630 1504 561 c 0,64,65
 1418 488 1418 488 1395 377 c 0,66,67
 1388 345 1388 345 1388 316 c 0,68,69
 1388 247 1388 247 1426 194 c 0,70,71
 1475 124 1475 124 1587 124 c 0,52,53
427 100 m 1,72,-1
 1822 1530 l 1,73,-1
 1960 1413 l 1,74,-1
 564 -20 l 1,75,-1
 427 100 l 1,72,-1
EndSplineSet
Validated: 1
EndChar

StartChar: afii61289
Encoding: 8467 8467 155
Width: 958
GlyphClass: 2
Flags: W
HStem: -20 136<493.285 605.003> 0 21G<50 267.222> 1500 20G<950 1017>
LayerCount: 2
Fore
SplineSet
486 466 m 1,0,1
 648 708 648 708 737 860 c 0,2,3
 896 1134 896 1134 944 1359 c 1,4,5
 856 1266 856 1266 707 1004 c 0,6,7
 537 704 537 704 486 466 c 1,0,1
498 -20 m 0,8,9
 378 -20 378 -20 324 90 c 1,10,-1
 251 0 l 1,11,-1
 50 0 l 1,12,13
 192 144 192 144 304 292 c 1,14,15
 304 343 304 343 326 443 c 0,16,17
 360 596 360 596 417 732 c 0,18,19
 634 1246 634 1246 822 1434 c 0,20,21
 908 1520 908 1520 992 1520 c 0,22,23
 1042 1520 1042 1520 1075 1488 c 0,24,25
 1099 1465 1099 1465 1099 1409 c 0,26,27
 1099 1371 1099 1371 1088 1318 c 0,28,29
 1066 1219 1066 1219 1006 1072 c 0,30,31
 862 722 862 722 480 271 c 1,32,33
 480 116 480 116 536 116 c 0,34,35
 555 116 555 116 583 140 c 0,36,37
 621 172 621 172 664 228 c 1,38,-1
 840 228 l 1,39,40
 736 100 736 100 659 40 c 128,-1,41
 582 -20 582 -20 498 -20 c 0,8,9
EndSplineSet
Validated: 1
EndChar

StartChar: trademark
Encoding: 8482 8482 156
Width: 1954
GlyphClass: 2
Flags: W
HStem: 1360 150<471 684 833.938 1063 1303.71 1815.76>
VStem: 544 153<688 841> 976 159<813.627 1184.69> 1345 160<689 849> 1472 160<1124 1284> 1883 159<980 1291.57>
DStem2: 544 688 697 688 0.207912 0.978148<31.8105 733.802> 1344.79 688 1504.79 688 0.207912 0.978148<34.2882 609.425>
LayerCount: 2
Fore
SplineSet
1276 689 m 1,0,1
 1090 689 l 1,2,3
 1033 752 1033 752 1009 811 c 0,4,5
 976 895 976 895 976 988 c 0,6,7
 976 1034 976 1034 984 1082 c 0,8,9
 1013 1259 1013 1259 1143 1375 c 0,10,11
 1296 1510 1296 1510 1460 1510 c 2,12,-1
 1720 1510 l 2,13,14
 1884 1510 1884 1510 1979 1375 c 0,15,16
 2042 1286 2042 1286 2042 1168 c 0,17,18
 2042 1127 2042 1127 2034 1082 c 0,19,20
 2009 936 2009 936 1903 811 c 0,21,22
 1850 748 1850 748 1770 689 c 1,23,-1
 1574 689 l 1,24,25
 1700 773 1700 773 1776 876 c 128,-1,26
 1852 979 1852 979 1875 1086 c 0,27,28
 1883 1126 1883 1126 1883 1161 c 0,29,30
 1883 1230 1883 1230 1850 1277 c 0,31,32
 1792 1360 1792 1360 1698 1360 c 2,33,-1
 1438 1360 l 2,34,35
 1344 1360 1344 1360 1250 1277 c 0,36,37
 1170 1206 1170 1206 1145 1086 c 0,38,39
 1135 1041 1135 1041 1135 997 c 0,40,41
 1135 936 1135 936 1154 876 c 0,42,43
 1186 773 1186 773 1276 689 c 1,0,1
1505 689 m 1,44,-1
 1345 689 l 1,45,-1
 1472 1284 l 1,46,-1
 1632 1284 l 1,47,-1
 1505 689 l 1,44,-1
471 1510 m 1,48,-1
 714 1510 l 1,49,-1
 684 1367 l 1,50,-1
 441 1367 l 1,51,-1
 471 1510 l 1,48,-1
544 688 m 1,52,-1
 677 1311 l 2,53,54
 719 1510 719 1510 928 1510 c 2,55,-1
 1093 1510 l 1,56,-1
 1063 1367 l 1,57,-1
 898 1367 l 2,58,59
 842 1367 842 1367 830 1311 c 2,60,-1
 697 688 l 1,61,-1
 544 688 l 1,52,-1
EndSplineSet
Validated: 1
EndChar

StartChar: uni2126
Encoding: 8486 8486 157
Width: 1806
GlyphClass: 2
Flags: W
HStem: 0 180<88 528 1355 1756> 1350 180<971.781 1388.71>
VStem: 321 194<387.734 848.485> 1611 194<658.221 1121.45>
LayerCount: 2
Fore
SplineSet
50 0 m 1,0,-1
 88 180 l 1,1,-1
 528 180 l 1,2,3
 321 334 321 334 321 599 c 0,4,5
 321 675 321 675 333 755 c 0,6,7
 383 1094 383 1094 630 1312 c 128,-1,8
 877 1530 877 1530 1208 1530 c 0,9,10
 1520 1530 1520 1530 1698 1286 c 0,11,12
 1805 1139 1805 1139 1805 916 c 0,13,14
 1805 841 1805 841 1793 755 c 0,15,16
 1743 394 1743 394 1355 180 c 1,17,-1
 1794 180 l 1,18,-1
 1756 0 l 1,19,-1
 1074 0 l 1,20,-1
 1115 194 l 1,21,22
 1261 250 1261 250 1357 334 c 0,23,24
 1537 492 1537 492 1593 755 c 0,25,26
 1611 841 1611 841 1611 915 c 0,27,28
 1611 1068 1611 1068 1535 1176 c 0,29,30
 1413 1350 1413 1350 1189 1350 c 128,-1,31
 965 1350 965 1350 769 1176 c 0,32,33
 588 1015 588 1015 533 755 c 0,34,35
 515 669 515 669 515 595 c 0,36,37
 515 442 515 442 591 334 c 0,38,39
 646 255 646 255 775 194 c 1,40,-1
 733 0 l 1,41,-1
 50 0 l 1,0,-1
EndSplineSet
Validated: 1
EndChar

StartChar: estimated
Encoding: 8494 8494 158
Width: 1258
GlyphClass: 2
Flags: W
HStem: 0 73<474.72 827.898> 565 74<467 1063> 1057 73<671.387 1017.88>
VStem: 204 1088<418 715>
LayerCount: 2
Fore
SplineSet
1155 276 m 1,0,1
 998 103 998 103 875 51.5 c 128,-1,2
 752 0 752 0 629 0 c 0,3,4
 392 0 392 0 280 160 c 0,5,6
 204 269 204 269 204 418 c 0,7,8
 204 487 204 487 220 565 c 0,9,10
 273 812 273 812 453.5 971 c 128,-1,11
 634 1130 634 1130 869 1130 c 0,12,13
 1083 1130 1083 1130 1205 988 c 0,14,15
 1292 887 1292 887 1292 715 c 0,16,17
 1292 646 1292 646 1278 565 c 1,18,-1
 451 565 l 1,19,-1
 372 194 l 1,20,21
 466 73 466 73 645 73 c 0,22,23
 899 73 899 73 1092 319 c 1,24,-1
 1155 276 l 1,0,1
1063 639 m 1,25,-1
 1126 936 l 1,26,27
 1024 1057 1024 1057 852 1057 c 0,28,29
 677 1057 677 1057 530 935 c 1,30,-1
 467 639 l 1,31,-1
 1063 639 l 1,25,-1
EndSplineSet
Validated: 1
EndChar

StartChar: partialdiff
Encoding: 8706 8706 159
Width: 1285
GlyphClass: 2
Flags: W
HStem: -20 153<422.495 663.286> 870 140<720.166 998.914> 1325 152<777.431 1136.65>
VStem: 214 189<150.651 474.232> 1181 177<870.413 1281.76>
LayerCount: 2
Fore
SplineSet
508 -20 m 0,0,1
 214 -20 214 -20 214 240 c 0,2,3
 214 300 214 300 230 375 c 0,4,5
 283 624 283 624 462 817 c 128,-1,6
 641 1010 641 1010 885 1010 c 0,7,8
 1069 1010 1069 1010 1136 862 c 1,9,10
 1181 1021 1181 1021 1181 1132 c 0,11,12
 1181 1172 1181 1172 1175 1206 c 0,13,14
 1153 1325 1153 1325 1017 1325 c 0,15,16
 853 1325 853 1325 684 1241 c 1,17,-1
 721 1415 l 1,18,19
 868 1477 868 1477 1017 1477 c 0,20,21
 1358 1477 1358 1477 1358 1138 c 0,22,23
 1358 1048 1358 1048 1334 934 c 0,24,25
 1251 545 1251 545 1022.5 262.5 c 128,-1,26
 794 -20 794 -20 508 -20 c 0,0,1
1065 680 m 1,27,28
 1061 765 1061 765 1008.5 817.5 c 128,-1,29
 956 870 956 870 880 870 c 0,30,31
 720 870 720 870 587.5 710 c 128,-1,32
 455 550 455 550 416 369 c 0,33,34
 403 308 403 308 403 262 c 0,35,36
 403 133 403 133 508 133 c 0,37,38
 646 133 646 133 811 286 c 128,-1,39
 976 439 976 439 1065 680 c 1,27,28
EndSplineSet
Validated: 1
EndChar

StartChar: uni2206
Encoding: 8710 8710 160
Width: 1626
GlyphClass: 2
Flags: W
HStem: 0 180<352 1370> 1490 20G<1015.44 1244.06>
DStem2: 5 0 352 180 0.56126 0.827639<343.732 1669.76> 1239 1510 1094 1279 0.245254 -0.969459<188.383 1321.51>
LayerCount: 2
Fore
SplineSet
5 0 m 1,0,-1
 1029 1510 l 1,1,-1
 1239 1510 l 1,2,-1
 1621 0 l 1,3,-1
 5 0 l 1,0,-1
352 180 m 1,4,-1
 1370 180 l 1,5,-1
 1094 1279 l 1,6,-1
 352 180 l 1,4,-1
EndSplineSet
Validated: 1
EndChar

StartChar: product
Encoding: 8719 8719 161
Width: 1549
GlyphClass: 2
Flags: W
HStem: 1330 180<683 1432>
VStem: 113 200<-410 -210> 521 1149<361 1510> 1062 200<-410 -210>
DStem2: 113 -410 313 -410 0.207912 0.978148<41.5823 1820.49> 1062 -410 1262 -410 0.207912 0.978148<41.5823 1778.9>
LayerCount: 2
Fore
SplineSet
113 -410 m 1,0,-1
 521 1510 l 1,1,-1
 1670 1510 l 1,2,-1
 1262 -410 l 1,3,-1
 1062 -410 l 1,4,-1
 1432 1330 l 1,5,-1
 683 1330 l 1,6,-1
 313 -410 l 1,7,-1
 113 -410 l 1,0,-1
EndSplineSet
Validated: 1
EndChar

StartChar: summation
Encoding: 8721 8721 162
Width: 1324
GlyphClass: 2
Flags: W
HStem: -410 180<405 1087> 1330 180<679 1366>
DStem2: 51 -410 405 -230 0.553706 0.832712<345.9 1161.27> 679 1330 421 1510 0.275387 -0.961333<0 747.242>
LayerCount: 2
Fore
SplineSet
51 -410 m 1,0,-1
 694 557 l 1,1,-1
 421 1510 l 1,2,-1
 1404 1510 l 1,3,-1
 1366 1330 l 1,4,-1
 679 1330 l 1,5,-1
 917 520 l 1,6,-1
 405 -230 l 5,7,-1
 1125 -230 l 1,8,-1
 1087 -410 l 1,9,-1
 51 -410 l 1,0,-1
EndSplineSet
Validated: 1
EndChar

StartChar: minus
Encoding: 8722 8722 163
Width: 1133
GlyphClass: 2
Flags: W
HStem: 655 180<327 1122>
LayerCount: 2
Fore
SplineSet
327 835 m 1,0,-1
 1160 835 l 1,1,-1
 1122 655 l 1,2,-1
 289 655 l 1,3,-1
 327 835 l 1,0,-1
EndSplineSet
Validated: 1
EndChar

StartChar: uni2215
Encoding: 8725 8725 164
Width: 1015
GlyphClass: 2
Flags: W
DStem2: -13 -107 121 -180 0.563992 0.82578<15.293 2175.95>
LayerCount: 2
Fore
SplineSet
-13 -107 m 1,0,-1
 1214 1690 l 1,1,-1
 1349 1618 l 1,2,-1
 121 -180 l 1,3,-1
 -13 -107 l 1,0,-1
EndSplineSet
Validated: 1
EndChar

StartChar: uni2219
Encoding: 8729 8729 165
Width: 356
GlyphClass: 2
Flags: W
HStem: 621 265<252.814 423.186>
VStem: 209 258<665.063 841.937>
LayerCount: 2
Fore
SplineSet
364 886 m 0,0,1
 416 886 416 886 444 850 c 0,2,3
 467 821 467 821 467 778 c 0,4,5
 467 761 467 761 465 749 c 0,6,7
 457 692 457 692 411 654 c 0,8,9
 371 621 371 621 312 621 c 0,10,11
 260 621 260 621 232 657 c 0,12,13
 209 686 209 686 209 729 c 0,14,15
 209 746 209 746 211 758 c 0,16,17
 219 815 219 815 265 853 c 0,18,19
 305 886 305 886 364 886 c 0,0,1
EndSplineSet
Validated: 1
EndChar

StartChar: radical
Encoding: 8730 8730 166
Width: 1367
GlyphClass: 2
Flags: W
HStem: 0 21G<476.596 639.658> 1350 160<1426.48 1604>
VStem: 268 195<597 792>
DStem2: 463 792 268 792 0.260848 -0.96538<0 507.99> 597 302 628 0 0.503596 0.86394<0 1305>
LayerCount: 2
Fore
SplineSet
482 0 m 1,0,-1
 268 792 l 1,1,-1
 463 792 l 1,2,-1
 597 302 l 1,3,-1
 1101 1170 l 2,4,5
 1298 1510 1298 1510 1562 1510 c 2,6,-1
 1638 1510 l 1,7,-1
 1604 1350 l 1,8,-1
 1562 1350 l 2,9,10
 1415 1350 1415 1350 1310 1170 c 2,11,-1
 628 0 l 1,12,-1
 482 0 l 1,0,-1
EndSplineSet
Validated: 1
EndChar

StartChar: infinity
Encoding: 8734 8734 167
Width: 1714
GlyphClass: 2
Flags: W
HStem: 434 200<550.673 775.493 1185.08 1444.61> 1050 200<627.388 889.664 1296.51 1521.33>
VStem: 324 189<670.987 933.571> 950 172<699.369 986.533> 1559 189<750.429 1013.01>
CounterMasks: 1 38
LayerCount: 2
Fore
SplineSet
793 1250 m 0,0,1
 930 1250 930 1250 1026 1152.5 c 128,-1,2
 1122 1055 1122 1055 1122 890 c 0,3,4
 1122 752 1122 752 1170 693 c 128,-1,5
 1218 634 1218 634 1308 634 c 0,6,7
 1407 634 1407 634 1481 708 c 0,8,9
 1535 762 1535 762 1552 844 c 0,10,11
 1559 875 1559 875 1559 902 c 0,12,13
 1559 946 1559 946 1541 978 c 0,14,15
 1499 1054 1499 1054 1413 1054 c 0,16,17
 1305 1054 1305 1054 1206 966 c 1,18,-1
 1251 1174 l 1,19,20
 1345 1250 1345 1250 1446 1250 c 0,21,22
 1594 1250 1594 1250 1684 1122 c 0,23,24
 1748 1031 1748 1031 1748 911 c 0,25,26
 1748 878 1748 878 1743 844 c 0,27,28
 1720 678 1720 678 1596 561 c 0,29,30
 1461 434 1461 434 1279 434 c 0,31,32
 1142 434 1142 434 1046 532.5 c 128,-1,33
 950 631 950 631 950 796 c 0,34,35
 950 934 950 934 902 992 c 128,-1,36
 854 1050 854 1050 764 1050 c 0,37,38
 665 1050 665 1050 591 976 c 0,39,40
 537 922 537 922 520 840 c 0,41,42
 513 809 513 809 513 782 c 0,43,44
 513 738 513 738 531 706 c 0,45,46
 573 630 573 630 659 630 c 0,47,48
 767 630 767 630 866 718 c 1,49,-1
 821 510 l 1,50,51
 727 434 727 434 626 434 c 0,52,53
 478 434 478 434 388 562 c 0,54,55
 324 653 324 653 324 773 c 0,56,57
 324 806 324 806 329 840 c 0,58,59
 352 1006 352 1006 476 1123 c 0,60,61
 611 1250 611 1250 793 1250 c 0,0,1
EndSplineSet
Validated: 1
EndChar

StartChar: approxequal
Encoding: 8776 8776 168
Width: 1308
GlyphClass: 2
Flags: W
HStem: 338 189<874.483 1056.3> 573 189<487.473 668.729> 743 189<955.483 1137.3> 978 189<568.473 749.729>
DStem2: 781 680 663 537 0.649721 -0.760173<-43.1596 229.11> 862 1085 744 942 0.649721 -0.760173<-43.1596 229.11>
LayerCount: 2
Fore
SplineSet
253 462 m 1,0,1
 421 762 421 762 606 762 c 0,2,3
 711 762 711 762 781 680 c 2,4,-1
 881 563 l 2,5,6
 912 527 912 527 956 527 c 0,7,8
 1063 527 1063 527 1176 721 c 1,9,-1
 1294 638 l 1,10,11
 1126 338 1126 338 941 338 c 0,12,13
 833 338 833 338 763 420 c 2,14,-1
 663 537 l 2,15,16
 632 573 632 573 588 573 c 0,17,18
 484 573 484 573 371 379 c 1,19,-1
 253 462 l 1,0,1
334 867 m 1,20,21
 502 1167 502 1167 687 1167 c 0,22,23
 792 1167 792 1167 862 1085 c 2,24,-1
 962 968 l 2,25,26
 993 932 993 932 1037 932 c 0,27,28
 1144 932 1144 932 1257 1126 c 1,29,-1
 1375 1043 l 1,30,31
 1207 743 1207 743 1022 743 c 0,32,33
 914 743 914 743 844 825 c 2,34,-1
 744 942 l 2,35,36
 713 978 713 978 669 978 c 0,37,38
 565 978 565 978 452 784 c 1,39,-1
 334 867 l 1,20,21
EndSplineSet
Validated: 1
EndChar

StartChar: notequal
Encoding: 8800 8800 169
Width: 1133
GlyphClass: 2
Flags: W
HStem: 0 21G<220.609 272.761> 481 180<290 433 746 1085> 829 180<364 691 1004 1159> 1491 20G<1180.18 1234.1>
DStem2: 129 69 258 0 0.594642 0.803991<21.2334 512.015 842.856 945.222 1276.06 1793.24>
LayerCount: 2
Fore
SplineSet
258 0 m 1,0,-1
 129 69 l 1,1,-1
 433 481 l 1,2,-1
 252 481 l 1,3,-1
 290 661 l 1,4,-1
 566 661 l 1,5,-1
 691 829 l 1,6,-1
 326 829 l 1,7,-1
 364 1009 l 1,8,-1
 823 1009 l 1,9,-1
 1195 1511 l 1,10,-1
 1326 1444 l 1,11,-1
 1004 1009 l 1,12,-1
 1197 1009 l 1,13,-1
 1159 829 l 1,14,-1
 871 829 l 1,15,-1
 746 661 l 1,16,-1
 1124 661 l 1,17,-1
 1085 481 l 1,18,-1
 613 481 l 1,19,-1
 258 0 l 1,0,-1
EndSplineSet
Validated: 1
EndChar

StartChar: lessequal
Encoding: 8804 8804 170
Width: 1183
GlyphClass: 2
Flags: W
HStem: 144 180<219 1014>
DStem2: 541 858 317 787 0.833853 -0.551987<0 618.73> 355 967 541 858 0.881171 0.472797<112.363 884.002>
LayerCount: 2
Fore
SplineSet
1162 1400 m 1,0,-1
 1223 1219 l 1,1,-1
 541 858 l 1,2,-1
 1068 531 l 1,3,-1
 956 364 l 1,4,-1
 317 787 l 1,5,-1
 355 967 l 1,6,-1
 1162 1400 l 1,0,-1
219 324 m 1,7,-1
 1052 324 l 1,8,-1
 1014 144 l 1,9,-1
 181 144 l 1,10,-1
 219 324 l 1,7,-1
EndSplineSet
Validated: 1
EndChar

StartChar: greaterequal
Encoding: 8805 8805 171
Width: 1183
GlyphClass: 2
Flags: W
HStem: 144 180<269 1064>
DStem2: 333 535 394 354 0.881171 0.472797<0 771.639> 600 1390 488 1223 0.833853 -0.551987<0 618.73>
LayerCount: 2
Fore
SplineSet
600 1390 m 1,0,-1
 1239 967 l 1,1,-1
 1201 787 l 1,2,-1
 394 354 l 1,3,-1
 333 535 l 1,4,-1
 1015 896 l 1,5,-1
 488 1223 l 1,6,-1
 600 1390 l 1,0,-1
1064 144 m 1,7,-1
 231 144 l 1,8,-1
 269 324 l 1,9,-1
 1102 324 l 1,10,-1
 1064 144 l 1,7,-1
EndSplineSet
Validated: 1
EndChar

StartChar: lozenge
Encoding: 9674 9674 172
Width: 1174
GlyphClass: 2
Flags: W
HStem: 0 21G<578.599 603.869> 1495 20G<892.732 916.829>
DStem2: 277 738 464 724 0.631006 0.775778<107.137 718.569> 464 724 277 738 0.387275 -0.921964<0 455.238> 642 305 587 0 0.644739 0.764403<0 594.572> 909 1515 849 1199 0.364535 -0.93119<272.384 739.787>
LayerCount: 2
Fore
SplineSet
642 305 m 1,0,-1
 1020 764 l 1,1,-1
 849 1199 l 1,2,-1
 464 724 l 1,3,-1
 642 305 l 1,0,-1
587 0 m 1,4,-1
 277 738 l 1,5,-1
 909 1515 l 1,6,-1
 1212 741 l 1,7,-1
 587 0 l 1,4,-1
EndSplineSet
Validated: 1
EndChar

StartChar: Wgrave
Encoding: 7808 7808 173
Width: 2180
Flags: W
HStem: -20 180<658.295 993.077 1324 1548.43> 1490 20G<662 980 1306.75 1511 1842 2124>
VStem: 249 199<386.927 896.222> 1311 200<1310 1510> 2069 195<693.973 1263.42>
DStem2: 985.731 -20 1185.73 -20 0.207912 0.978148<215.586 1564.19> 1314 1909 1197 1804 0.669666 -0.742663<0 314.413>
LayerCount: 2
Fore
SplineSet
1286 -20 m 1,0,1
 1324 160 l 1,2,3
 1555 160 1555 160 1774 334 c 0,4,5
 1986 502 1986 502 2040 755 c 0,6,7
 2069 889 2069 889 2069 1006 c 0,8,9
 2069 1093 2069 1093 2053 1170 c 0,10,11
 2010 1377 2010 1377 1842 1510 c 1,12,-1
 2080 1510 l 1,13,14
 2168 1420 2168 1420 2211 1293 c 0,15,16
 2264 1138 2264 1138 2264 976 c 0,17,18
 2264 867 2264 867 2240 755 c 0,19,20
 2171 429 2171 429 1917 216 c 0,21,22
 1635 -20 1635 -20 1286 -20 c 1,0,1
846 -20 m 24,23,24
 518 -20 518 -20 365 216 c 0,25,26
 249 396 249 396 249 614 c 0,27,28
 249 683 249 683 260 755 c 0,29,30
 309 1066 309 1066 498 1294 c 0,31,32
 598 1415 598 1415 726 1510 c 1,33,-1
 980 1510 l 1,34,35
 769 1385 769 1385 625 1170 c 0,36,37
 494 975 494 975 460 755 c 0,38,39
 448 680 448 680 448 612 c 0,40,41
 448 449 448 449 518 334 c 0,42,43
 626 160 626 160 864 160 c 24,44,45
 1024 160 1024 160 1058 320 c 2,46,-1
 1311 1510 l 1,47,-1
 1511 1510 l 1,48,-1
 1258 320 l 2,49,50
 1186 -20 1186 -20 846 -20 c 24,23,24
1314 1909 m 1,51,-1
 1524 1675 l 1,52,-1
 1408 1570 l 1,53,-1
 1197 1804 l 1,54,-1
 1314 1909 l 1,51,-1
EndSplineSet
Validated: 1
EndChar

StartChar: wgrave
Encoding: 7809 7809 174
Width: 1816
Flags: W
HStem: -20 160<528.587 818.625 1148 1359.76> 1080 20G<532.5 804 1047.74 1232 1480 1728.5> 1499 20G<1006.9 1046.95>
VStem: 205 179<275.851 655.39> 583 221<879 1100> 1052 180<920 1100> 1480 211<889 1100> 1668 174<454.253 890.219>
DStem2: 813.731 -20 993.731 -20 0.207912 0.978148<195.25 1145.06> 1029 1519 913 1414 0.66791 -0.744242<0.66791 314.414>
LayerCount: 2
Fore
SplineSet
1114 -20 m 9,0,-1
 1148 140 l 17,1,2
 1332 140 1332 140 1479 255 c 0,3,4
 1612 359 1612 359 1653 550 c 0,5,6
 1668 619 1668 619 1668 683 c 0,7,8
 1668 775 1668 775 1638 856 c 0,9,10
 1595 975 1595 975 1480 1100 c 1,11,-1
 1691 1100 l 1,12,13
 1766 1020 1766 1020 1806 901 c 0,14,15
 1842 793 1842 793 1842 674 c 0,16,17
 1842 614 1842 614 1833 550 c 0,18,19
 1793 284 1793 284 1576 120 c 0,20,21
 1389 -20 1389 -20 1114 -20 c 9,0,-1
1232 1100 m 1,22,-1
 1066 320 l 2,23,24
 994 -20 994 -20 674 -20 c 24,25,26
 449 -20 449 -20 322 120 c 0,27,28
 205 248 205 248 205 429 c 0,29,30
 205 487 205 487 217 550 c 0,31,32
 253 742 253 742 384 901 c 0,33,34
 482 1021 482 1021 583 1100 c 1,35,-1
 804 1100 l 1,36,37
 635 974 635 974 542 856 c 0,38,39
 433 717 433 717 397 550 c 0,40,41
 384 490 384 490 384 438 c 0,42,43
 384 326 384 326 445 255 c 0,44,45
 544 140 544 140 693 140 c 24,46,47
 848 140 848 140 886 320 c 2,48,-1
 1052 1100 l 1,49,-1
 1232 1100 l 1,22,-1
1029 1519 m 1,50,-1
 1239 1285 l 1,51,-1
 1123 1180 l 1,52,-1
 913 1414 l 1,53,-1
 1029 1519 l 1,50,-1
EndSplineSet
Validated: 1
EndChar

StartChar: Wacute
Encoding: 7810 7810 175
Width: 2180
Flags: W
HStem: -20 180<658.295 993.077 1324 1548.43> 1490 20G<662 980 1306.75 1511 1842 2124>
VStem: 249 199<386.927 896.222> 1311 200<1310 1510> 2069 195<693.973 1263.42>
DStem2: 985.731 -20 1185.73 -20 0.207912 0.978148<215.586 1564.19> 1323 1694 1408 1570 0.799329 0.600894<0 351.232>
LayerCount: 2
Fore
SplineSet
1286 -20 m 1,0,1
 1324 160 l 1,2,3
 1555 160 1555 160 1774 334 c 0,4,5
 1986 502 1986 502 2040 755 c 0,6,7
 2069 889 2069 889 2069 1006 c 0,8,9
 2069 1093 2069 1093 2053 1170 c 0,10,11
 2010 1377 2010 1377 1842 1510 c 1,12,-1
 2080 1510 l 1,13,14
 2168 1420 2168 1420 2211 1293 c 0,15,16
 2264 1138 2264 1138 2264 976 c 0,17,18
 2264 867 2264 867 2240 755 c 0,19,20
 2171 429 2171 429 1917 216 c 0,21,22
 1635 -20 1635 -20 1286 -20 c 1,0,1
846 -20 m 24,23,24
 518 -20 518 -20 365 216 c 0,25,26
 249 396 249 396 249 614 c 0,27,28
 249 683 249 683 260 755 c 0,29,30
 309 1066 309 1066 498 1294 c 0,31,32
 598 1415 598 1415 726 1510 c 1,33,-1
 980 1510 l 1,34,35
 769 1385 769 1385 625 1170 c 0,36,37
 494 975 494 975 460 755 c 0,38,39
 448 680 448 680 448 612 c 0,40,41
 448 449 448 449 518 334 c 0,42,43
 626 160 626 160 864 160 c 24,44,45
 1024 160 1024 160 1058 320 c 2,46,-1
 1311 1510 l 1,47,-1
 1511 1510 l 1,48,-1
 1258 320 l 2,49,50
 1186 -20 1186 -20 846 -20 c 24,23,24
1609 1909 m 1,51,-1
 1694 1785 l 1,52,-1
 1408 1570 l 1,53,-1
 1323 1694 l 1,54,-1
 1609 1909 l 1,51,-1
EndSplineSet
Validated: 1
EndChar

StartChar: wacute
Encoding: 7811 7811 176
Width: 1816
Flags: W
HStem: -20 160<528.587 818.625 1148 1359.76> 1080 20G<532.5 804 1047.74 1232 1480 1728.5> 1499 20G<1305.4 1345.71>
VStem: 205 179<275.851 655.39> 583 221<879 1100> 1052 180<920 1100> 1480 211<889 1100> 1668 174<454.253 890.219>
DStem2: 813.731 -20 993.731 -20 0.207912 0.978148<195.25 1145.06> 1046 1304 1131 1180 0.799329 0.600894<0 351.232>
LayerCount: 2
Fore
SplineSet
1114 -20 m 9,0,-1
 1148 140 l 17,1,2
 1332 140 1332 140 1479 255 c 0,3,4
 1612 359 1612 359 1653 550 c 0,5,6
 1668 619 1668 619 1668 683 c 0,7,8
 1668 775 1668 775 1638 856 c 0,9,10
 1595 975 1595 975 1480 1100 c 1,11,-1
 1691 1100 l 1,12,13
 1766 1020 1766 1020 1806 901 c 0,14,15
 1842 793 1842 793 1842 674 c 0,16,17
 1842 614 1842 614 1833 550 c 0,18,19
 1793 284 1793 284 1576 120 c 0,20,21
 1389 -20 1389 -20 1114 -20 c 9,0,-1
1232 1100 m 1,22,-1
 1066 320 l 2,23,24
 994 -20 994 -20 674 -20 c 24,25,26
 449 -20 449 -20 322 120 c 0,27,28
 205 248 205 248 205 429 c 0,29,30
 205 487 205 487 217 550 c 0,31,32
 253 742 253 742 384 901 c 0,33,34
 482 1021 482 1021 583 1100 c 1,35,-1
 804 1100 l 1,36,37
 635 974 635 974 542 856 c 0,38,39
 433 717 433 717 397 550 c 0,40,41
 384 490 384 490 384 438 c 0,42,43
 384 326 384 326 445 255 c 0,44,45
 544 140 544 140 693 140 c 24,46,47
 848 140 848 140 886 320 c 2,48,-1
 1052 1100 l 1,49,-1
 1232 1100 l 1,22,-1
1332 1519 m 1,50,-1
 1417 1395 l 1,51,-1
 1131 1180 l 1,52,-1
 1046 1304 l 1,53,-1
 1332 1519 l 1,50,-1
EndSplineSet
Validated: 1
EndChar

StartChar: Wdieresis
Encoding: 7812 7812 177
Width: 2180
Flags: W
HStem: -20 180<658.295 993.077 1324 1548.43> 1490 20G<662 980 1306.75 1511 1842 2124> 1591 223<1218.07 1373.93 1518.07 1673.93>
VStem: 249 199<386.927 896.222> 1188 217<1622.75 1783.25> 1311 200<1310 1510> 1488 217<1622.75 1783.25> 2069 195<693.973 1263.42>
DStem2: 985.731 -20 1185.73 -20 0.207912 0.978148<215.586 1564.19>
LayerCount: 2
Fore
SplineSet
1286 -20 m 1,0,1
 1324 160 l 1,2,3
 1555 160 1555 160 1774 334 c 0,4,5
 1986 502 1986 502 2040 755 c 0,6,7
 2069 889 2069 889 2069 1006 c 0,8,9
 2069 1093 2069 1093 2053 1170 c 0,10,11
 2010 1377 2010 1377 1842 1510 c 1,12,-1
 2080 1510 l 1,13,14
 2168 1420 2168 1420 2211 1293 c 0,15,16
 2264 1138 2264 1138 2264 976 c 0,17,18
 2264 867 2264 867 2240 755 c 0,19,20
 2171 429 2171 429 1917 216 c 0,21,22
 1635 -20 1635 -20 1286 -20 c 1,0,1
846 -20 m 24,23,24
 518 -20 518 -20 365 216 c 0,25,26
 249 396 249 396 249 614 c 0,27,28
 249 683 249 683 260 755 c 0,29,30
 309 1066 309 1066 498 1294 c 0,31,32
 598 1415 598 1415 726 1510 c 1,33,-1
 980 1510 l 1,34,35
 769 1385 769 1385 625 1170 c 0,36,37
 494 975 494 975 460 755 c 0,38,39
 448 680 448 680 448 612 c 0,40,41
 448 449 448 449 518 334 c 0,42,43
 626 160 626 160 864 160 c 24,44,45
 1024 160 1024 160 1058 320 c 2,46,-1
 1311 1510 l 1,47,-1
 1511 1510 l 1,48,-1
 1258 320 l 2,49,50
 1186 -20 1186 -20 846 -20 c 24,23,24
1618 1814 m 0,51,52
 1662 1814 1662 1814 1685 1784 c 0,53,54
 1704 1760 1704 1760 1705 1723 c 0,55,56
 1705 1709 1705 1709 1703 1699 c 0,57,58
 1696 1651 1696 1651 1657 1619 c 0,59,60
 1624 1591 1624 1591 1574 1591 c 0,61,62
 1530 1591 1530 1591 1507 1622 c 0,63,64
 1488 1646 1488 1646 1488 1682 c 0,65,66
 1488 1696 1488 1696 1489 1706 c 0,67,68
 1496 1754 1496 1754 1535 1786 c 0,69,70
 1569 1814 1569 1814 1618 1814 c 0,51,52
1318 1814 m 0,71,72
 1362 1814 1362 1814 1385 1784 c 0,73,74
 1404 1760 1404 1760 1405 1723 c 0,75,76
 1405 1709 1405 1709 1403 1699 c 0,77,78
 1396 1651 1396 1651 1357 1619 c 0,79,80
 1324 1591 1324 1591 1274 1591 c 0,81,82
 1230 1591 1230 1591 1207 1622 c 0,83,84
 1188 1646 1188 1646 1188 1682 c 0,85,86
 1188 1696 1188 1696 1189 1706 c 0,87,88
 1196 1754 1196 1754 1235 1786 c 0,89,90
 1269 1814 1269 1814 1318 1814 c 0,71,72
EndSplineSet
Validated: 1
EndChar

StartChar: wdieresis
Encoding: 7813 7813 178
Width: 1816
Flags: W
HStem: -20 160<528.587 818.625 1148 1359.76> 1080 20G<532.5 804 1047.74 1232 1480 1728.5> 1181 223<954.067 1109.93 1254.07 1409.93>
VStem: 205 179<275.851 655.39> 583 221<879 1100> 924 217<1212.75 1373.25> 1052 180<920 1100> 1224 217<1212.75 1373.25> 1480 211<889 1100> 1668 174<454.253 890.219>
DStem2: 813.731 -20 993.731 -20 0.207912 0.978148<195.25 1145.06>
LayerCount: 2
Fore
SplineSet
1114 -20 m 9,0,-1
 1148 140 l 17,1,2
 1332 140 1332 140 1479 255 c 0,3,4
 1612 359 1612 359 1653 550 c 0,5,6
 1668 619 1668 619 1668 683 c 0,7,8
 1668 775 1668 775 1638 856 c 0,9,10
 1595 975 1595 975 1480 1100 c 1,11,-1
 1691 1100 l 1,12,13
 1766 1020 1766 1020 1806 901 c 0,14,15
 1842 793 1842 793 1842 674 c 0,16,17
 1842 614 1842 614 1833 550 c 0,18,19
 1793 284 1793 284 1576 120 c 0,20,21
 1389 -20 1389 -20 1114 -20 c 9,0,-1
1232 1100 m 1,22,-1
 1066 320 l 2,23,24
 994 -20 994 -20 674 -20 c 24,25,26
 449 -20 449 -20 322 120 c 0,27,28
 205 248 205 248 205 429 c 0,29,30
 205 487 205 487 217 550 c 0,31,32
 253 742 253 742 384 901 c 0,33,34
 482 1021 482 1021 583 1100 c 1,35,-1
 804 1100 l 1,36,37
 635 974 635 974 542 856 c 0,38,39
 433 717 433 717 397 550 c 0,40,41
 384 490 384 490 384 438 c 0,42,43
 384 326 384 326 445 255 c 0,44,45
 544 140 544 140 693 140 c 24,46,47
 848 140 848 140 886 320 c 2,48,-1
 1052 1100 l 1,49,-1
 1232 1100 l 1,22,-1
1354 1404 m 0,50,51
 1398 1404 1398 1404 1421 1374 c 0,52,53
 1440 1350 1440 1350 1441 1313 c 0,54,55
 1441 1299 1441 1299 1439 1289 c 0,56,57
 1432 1241 1432 1241 1393 1209 c 0,58,59
 1360 1181 1360 1181 1310 1181 c 0,60,61
 1266 1181 1266 1181 1243 1212 c 0,62,63
 1224 1236 1224 1236 1224 1272 c 0,64,65
 1224 1286 1224 1286 1225 1296 c 0,66,67
 1232 1344 1232 1344 1271 1376 c 0,68,69
 1305 1404 1305 1404 1354 1404 c 0,50,51
1054 1404 m 0,70,71
 1098 1404 1098 1404 1121 1374 c 0,72,73
 1140 1350 1140 1350 1141 1313 c 0,74,75
 1141 1299 1141 1299 1139 1289 c 0,76,77
 1132 1241 1132 1241 1093 1209 c 0,78,79
 1060 1181 1060 1181 1010 1181 c 0,80,81
 966 1181 966 1181 943 1212 c 0,82,83
 924 1236 924 1236 924 1272 c 0,84,85
 924 1286 924 1286 925 1296 c 0,86,87
 932 1344 932 1344 971 1376 c 0,88,89
 1005 1404 1005 1404 1054 1404 c 0,70,71
EndSplineSet
Validated: 1
EndChar

StartChar: Ygrave
Encoding: 7922 7922 179
Width: 1312
Flags: W
HStem: 0 21G<559 763.246> 1490 20G<406 601 1286 1533>
VStem: 391 187<1057.56 1506.13> 421 180<1330 1510> 559 200<0 200> 678 204<369.188 708.018> 1333 200<1310 1510>
DStem2: 559 0 759 0 0.207912 0.978148<41.5823 595.276> 889 1909 772 1804 0.669666 -0.742663<0 314.413>
LayerCount: 2
Fore
SplineSet
1333 1510 m 1,0,-1
 1533 1510 l 1,1,2
 1429 1022 1429 1022 1075 871 c 1,3,-1
 832 871 l 1,4,5
 1239 1066 1239 1066 1333 1510 c 1,0,-1
759 0 m 1,6,7
 559 0 l 1,8,-1
 673 537 l 2,9,10
 678 561 678 561 678 584 c 0,11,12
 678 672 678 672 602 742 c 0,13,14
 391 934 391 934 391 1252 c 0,15,16
 391 1372 391 1372 421 1510 c 1,17,-1
 601 1510 l 1,18,19
 578 1400 578 1400 578 1303 c 0,20,21
 578 1008 578 1008 789 823 c 0,22,23
 882 741 882 741 882 618 c 0,24,25
 882 580 882 580 873 537 c 2,26,-1
 759 0 l 1,6,7
889 1909 m 1,27,-1
 1099 1675 l 1,28,-1
 983 1570 l 1,29,-1
 772 1804 l 1,30,-1
 889 1909 l 1,27,-1
EndSplineSet
Validated: 1
EndChar

StartChar: ygrave
Encoding: 7923 7923 180
Width: 1248
VWidth: 1638
Flags: W
HStem: -430 160<461 654.063> -20 160<535.199 684> 1080 20G<532.5 804 1097.76 1282> 1499 20G<788.905 828.949>
VStem: 205 179<275.851 655.39> 583 221<879 1100> 1102 180<920 1100>
DStem2: 811 1519 695 1414 0.66791 -0.744242<0.66791 314.414> 777.094 -430 957.094 -430 0.207912 0.978148<330.908 1564.12>
LayerCount: 2
Fore
SplineSet
684 -20 m 1,0,1
 449 -20 449 -20 322 120 c 0,2,3
 205 248 205 248 205 429 c 0,4,5
 205 487 205 487 217 550 c 0,6,7
 253 742 253 742 384 901 c 0,8,9
 482 1021 482 1021 583 1100 c 1,10,-1
 804 1100 l 1,11,12
 635 974 635 974 542 856 c 0,13,14
 433 717 433 717 397 550 c 0,15,16
 384 490 384 490 384 438 c 0,17,18
 384 326 384 326 445 255 c 0,19,20
 544 140 544 140 718 140 c 1,21,-1
 684 -20 l 1,0,1
461 -270 m 1,22,23
 612 -270 612 -270 724 -182 c 0,24,25
 850 -83 850 -83 894 120 c 2,26,-1
 1102 1100 l 17,27,-1
 1282 1100 l 9,28,-1
 1074 120 l 2,29,30
 1017 -149 1017 -149 836 -289 c 0,31,32
 654 -430 654 -430 427 -430 c 9,33,-1
 461 -270 l 1,22,23
811 1519 m 1,34,-1
 1021 1285 l 1,35,-1
 905 1180 l 1,36,-1
 695 1414 l 1,37,-1
 811 1519 l 1,34,-1
EndSplineSet
Validated: 1
EndChar

StartChar: Eth
Encoding: 208 208 181
Width: 1586
Flags: W
HStem: -20 180<614 1037> 0 21G<200 404.266> 661 140<219 341 570 776> 1350 180<715.5 1266.11>
VStem: 200 200<0 200> 1494 194<658.119 1120.7>
DStem2: 195.749 -20 395.749 -20 0.207912 0.978148<62.0292 696.318 880.87 1410.96>
LayerCount: 2
Fore
SplineSet
200 0 m 1,0,-1
 341 661 l 1,1,-1
 190 661 l 1,2,-1
 219 801 l 1,3,-1
 370 801 l 1,4,-1
 453 1190 l 2,5,6
 525 1530 525 1530 885 1530 c 2,7,-1
 1091 1530 l 2,8,9
 1407 1530 1407 1530 1581 1286 c 0,10,11
 1688 1136 1688 1136 1688 916 c 0,12,13
 1688 832 1688 832 1676 755 c 0,14,15
 1626 415 1626 415 1379 198 c 0,16,17
 1132 -20 1132 -20 801 -20 c 2,18,-1
 576 -20 l 1,19,-1
 614 160 l 1,20,-1
 820 160 l 2,21,22
 1044 160 1044 160 1240 334 c 0,23,24
 1424 498 1424 498 1476 755 c 0,25,26
 1494 841 1494 841 1494 915 c 0,27,28
 1494 1068 1494 1068 1418 1176 c 0,29,30
 1296 1350 1296 1350 1073 1350 c 2,31,-1
 847 1350 l 2,32,33
 687 1350 687 1350 653 1190 c 2,34,-1
 570 801 l 1,35,-1
 806 801 l 1,36,-1
 776 661 l 1,37,-1
 541 661 l 1,38,-1
 400 0 l 1,39,-1
 200 0 l 1,0,-1
EndSplineSet
Validated: 1
EndChar

StartChar: Hbar
Encoding: 294 294 182
Width: 1571
Flags: W
HStem: 0 21G<200 404.232 1171 1375.26> 661 180<568.5 1132> 1259 140<397 468 697 1439 1668 1739> 1490 20G<516.676 721 1487.68 1692>
VStem: 200 200<0 200> 392 200<901 1101> 1171 200<0 200>
DStem2: 200 0 400 0 0.207912 0.978148<41.5823 686.112 962.812 1287.21 1471.76 1543.74> 1171 0 1371 0 0.207912 0.978148<41.5823 1287.21 1471.76 1543.74>
LayerCount: 2
Fore
SplineSet
200 0 m 1,0,-1
 306 501 l 2,1,2
 379 841 379 841 739 841 c 2,3,-1
 1170 841 l 25,4,-1
 1132 661 l 25,5,-1
 700 661 l 18,6,7
 540 661 540 661 506 501 c 2,8,-1
 400 0 l 1,9,-1
 200 0 l 1,0,-1
1371 0 m 1,10,-1
 1171 0 l 1,11,-1
 1439 1259 l 1,12,-1
 668 1259 l 1,13,-1
 592 901 l 1,14,-1
 392 901 l 1,15,-1
 468 1259 l 1,16,-1
 368 1259 l 1,17,-1
 397 1399 l 1,18,-1
 497 1399 l 1,19,-1
 521 1510 l 1,20,-1
 721 1510 l 1,21,-1
 697 1399 l 1,22,-1
 1468 1399 l 1,23,-1
 1492 1510 l 1,24,-1
 1692 1510 l 1,25,-1
 1668 1399 l 1,26,-1
 1768 1399 l 1,27,-1
 1739 1259 l 1,28,-1
 1639 1259 l 1,29,-1
 1371 0 l 1,10,-1
EndSplineSet
Validated: 1
EndChar

StartChar: IJ
Encoding: 306 306 183
Width: 1566
Flags: W
HStem: -20 180<689.98 1029.31> 0 21G<200 404.252> 1330 180<1047 1449>
VStem: 200 200<0 200> 521 200<1310 1510>
DStem2: 195.749 -20 395.749 -20 0.207912 0.978148<62.0292 1564.19> 1161.27 -20 1361.69 -20 0.207912 0.978148<370.777 1380.32>
LayerCount: 2
Fore
SplineSet
845 -20 m 0,0,1
 612 -20 612 -20 484 136 c 1,2,-1
 625 268 l 1,3,4
 702 160 702 160 845 160 c 0,5,6
 1014 160 1014 160 1137 283 c 0,7,8
 1249 395 1249 395 1282 548 c 2,9,-1
 1449 1330 l 1,10,-1
 1009 1330 l 1,11,-1
 1047 1510 l 1,12,-1
 1687 1510 l 1,13,-1
 1482 546 l 2,14,15
 1428 291 1428 291 1252 136 c 0,16,17
 1074 -20 1074 -20 845 -20 c 0,0,1
200 0 m 1,18,-1
 521 1510 l 1,19,-1
 721 1510 l 1,20,-1
 400 0 l 1,21,-1
 200 0 l 1,18,-1
EndSplineSet
Validated: 1
EndChar

StartChar: ae
Encoding: 230 230 184
Width: 1872
Flags: W
HStem: -20 160<517.381 665 1260.37 1610.78> 0 21G<849 1033.33> 470 160<1343 1730> 960 160<674.875 1001.18 1415.83 1767.4>
VStem: 210 175<271.227 646.234>
DStem2: 844.749 -20 1024.75 -20 0.207912 0.978148<57.8709 194.972 510.492 843.889>
LayerCount: 2
Fore
SplineSet
1343 630 m 1,0,-1
 1764 630 l 1,1,-1
 1730 470 l 1,2,-1
 1309 470 l 1,3,-1
 1343 630 l 1,0,-1
849 0 m 1,4,-1
 1015 780 l 2,5,6
 1022 813 1022 813 1022 843 c 0,7,8
 1022 960 1022 960 893 960 c 0,9,10
 699 960 699 960 568 846 c 0,11,12
 438 733 438 733 398 550 c 0,13,14
 385 491 385 491 385 440 c 0,15,16
 385 331 385 331 441 254 c 0,17,18
 523 140 523 140 699 140 c 1,19,-1
 665 -20 l 1,20,21
 430 -20 430 -20 313 133 c 0,22,23
 210 269 210 269 210 451 c 0,24,25
 210 498 210 498 217 550 c 0,26,27
 253 816 253 816 460 982 c 0,28,29
 632 1120 632 1120 917 1120 c 0,30,31
 1139 1120 1139 1120 1188 967 c 1,32,33
 1372 1120 1372 1120 1625 1120 c 0,34,35
 1848 1120 1848 1120 1970 965 c 1,36,-1
 1840 846 l 1,37,38
 1759 960 1759 960 1601 960 c 128,-1,39
 1443 960 1443 960 1314 846 c 128,-1,40
 1185 732 1185 732 1146 550 c 0,41,42
 1133 491 1133 491 1133 439 c 0,43,44
 1133 331 1133 331 1188 254 c 0,45,46
 1269 140 1269 140 1427 140 c 128,-1,47
 1585 140 1585 140 1714 254 c 1,48,-1
 1828 122 l 1,49,50
 1655 -20 1655 -20 1403 -20 c 0,51,52
 1179 -20 1179 -20 1058 134 c 1,53,-1
 1029 0 l 1,54,-1
 849 0 l 1,4,-1
EndSplineSet
Validated: 1
EndChar

StartChar: dcroat
Encoding: 273 273 185
Width: 1228
Flags: W
HStem: -20 160<505.175 828.216> 960 160<672.156 872> 1259 140<972 1116 1325 1396> 1490 20G<1164.68 1349>
VStem: 210 175<272.785 653.937>
DStem2: 843.731 -20 1023.73 -20 0.207912 0.978148<210.787 1307.66 1488.05 1564.19>
LayerCount: 2
Fore
SplineSet
645 -20 m 0,0,1
 435 -20 435 -20 313 133 c 0,2,3
 210 262 210 262 210 451 c 0,4,5
 210 498 210 498 217 550 c 0,6,7
 253 816 253 816 460 982 c 0,8,9
 633 1120 633 1120 906 1120 c 1,10,-1
 872 960 l 1,11,12
 699 960 699 960 568 846 c 0,13,14
 433 729 433 729 397 550 c 0,15,16
 385 491 385 491 385 440 c 0,17,18
 385 339 385 339 440 254 c 0,19,20
 514 140 514 140 655 140 c 0,21,22
 878 140 878 140 916 320 c 2,23,-1
 1116 1259 l 1,24,-1
 943 1259 l 1,25,-1
 972 1399 l 1,26,-1
 1145 1399 l 1,27,-1
 1169 1510 l 1,28,-1
 1349 1510 l 1,29,-1
 1325 1399 l 1,30,-1
 1425 1399 l 1,31,-1
 1396 1259 l 1,32,-1
 1296 1259 l 1,33,-1
 1096 320 l 2,34,35
 1024 -20 1024 -20 645 -20 c 0,0,1
EndSplineSet
Validated: 1
EndChar

StartChar: hbar
Encoding: 295 295 186
Width: 1248
Flags: W
HStem: 0 21G<200 384.257 678 949.5> 960 160<798 946.801> 1259 140<397 468 677 821> 1490 20G<516.676 701>
VStem: 200 180<0 180> 678 221<0 221> 1098 179<444.61 824.149>
DStem2: 200 0 380 0 0.207912 0.978148<37.4241 1287.21 1467.6 1543.74>
LayerCount: 2
Fore
SplineSet
678 0 m 1,0,1
 847 126 847 126 940 244 c 0,2,3
 1049 383 1049 383 1085 550 c 0,4,5
 1098 610 1098 610 1098 662 c 0,6,7
 1098 774 1098 774 1037 845 c 0,8,9
 938 960 938 960 764 960 c 1,10,-1
 798 1120 l 1,11,12
 1033 1120 1033 1120 1160 980 c 0,13,14
 1277 852 1277 852 1277 671 c 0,15,16
 1277 613 1277 613 1265 550 c 0,17,18
 1229 358 1229 358 1098 199 c 0,19,20
 1000 79 1000 79 899 0 c 1,21,-1
 678 0 l 1,0,1
380 0 m 1,22,-1
 200 0 l 1,23,-1
 468 1259 l 1,24,-1
 368 1259 l 1,25,-1
 397 1399 l 1,26,-1
 497 1399 l 1,27,-1
 521 1510 l 1,28,-1
 701 1510 l 1,29,-1
 677 1399 l 1,30,-1
 850 1399 l 1,31,-1
 821 1259 l 1,32,-1
 648 1259 l 1,33,-1
 380 0 l 1,22,-1
EndSplineSet
Validated: 1
EndChar

StartChar: ij
Encoding: 307 307 187
Width: 1080
Flags: W
HStem: -430 21G<433.181 536.5> 0 21G<200 384.255> 1080 20G<429.745 614 929.753 1114> 1209 265<489.814 660.186 989.814 1160.19>
VStem: 200 180<0 180> 434 180<920 1100> 446 258<1253.06 1429.94> 934 180<920 1100> 946 258<1253.06 1429.94>
DStem2: 108.601 -430 288.601 -430 0.207912 0.978148<477.031 1564.22> 608.983 -430 788.732 -430 0.207912 0.978148<294.111 1564.14>
LayerCount: 2
Fore
SplineSet
1101 1474 m 0,0,1
 1153 1474 1153 1474 1181 1438 c 0,2,3
 1204 1409 1204 1409 1204 1366 c 0,4,5
 1204 1349 1204 1349 1202 1337 c 0,6,7
 1194 1280 1194 1280 1148 1242 c 0,8,9
 1108 1209 1108 1209 1049 1209 c 0,10,11
 997 1209 997 1209 969 1245 c 0,12,13
 946 1274 946 1274 946 1317 c 0,14,15
 946 1334 946 1334 948 1346 c 0,16,17
 956 1403 956 1403 1002 1441 c 0,18,19
 1042 1474 1042 1474 1101 1474 c 0,0,1
429 -430 m 1,20,-1
 466 -253 l 1,21,22
 546 -220 546 -220 604 -161 c 0,23,24
 683 -82 683 -82 721 97 c 2,25,-1
 934 1100 l 17,26,-1
 1114 1100 l 1,27,-1
 905 117 l 2,28,29
 856 -114 856 -114 769 -218 c 0,30,31
 644 -368 644 -368 429 -430 c 1,20,-1
601 1474 m 0,32,33
 653 1474 653 1474 681 1438 c 0,34,35
 704 1409 704 1409 704 1366 c 0,36,37
 704 1349 704 1349 702 1337 c 0,38,39
 694 1280 694 1280 648 1242 c 0,40,41
 608 1209 608 1209 549 1209 c 0,42,43
 497 1209 497 1209 469 1245 c 0,44,45
 446 1274 446 1274 446 1317 c 0,46,47
 446 1334 446 1334 448 1346 c 0,48,49
 456 1403 456 1403 502 1441 c 0,50,51
 542 1474 542 1474 601 1474 c 0,32,33
200 0 m 1,52,-1
 434 1100 l 1,53,-1
 614 1100 l 1,54,-1
 380 0 l 1,55,-1
 200 0 l 1,52,-1
EndSplineSet
Validated: 1
EndChar

StartChar: AE
Encoding: 198 198 188
Width: 2498
Flags: W
HStem: -20 180<1712.23 2128.22> 0 21G<5 222.54 1410.95 1621> 561 180<581.391 1070> 661 180<1705 2372> 1350 180<1945.78 2362.92> 1490 20G<1015.43 1244.07>
VStem: 5 204<0 204> 548 204<801 1005>
DStem2: 5 0 209 0 0.56126 0.827639<114.497 804.249 1082.2 1682.95> 1239 1510 1088 1299 0.245254 -0.969459<167.522 537.462>
LayerCount: 2
Fore
SplineSet
1416 0 m 1,0,-1
 1088 1299 l 1,1,-1
 752 801 l 1,2,-1
 548 801 l 1,3,-1
 1029 1510 l 1,4,-1
 1239 1510 l 1,5,-1
 1371 989 l 1,6,7
 1448 1175 1448 1175 1604 1312 c 0,8,9
 1851 1530 1851 1530 2182 1530 c 0,10,11
 2495 1530 2495 1530 2672 1286 c 1,12,-1
 2509 1176 l 1,13,14
 2387 1350 2387 1350 2163 1350 c 128,-1,15
 1939 1350 1939 1350 1743 1176 c 0,16,17
 1562 1015 1562 1015 1507 755 c 0,18,19
 1489 669 1489 669 1489 595 c 0,20,21
 1489 442 1489 442 1565 334 c 0,22,23
 1687 160 1687 160 1911 160 c 128,-1,24
 2135 160 2135 160 2331 334 c 1,25,-1
 2470 198 l 1,26,27
 2223 -20 2223 -20 1892 -20 c 0,28,29
 1733 -20 1733 -20 1611 40 c 1,30,-1
 1621 0 l 1,31,-1
 1416 0 l 1,0,-1
5 0 m 1,32,-1
 311 452 l 2,33,34
 507 741 507 741 768 741 c 2,35,-1
 1109 741 l 1,36,-1
 1070 561 l 1,37,-1
 729 561 l 2,38,39
 589 561 589 561 515 452 c 2,40,-1
 209 0 l 1,41,-1
 5 0 l 1,32,-1
1705 841 m 1,42,-1
 2411 841 l 1,43,-1
 2372 661 l 1,44,-1
 1666 661 l 1,45,-1
 1705 841 l 1,42,-1
EndSplineSet
Validated: 1
EndChar

StartChar: kgreenlandic
Encoding: 312 312 189
Width: 1266
Flags: W
HStem: 0 21G<200 384.255 892 1116> 1080 20G<429.745 614 1064.5 1298>
VStem: 200 180<0 180> 434 180<920 1100> 921 195<0 195> 1118 180<920 1100>
DStem2: 200 0 380 0 0.207912 0.978148<37.4241 1124.61>
LayerCount: 2
Fore
SplineSet
1116 0 m 1,0,1
 921 0 l 1,2,3
 863 233 863 233 623 297 c 1,4,-1
 662 479 l 1,5,6
 1011 598 1011 598 1118 1100 c 1,7,-1
 1298 1100 l 1,8,9
 1178 521 1178 521 811 385 c 1,10,11
 1029 320 1029 320 1116 0 c 1,0,1
200 0 m 1,12,-1
 434 1100 l 1,13,-1
 614 1100 l 1,14,-1
 380 0 l 1,15,-1
 200 0 l 1,12,-1
EndSplineSet
Validated: 1
EndChar

StartChar: Lslash
Encoding: 321 321 190
Width: 988
Flags: W
HStem: 0 180<438 978> 1080 20G<898.789 1103> 1490 20G<516.748 721>
VStem: 521 200<1310 1510> 916 187<913 1100>
DStem2: 200 0 399.74 0 0.207912 0.978148<225.55 1543.74> 663 806 602 519 0.653043 0.757321<0 387.872>
LayerCount: 2
Fore
SplineSet
1103 1100 m 1,0,-1
 602 519 l 1,1,-1
 663 806 l 1,2,-1
 916 1100 l 1,3,-1
 1103 1100 l 1,0,-1
200 0 m 1,4,-1
 521 1510 l 1,5,-1
 721 1510 l 1,6,-1
 438 180 l 1,7,-1
 1016 180 l 1,8,-1
 978 0 l 1,9,-1
 200 0 l 1,4,-1
EndSplineSet
Validated: 1
EndChar

StartChar: lslash
Encoding: 322 322 191
Width: 854
Flags: W
HStem: 0 21G<200 384.252> 1080 20G<878.789 1083> 1490 20G<516.748 701>
VStem: 200 180<0 180> 521 180<1330 1510> 896 187<913 1100>
DStem2: 200 0 380 0 0.207912 0.978148<37.4241 1543.74> 643 806 582 519 0.653043 0.757321<0 387.872>
LayerCount: 2
Fore
SplineSet
1083 1100 m 1,0,-1
 582 519 l 1,1,-1
 643 806 l 1,2,-1
 896 1100 l 1,3,-1
 1083 1100 l 1,0,-1
200 0 m 1,4,-1
 521 1510 l 1,5,-1
 701 1510 l 1,6,-1
 380 0 l 1,7,-1
 200 0 l 1,4,-1
EndSplineSet
Validated: 1
EndChar

StartChar: longs
Encoding: 383 383 192
Width: 830
Flags: W
HStem: 0 21G<290 474.263> 940 160<284 452.293> 1370 160<858.32 1111>
VStem: 290 180<0 180> 466 179<621.25 929.324> 537 180<1160 1340>
DStem2: 290 0 470 0 0.207912 0.978148<37.4241 866.396 1223.43 1358.4>
LayerCount: 2
Fore
SplineSet
470 0 m 1,0,-1
 290 0 l 1,1,-1
 460 800 l 2,2,3
 466 828 466 828 466 849 c 0,4,5
 466 940 466 940 364 940 c 2,6,-1
 250 940 l 1,7,-1
 284 1100 l 25,8,-1
 364 1100 l 2,9,10
 645 1100 645 1100 645 869 c 0,11,12
 645 821 645 821 632 760 c 2,13,-1
 470 0 l 1,0,-1
537 1160 m 1,14,15
 616 1530 616 1530 1145 1530 c 1,16,-1
 1111 1370 l 1,17,18
 761 1370 761 1370 717 1160 c 1,19,-1
 537 1160 l 1,14,15
EndSplineSet
Validated: 1
EndChar

StartChar: Eng
Encoding: 330 330 193
Width: 1616
Flags: W
HStem: -410 180<987 1136.76> 0 21G<200 404.252> 1350 180<715.5 1166.8>
VStem: 200 200<0 200> 1395 199<638.281 1120.93>
DStem2: 112.852 -410 312.852 -410 0.207912 0.978148<460.742 1809.68> 1128.79 -410 1328.79 -410 0.207912 0.978148<220.732 1350.07>
LayerCount: 2
Fore
SplineSet
200 0 m 1,0,-1
 453 1190 l 2,1,2
 525 1530 525 1530 885 1530 c 2,3,-1
 1011 1530 l 2,4,5
 1305 1530 1305 1530 1478 1282 c 0,6,7
 1594 1116 1594 1116 1594 916 c 0,8,9
 1594 838 1594 838 1576 755 c 2,10,-1
 1400 -75 l 2,11,12
 1329 -410 1329 -410 949 -410 c 1,13,-1
 987 -230 l 1,14,15
 1167 -230 1167 -230 1200 -75 c 2,16,-1
 1376 755 l 2,17,18
 1394 841 1394 841 1395 916 c 0,19,20
 1395 1068 1395 1068 1319 1176 c 0,21,22
 1197 1350 1197 1350 973 1350 c 2,23,-1
 847 1350 l 2,24,25
 687 1350 687 1350 653 1190 c 2,26,-1
 400 0 l 1,27,-1
 200 0 l 1,0,-1
EndSplineSet
Validated: 1
EndChar

StartChar: eng
Encoding: 331 331 194
Width: 1240
Flags: W
HStem: -430 160<673 817.25> 0 21G<200 384.256> 960 160<623.285 931.683>
VStem: 200 180<0 180> 1045 177<426.797 848.55>
DStem2: 108.601 -430 288.601 -430 0.207912 0.978148<477.031 1419.39> 818.794 -430 998.794 -430 0.207912 0.978148<200.168 1138.06>
LayerCount: 2
Fore
SplineSet
200 0 m 1,0,-1
 366 780 l 2,1,2
 438 1120 438 1120 798 1120 c 0,3,4
 1006 1120 1006 1120 1125 971 c 0,5,6
 1222 848 1222 848 1222 685 c 0,7,8
 1222 621 1222 621 1207 550 c 2,9,-1
 1070 -95 l 2,10,11
 999 -430 999 -430 639 -430 c 1,12,-1
 673 -270 l 1,13,14
 853 -270 853 -270 890 -95 c 10,15,-1
 1031 570 l 2,16,17
 1045 636 1045 636 1045 687 c 0,18,19
 1045 800 1045 800 984 871 c 0,20,21
 908 960 908 960 764 960 c 0,22,23
 584 960 584 960 546 780 c 2,24,-1
 380 0 l 1,25,-1
 200 0 l 1,0,-1
EndSplineSet
Validated: 1
EndChar

StartChar: oe
Encoding: 339 339 195
Width: 1841
Flags: W
HStem: -20 160<511.6 860.177 1228.73 1579.78> 470 160<1312 1699> 960 160<668.225 1019.04 1386.34 1736.4>
VStem: 209 175<271.215 652.069> 927 175<271.215 651.716>
CounterMasks: 1 e0
LayerCount: 2
Fore
SplineSet
1312 630 m 1,0,-1
 1733 630 l 1,1,-1
 1699 470 l 1,2,-1
 1278 470 l 1,3,-1
 1312 630 l 1,0,-1
654 -20 m 0,4,5
 431 -20 431 -20 309 135 c 0,6,7
 209 260 209 260 209 444 c 0,8,9
 209 495 209 495 217 550 c 0,10,11
 253 815 253 815 451 978 c 0,12,13
 624 1120 624 1120 876 1120 c 0,14,15
 1075 1120 1075 1120 1193 997 c 1,16,17
 1359 1120 1359 1120 1594 1120 c 0,18,19
 1817 1120 1817 1120 1939 965 c 1,20,-1
 1809 846 l 1,21,22
 1728 960 1728 960 1570 960 c 128,-1,23
 1412 960 1412 960 1283 846 c 128,-1,24
 1154 732 1154 732 1115 550 c 0,25,26
 1102 491 1102 491 1102 439 c 0,27,28
 1102 331 1102 331 1157 254 c 0,29,30
 1238 140 1238 140 1396 140 c 128,-1,31
 1554 140 1554 140 1683 254 c 1,32,-1
 1797 122 l 1,33,34
 1624 -20 1624 -20 1372 -20 c 0,35,36
 1173 -20 1173 -20 1055 103 c 1,37,38
 889 -20 889 -20 654 -20 c 0,4,5
1068 875 m 1,39,40
 989 960 989 960 852 960 c 0,41,42
 694 960 694 960 565 846 c 128,-1,43
 436 732 436 732 397 550 c 0,44,45
 384 491 384 491 384 439 c 0,46,47
 384 331 384 331 439 254 c 0,48,49
 520 140 520 140 678 140 c 0,50,51
 833 140 833 140 961 250 c 1,52,53
 927 337 927 337 927 444 c 0,54,55
 927 495 927 495 935 550 c 0,56,57
 961 738 961 738 1068 875 c 1,39,40
EndSplineSet
Validated: 1
EndChar

StartChar: OE
Encoding: 338 338 196
Width: 2381
Flags: W
HStem: -20 180<667.443 1082.77 1594.17 2011.22> 661 180<1588 2255> 1350 180<899.781 1315.41 1827.9 2245.92>
VStem: 249 194<387.752 848.485> 1178 194<387.412 849.41>
LayerCount: 2
Fore
SplineSet
1588 841 m 9,0,-1
 2294 841 l 1,1,-1
 2255 661 l 1,2,-1
 1549 661 l 17,3,4
 1588 841 l 9,0,-1
846 -20 m 0,5,6
 524 -20 524 -20 356 224 c 0,7,8
 249 377 249 377 249 599 c 0,9,10
 249 673 249 673 261 755 c 0,11,12
 311 1094 311 1094 558 1312 c 128,-1,13
 805 1530 805 1530 1136 1530 c 0,14,15
 1391 1530 1391 1530 1556 1368 c 1,16,17
 1779 1530 1779 1530 2065 1530 c 0,18,19
 2378 1530 2378 1530 2555 1286 c 1,20,-1
 2392 1176 l 1,21,22
 2270 1350 2270 1350 2046 1350 c 128,-1,23
 1822 1350 1822 1350 1626 1176 c 0,24,25
 1445 1015 1445 1015 1390 755 c 0,26,27
 1372 669 1372 669 1372 595 c 0,28,29
 1372 442 1372 442 1448 334 c 0,30,31
 1570 160 1570 160 1794 160 c 128,-1,32
 2018 160 2018 160 2214 334 c 1,33,-1
 2353 198 l 1,34,35
 2106 -20 2106 -20 1775 -20 c 0,36,37
 1513 -20 1513 -20 1353 141 c 1,38,39
 1131 -20 1131 -20 846 -20 c 0,5,6
1411 1237 m 1,40,41
 1297 1350 1297 1350 1117 1350 c 0,42,43
 893 1350 893 1350 697 1176 c 0,44,45
 516 1015 516 1015 461 755 c 0,46,47
 443 669 443 669 443 595 c 0,48,49
 443 442 443 442 519 334 c 0,50,51
 641 160 641 160 865 160 c 0,52,53
 1064 160 1064 160 1242 298 c 1,54,55
 1178 428 1178 428 1178 599 c 0,56,57
 1178 673 1178 673 1190 755 c 0,58,59
 1231 1038 1231 1038 1411 1237 c 1,40,41
EndSplineSet
Validated: 1
EndChar

StartChar: eth
Encoding: 240 240 197
Width: 1302
Flags: W
HStem: -20 160<512.117 864.299> 960 160<670.014 852> 1490 20G<767 980.22>
VStem: 210 174<271.25 652.069> 1147 182<452.065 894.453>
DStem2: 695 1276 755 1164 0.838528 0.544859<0 167.079 354.201 530.712> 969 1510 843 1372 0.482629 -0.875825<0 47.0093 186.71 763.597>
LayerCount: 2
Fore
SplineSet
666 -20 m 0,0,1
 446 -20 446 -20 316 131 c 0,2,3
 210 254 210 254 210 446 c 0,4,5
 210 496 210 496 217 551 c 0,6,7
 251 813 251 813 470 982 c 0,8,9
 649 1120 649 1120 886 1120 c 1,10,-1
 852 960 l 1,11,12
 694 960 694 960 565 846 c 128,-1,13
 436 732 436 732 397 550 c 0,14,15
 384 491 384 491 384 439 c 0,16,17
 384 331 384 331 439 254 c 0,18,19
 520 140 520 140 678 140 c 128,-1,20
 836 140 836 140 965 254 c 128,-1,21
 1094 368 1094 368 1133 550 c 0,22,23
 1147 618 1147 618 1147 682 c 0,24,25
 1147 821 1147 821 1080 942 c 2,26,-1
 904 1261 l 1,27,-1
 755 1164 l 1,28,-1
 695 1276 l 1,29,-1
 843 1372 l 1,30,-1
 767 1510 l 1,31,-1
 969 1510 l 1,32,-1
 992 1469 l 1,33,-1
 1149 1571 l 1,34,-1
 1209 1459 l 1,35,-1
 1055 1359 l 1,36,-1
 1229 1052 l 2,37,38
 1329 875 1329 875 1329 676 c 0,39,40
 1329 614 1329 614 1319 550 c 0,41,42
 1281 299 1281 299 1070 123 c 0,43,44
 899 -20 899 -20 666 -20 c 0,0,1
EndSplineSet
Validated: 1
EndChar

StartChar: Thorn
Encoding: 222 222 198
Width: 1325
Flags: W
HStem: 0 21G<200 404.263> 180 181<657 890.14> 1150 180<676.44 1047.52> 1490 20G<516.748 721>
VStem: 200 200<0 200> 521 200<1310 1510> 1199 196<668.781 1013.93>
DStem2: 200 0 400 0 0.207912 0.978148<41.5823 1190.84 1358.4 1543.74>
LayerCount: 2
Fore
SplineSet
200 0 m 1,0,-1
 521 1510 l 1,1,-1
 721 1510 l 1,2,-1
 674 1288 l 1,3,4
 750 1330 750 1330 843 1330 c 0,5,6
 1112 1329 1112 1329 1256 1183 c 0,7,8
 1395 1041 1395 1041 1395 855 c 0,9,10
 1395 815 1395 815 1389 774 c 0,11,12
 1351 523 1351 523 1174 368 c 0,13,14
 960 180 960 180 619 180 c 1,15,-1
 657 361 l 1,16,17
 875 361 875 361 1020 484 c 0,18,19
 1151 595 1151 595 1189 774 c 0,20,21
 1199 821 1199 821 1199 862 c 0,22,23
 1199 975 1199 975 1124 1052 c 0,24,25
 1028 1150 1028 1150 805 1150 c 0,26,27
 645 1150 645 1150 611 990 c 2,28,-1
 400 0 l 1,29,-1
 200 0 l 1,0,-1
EndSplineSet
Validated: 1
EndChar

StartChar: germandbls
Encoding: 223 223 199
Width: 1252
Flags: W
HStem: -20 160<688.76 920.194> 0 21G<200 384.252> 1370 160<710.285 1009.69>
VStem: 200 180<0 180> 501 167<169.782 294> 769 166<754.034 884.126> 1045 172<271.656 526.449> 1067 163<1113.89 1317.89>
DStem2: 195.749 -20 375.749 -20 0.207912 0.978148<57.8709 1419.36>
LayerCount: 2
Fore
SplineSet
200 0 m 25,0,-1
 453 1190 l 2,1,2
 525 1530 525 1530 885 1530 c 0,3,4
 1049 1530 1049 1530 1149 1426 c 0,5,6
 1230 1341 1230 1341 1230 1234 c 0,7,8
 1230 1218 1230 1218 1228 1202 c 0,9,10
 1210 1038 1210 1038 1043 932 c 0,11,12
 935 863 935 863 935 817 c 0,13,14
 935 774 935 774 1039 715 c 0,15,16
 1217 616 1217 616 1217 437 c 0,17,18
 1217 407 1217 407 1212 376 c 0,19,20
 1191 232 1191 232 1086 114 c 0,21,22
 965 -20 965 -20 778 -20 c 0,23,24
 626 -20 626 -20 551 80 c 0,25,26
 501 146 501 146 501 222 c 0,27,28
 501 257 501 257 511 294 c 1,29,-1
 672 294 l 1,30,31
 668 272 668 272 668 251 c 0,32,33
 668 208 668 208 690 179 c 0,34,35
 721 140 721 140 795 140 c 0,36,37
 889 140 889 140 966 224 c 0,38,39
 1021 284 1021 284 1042 379 c 0,40,41
 1045 393 1045 393 1045 418 c 0,42,43
 1045 519 1045 519 918 591 c 0,44,45
 770 674 770 674 769 806 c 0,46,47
 769 819 769 819 771 832 c 0,48,49
 783 934 783 934 931 1034 c 0,50,51
 1044 1110 1044 1110 1063 1190 c 0,52,53
 1067 1207 1067 1207 1067 1222 c 0,54,55
 1067 1285 1067 1285 1009 1330 c 0,56,57
 958 1370 958 1370 851 1370 c 0,58,59
 671 1370 671 1370 633 1190 c 2,60,-1
 380 0 l 25,61,-1
 200 0 l 25,0,-1
EndSplineSet
Validated: 1
EndChar

StartChar: thorn
Encoding: 254 254 200
Width: 1228
Flags: W
HStem: -20 160<590 789.844> 960 160<630.214 956.825> 1490 20G<516.75 701>
VStem: 113 180<-410 -230> 521 180<1330 1510> 1077 175<446.063 827.215>
DStem2: 113 -410 293 -410 0.207912 0.978148<37.4241 1392.49 1554.49 1962.87>
LayerCount: 2
Fore
SplineSet
556 -20 m 1,0,-1
 590 140 l 1,1,2
 763 140 763 140 894 254 c 0,3,4
 1029 371 1029 371 1065 550 c 0,5,6
 1077 609 1077 609 1077 660 c 0,7,8
 1077 761 1077 761 1022 846 c 0,9,10
 948 960 948 960 807 960 c 0,11,12
 584 960 584 960 546 780 c 2,13,-1
 293 -410 l 1,14,-1
 113 -410 l 1,15,-1
 521 1510 l 1,16,-1
 701 1510 l 1,17,-1
 608 1074 l 1,18,19
 709 1120 709 1120 817 1120 c 0,20,21
 1027 1120 1027 1120 1149 967 c 0,22,23
 1252 838 1252 838 1252 649 c 0,24,25
 1252 602 1252 602 1245 550 c 0,26,27
 1209 284 1209 284 1002 118 c 0,28,29
 829 -20 829 -20 556 -20 c 1,0,-1
EndSplineSet
Validated: 1
EndChar

StartChar: Tbar
Encoding: 358 358 201
Width: 1090
Flags: W
HStem: 0 21G<446 650.236> 661 140<422 586 816 978> 1330 180<331 669 957.5 1363>
VStem: 446 200<0 200>
DStem2: 446 0 646 0 0.207912 0.978148<41.5823 675.663 860.424 1370.21>
LayerCount: 2
Fore
SplineSet
446 0 m 1,0,-1
 586 661 l 1,1,-1
 392 661 l 1,2,-1
 422 801 l 1,3,-1
 616 801 l 1,4,-1
 695 1170 l 2,5,6
 768 1510 768 1510 1127 1510 c 2,7,-1
 1401 1510 l 1,8,-1
 1363 1330 l 1,9,-1
 1089 1330 l 2,10,11
 929 1330 929 1330 895 1170 c 2,12,-1
 816 801 l 1,13,-1
 1008 801 l 1,14,-1
 978 661 l 1,15,-1
 786 661 l 1,16,-1
 646 0 l 1,17,-1
 446 0 l 1,0,-1
331 1510 m 1,18,-1
 707 1510 l 1,19,-1
 669 1330 l 1,20,-1
 293 1330 l 1,21,-1
 331 1510 l 1,18,-1
EndSplineSet
Validated: 1
EndChar

StartChar: tbar
Encoding: 359 359 202
Width: 740
Flags: W
HStem: 0 21G<200 384.234> 581 140<203 323 533 676> 940 160<614.625 930> 1490 20G<516.771 701>
VStem: 200 180<0 180> 447 180<1160 1340> 521 180<1330 1510>
DStem2: 200 0 380 0 0.207912 0.978148<37.4241 593.877 774.479 959.546 1223.43 1543.74>
LayerCount: 2
Fore
SplineSet
521 1510 m 1,0,-1
 701 1510 l 1,1,-1
 627 1160 l 1,2,-1
 447 1160 l 1,3,-1
 521 1510 l 1,0,-1
200 0 m 1,4,-1
 323 581 l 1,5,-1
 173 581 l 1,6,-1
 203 721 l 1,7,-1
 353 721 l 1,8,-1
 362 760 l 2,9,10
 440 1100 440 1100 774 1100 c 2,11,-1
 964 1100 l 1,12,-1
 930 940 l 1,13,-1
 740 940 l 2,14,15
 584 940 584 940 542 760 c 2,16,-1
 533 721 l 1,17,-1
 706 721 l 1,18,-1
 676 581 l 1,19,-1
 503 581 l 1,20,-1
 380 0 l 1,21,-1
 200 0 l 1,4,-1
EndSplineSet
Validated: 1
EndChar

StartChar: circumflex
Encoding: 710 710 203
Width: 598
Flags: W
HStem: 1252 354
VStem: 341 493
DStem2: 341 1368 419 1252 0.769758 0.638336<0 231.81> 628 1606 604 1414 0.618087 -0.78611<136.099 333.287>
LayerCount: 2
Fore
SplineSet
628 1606 m 1,0,-1
 834 1344 l 1,1,-1
 721 1252 l 5,2,-1
 604 1414 l 1,3,-1
 419 1252 l 1,4,-1
 341 1368 l 1,5,-1
 628 1606 l 1,0,-1
EndSplineSet
Validated: 1
EndChar

StartChar: caron
Encoding: 711 711 204
Width: 598
Flags: W
HStem: 1252 354
VStem: 372 493
DStem2: 485 1606 372 1514 0.618087 -0.78611<2.47835 199.666> 602 1444 578 1252 0.769758 0.638336<0 231.81>
LayerCount: 2
Fore
SplineSet
485 1606 m 1,0,-1
 602 1444 l 1,1,-1
 787 1606 l 1,2,-1
 865 1490 l 1,3,-1
 578 1252 l 1,4,-1
 372 1514 l 1,5,-1
 485 1606 l 1,0,-1
EndSplineSet
Validated: 1
EndChar

StartChar: uni02C9
Encoding: 713 713 205
Width: 603
Flags: W
HStem: 1309 140<358 831>
VStem: 328 533
LayerCount: 2
Fore
SplineSet
358 1449 m 1,0,-1
 861 1449 l 1,1,-1
 831 1309 l 1,2,-1
 328 1309 l 1,3,-1
 358 1449 l 1,0,-1
EndSplineSet
Validated: 1
EndChar

StartChar: breve
Encoding: 728 728 206
Width: 600
Flags: W
HStem: 1268 140<440.647 773.848> 1491 20G<366.808 418 799 866.808>
VStem: 336 535
LayerCount: 2
Fore
SplineSet
371 1511 m 17,0,1
 465 1408 465 1408 596 1408 c 128,-1,2
 727 1408 727 1408 871 1511 c 1,3,-1
 836 1344 l 1,4,5
 730 1268 730 1268 596 1268 c 0,6,7
 457 1268 457 1268 336 1344 c 1,8,-1
 371 1511 l 17,0,1
EndSplineSet
Validated: 1
EndChar

StartChar: dotaccent
Encoding: 729 729 207
Width: 356
Flags: W
HStem: 1245 265<385.814 556.186>
VStem: 342 258<1289.06 1465.94>
LayerCount: 2
Fore
SplineSet
497 1510 m 0,0,1
 549 1510 549 1510 577 1474 c 0,2,3
 600 1445 600 1445 600 1402 c 0,4,5
 600 1385 600 1385 598 1373 c 0,6,7
 590 1316 590 1316 544 1278 c 0,8,9
 504 1245 504 1245 445 1245 c 0,10,11
 393 1245 393 1245 365 1281 c 0,12,13
 342 1310 342 1310 342 1353 c 0,14,15
 342 1370 342 1370 344 1382 c 0,16,17
 352 1439 352 1439 398 1477 c 0,18,19
 438 1510 438 1510 497 1510 c 0,0,1
EndSplineSet
Validated: 1
EndChar

StartChar: ring
Encoding: 730 730 208
Width: 462
Flags: W
HStem: 1192 98<444.488 587.347> 1458 98<454.851 598.036>
VStem: 340 96<1305.26 1438.24> 607 99<1308.37 1443.71>
LayerCount: 2
Fore
SplineSet
547 1556 m 256,0,1
 624 1556 624 1556 672 1503 c 0,2,3
 706 1465 706 1465 706 1407 c 0,4,5
 706 1391 706 1391 704 1373 c 0,6,7
 692 1293 692 1293 629 1241 c 0,8,9
 569 1192 569 1192 499 1192 c 0,10,11
 424 1192 424 1192 375 1246 c 0,12,13
 340 1285 340 1285 340 1342 c 0,14,15
 340 1358 340 1358 342 1375 c 0,16,17
 354 1455 354 1455 417 1507 c 0,18,19
 477 1556 477 1556 547 1556 c 256,0,1
540 1458 m 0,20,21
 502 1458 502 1458 474 1434 c 0,22,23
 444 1410 444 1410 438 1374 c 0,24,25
 436 1364 436 1364 436 1355 c 0,26,27
 436 1331 436 1331 448 1316 c 0,28,29
 468 1290 468 1290 504 1290 c 256,30,31
 542 1290 542 1290 569 1314 c 0,32,33
 599 1340 599 1340 605 1374 c 0,34,35
 607 1385 607 1385 607 1394 c 0,36,37
 607 1418 607 1418 594 1434 c 0,38,39
 573 1458 573 1458 540 1458 c 0,20,21
EndSplineSet
Validated: 1
EndChar

StartChar: tilde
Encoding: 732 732 209
Width: 657
Flags: W
HStem: 1274 138<660.719 770.748> 1382 138<479.689 591.694>
VStem: 332 587
LayerCount: 2
Fore
SplineSet
811 1524 m 1,0,-1
 919 1466 l 1,1,2
 828 1274 828 1274 688 1274 c 0,3,4
 642 1274 642 1274 612 1312 c 2,5,-1
 568 1367 l 2,6,7
 556 1382 556 1382 538 1382 c 0,8,9
 494 1382 494 1382 440 1270 c 1,10,-1
 332 1328 l 1,11,12
 423 1520 423 1520 563 1520 c 0,13,14
 610 1520 610 1520 640 1482 c 2,15,-1
 684 1427 l 2,16,17
 696 1412 696 1412 715 1412 c 0,18,19
 754 1412 754 1412 811 1524 c 1,0,-1
EndSplineSet
Validated: 1
EndChar

StartChar: hungarumlaut
Encoding: 733 733 210
Width: 811
Flags: W
HStem: 1242 339
DStem2: 340 1366 425 1242 0.799329 0.600894<0 351.232> 700 1366 785 1242 0.799329 0.600894<0 351.232>
LayerCount: 2
Fore
SplineSet
626 1581 m 1,0,-1
 711 1457 l 1,1,-1
 425 1242 l 1,2,-1
 340 1366 l 1,3,-1
 626 1581 l 1,0,-1
986 1581 m 1,4,-1
 1071 1457 l 1,5,-1
 785 1242 l 1,6,-1
 700 1366 l 1,7,-1
 986 1581 l 1,4,-1
EndSplineSet
Validated: 1
EndChar

StartChar: ogonek
Encoding: 731 731 211
Width: 369
Flags: W
HStem: -430 560
VStem: 15 143<-286.057 -68.9636>
LayerCount: 2
Fore
SplineSet
232 130 m 1,0,-1
 293 -1 l 1,1,2
 158 -67 158 -67 158 -193 c 0,3,4
 158 -279 158 -279 252 -314 c 1,5,-1
 149 -430 l 1,6,7
 15 -330 15 -330 15 -198 c 0,8,9
 15 -7 15 -7 232 130 c 1,0,-1
EndSplineSet
Validated: 1
EndChar

StartChar: integral
Encoding: 8747 8747 212
Width: 920
Flags: W
HStem: -410 160<-33 160.557> 1370 160<997.443 1191>
DStem2: 283.094 -410 463.094 -410 0.207912 0.978148<328.987 1691.66>
LayerCount: 2
Fore
SplineSet
-67 -410 m 1,0,-1
 -33 -250 l 1,1,2
 118 -250 118 -250 231 -162 c 0,3,4
 357 -62 357 -62 400 140 c 2,5,-1
 578 980 l 2,6,7
 635 1249 635 1249 816 1389 c 0,8,9
 998 1530 998 1530 1225 1530 c 1,10,-1
 1191 1370 l 1,11,12
 1040 1370 1040 1370 927 1282 c 0,13,14
 801 1184 801 1184 758 980 c 2,15,-1
 580 140 l 2,16,17
 523 -129 523 -129 342 -269 c 0,18,19
 160 -410 160 -410 -67 -410 c 1,0,-1
EndSplineSet
Validated: 1
EndChar

StartChar: afii61352
Encoding: 8470 8470 213
Width: 2280
Flags: W
HStem: 0 153<1532 2124> 212 157<1803.3 2009.97> 680 157<1848.44 2058.23> 1350 180<720.347 1171.5>
VStem: 200 200<0 200> 1387 198<607.263 1135.05> 1618 158<416.033 607.297> 2083 162<445.194 633.967>
DStem2: 200 0 400 0 0.207912 0.978148<41.5823 1390.19>
LayerCount: 2
Fore
SplineSet
200 0 m 1,0,-1
 453 1190 l 2,1,2
 525 1530 525 1530 865 1530 c 2,3,-1
 991 1530 l 2,4,5
 1307 1530 1307 1530 1472 1294 c 0,6,7
 1585 1133 1585 1133 1585 900 c 0,8,9
 1585 822 1585 822 1572 735 c 0,10,11
 1531 459 1531 459 1323 216 c 0,12,13
 1218 95 1218 95 1095 0 c 1,14,-1
 857 0 l 1,15,16
 1082 164 1082 164 1212 340 c 0,17,18
 1338 512 1338 512 1372 735 c 0,19,20
 1387 830 1387 830 1387 910 c 0,21,22
 1387 1078 1387 1078 1319 1176 c 0,23,24
 1197 1350 1197 1350 973 1350 c 2,25,-1
 847 1350 l 2,26,27
 687 1350 687 1350 653 1190 c 2,28,-1
 400 0 l 1,29,-1
 200 0 l 1,0,-1
1982 837 m 256,30,31
 2106 837 2106 837 2185 740 c 0,32,33
 2245 668 2245 668 2245 572 c 0,34,35
 2245 549 2245 549 2241 524 c 0,36,37
 2221 384 2221 384 2109 293 c 0,38,39
 2010 212 2010 212 1881 212 c 0,40,41
 1757 212 1757 212 1678 309 c 0,42,43
 1618 381 1618 381 1618 477 c 0,44,45
 1618 500 1618 500 1622 525 c 0,46,47
 1642 665 1642 665 1754 756 c 0,48,49
 1853 837 1853 837 1982 837 c 256,30,31
1964 680 m 0,50,51
 1899 680 1899 680 1847 635 c 0,52,53
 1793 588 1793 588 1780 525 c 0,54,55
 1776 507 1776 507 1776 490 c 0,56,57
 1776 448 1776 448 1801 415 c 0,58,59
 1837 369 1837 369 1897 369 c 256,60,61
 1959 369 1959 369 2012 415 c 128,-1,62
 2065 461 2065 461 2079 525 c 0,63,64
 2083 543 2083 543 2083 560 c 0,65,66
 2083 602 2083 602 2059 635 c 0,67,68
 2025 680 2025 680 1964 680 c 0,50,51
1532 153 m 1,69,-1
 2157 153 l 1,70,-1
 2124 0 l 1,71,-1
 1499 0 l 1,72,-1
 1532 153 l 1,69,-1
EndSplineSet
Validated: 1
EndChar

StartChar: uni2117
Encoding: 8471 8471 214
Width: 1396
Flags: W
HStem: 191 74<584.391 978.873> 529 139<749 928.91> 1038 152<779.188 1010.79> 1257 74<740.768 1134.47>
VStem: 304 72<485.75 876.979> 1041 164<777.078 992.965> 1344 72<645.021 1036.25>
DStem2: 445.89 191 607.368 191 0.207912 0.978148<188.111 903.257>
LayerCount: 2
Fore
SplineSet
749 191 m 0,0,1
 526 191 526 191 404 346 c 0,2,3
 304 471 304 471 304 655 c 0,4,5
 304 706 304 706 312 761 c 0,6,7
 348 1026 348 1026 546 1189 c 0,8,9
 719 1331 719 1331 971 1331 c 0,10,11
 1194 1331 1194 1331 1316 1176 c 0,12,13
 1416 1051 1416 1051 1416 867 c 0,14,15
 1416 816 1416 816 1408 761 c 0,16,17
 1372 496 1372 496 1174 333 c 0,18,19
 1001 191 1001 191 749 191 c 0,0,1
763 265 m 0,20,21
 982 265 982 265 1133 389 c 0,22,23
 1305 531 1305 531 1337 761 c 0,24,25
 1344 809 1344 809 1344 853 c 0,26,27
 1344 1013 1344 1013 1257 1122 c 0,28,29
 1151 1257 1151 1257 956 1257 c 0,30,31
 737 1257 737 1257 587 1133 c 0,32,33
 415 991 415 991 383 761 c 0,34,35
 376 713 376 713 376 669 c 0,36,37
 376 509 376 509 463 400 c 0,38,39
 474 387 474 387 485 375 c 1,40,-1
 613 980 l 2,41,42
 657 1190 657 1190 879 1190 c 0,43,44
 1043 1190 1043 1190 1125 1108 c 0,45,46
 1204 1030 1204 1030 1205 924 c 0,47,48
 1205 881 1205 881 1199 852 c 0,49,50
 1171 718 1171 718 1071 636 c 0,51,52
 941 529 941 529 719 529 c 1,53,-1
 749 668 l 1,54,55
 889 668 889 668 961 736 c 0,56,57
 1021 793 1021 793 1036 866 c 0,58,59
 1041 891 1041 891 1041 912 c 0,60,61
 1041 961 1041 961 1012 994 c 0,62,63
 974 1038 974 1038 879 1038 c 0,64,65
 787 1038 787 1038 775 980 c 2,66,-1
 635 321 l 1,67,-1
 550 321 l 1,68,69
 638 265 638 265 763 265 c 0,20,21
EndSplineSet
Validated: 1
EndChar

StartChar: uni203D
Encoding: 8253 8253 215
Width: 1186
Flags: W
HStem: -20 265<491.814 662.186> 1510 20G<730 968>
VStem: 448 258<24.0632 200.937> 555 160<354 468.121> 1072 197<988.284 1271.25>
LayerCount: 2
Fore
SplineSet
863 1530 m 0,0,1
 1073 1530 1073 1530 1191 1379 c 0,2,3
 1269 1280 1269 1280 1269 1146 c 0,4,5
 1269 1111 1269 1111 1264 1073 c 0,6,7
 1234 860 1234 860 980 691 c 0,8,9
 758 543 758 543 715 354 c 1,10,-1
 555 354 l 1,11,12
 576 452 576 452 617 537 c 1,13,-1
 743 1335 l 1,14,15
 629 1301 629 1301 520 1186 c 1,16,-1
 397 1304 l 1,17,18
 597 1530 597 1530 863 1530 c 0,0,1
551 -20 m 0,19,20
 499 -20 499 -20 471 16 c 0,21,22
 448 45 448 45 448 88 c 0,23,24
 448 105 448 105 450 117 c 0,25,26
 458 174 458 174 504 212 c 0,27,28
 544 245 544 245 603 245 c 0,29,30
 655 245 655 245 683 209 c 0,31,32
 706 180 706 180 706 137 c 0,33,34
 706 120 706 120 704 108 c 0,35,36
 696 51 696 51 650 13 c 0,37,38
 610 -20 610 -20 551 -20 c 0,19,20
932 1337 m 1,39,-1
 765 740 l 1,40,41
 808 782 808 782 859 819 c 0,42,43
 1037 948 1037 948 1064 1074 c 0,44,45
 1071 1108 1071 1108 1072 1139 c 0,46,47
 1072 1218 1072 1218 1024 1276 c 0,48,49
 989 1319 989 1319 932 1337 c 1,39,-1
EndSplineSet
Validated: 1
EndChar

StartChar: uni1E02
Encoding: 7682 7682 216
Width: 1238
Flags: W
HStem: -20 180<614 831.016> 0 21G<200 404.252> 740 180<782 914.844> 1356 174<719.851 1005.53> 1597 265<848.814 1019.19>
VStem: 200 200<0 200> 805 258<1641.06 1817.94> 1044 196<356.969 654.729> 1059 186<1057.11 1304.82>
DStem2: 195.749 -20 395.749 -20 0.207912 0.978148<62.0292 1419.36>
LayerCount: 2
Fore
SplineSet
960 1862 m 0,0,1
 1012 1862 1012 1862 1040 1826 c 0,2,3
 1063 1797 1063 1797 1063 1754 c 0,4,5
 1063 1737 1063 1737 1061 1725 c 0,6,7
 1053 1668 1053 1668 1007 1630 c 0,8,9
 967 1597 967 1597 908 1597 c 0,10,11
 856 1597 856 1597 828 1633 c 0,12,13
 805 1662 805 1662 805 1705 c 0,14,15
 805 1722 805 1722 807 1734 c 0,16,17
 815 1791 815 1791 861 1829 c 0,18,19
 901 1862 901 1862 960 1862 c 0,0,1
200 0 m 1,20,-1
 453 1190 l 2,21,22
 525 1530 525 1530 885 1530 c 0,23,24
 1065 1530 1065 1530 1165 1418 c 0,25,26
 1245 1330 1245 1330 1245 1207 c 0,27,28
 1245 1187 1245 1187 1243 1165 c 0,29,30
 1229 1027 1229 1027 1108 932 c 0,31,32
 1056 891 1056 891 987 867 c 1,33,34
 1101 826 1101 826 1171 738 c 0,35,36
 1240 652 1240 652 1240 528 c 0,37,38
 1240 495 1240 495 1235 458 c 0,39,40
 1207 258 1207 258 1043 127 c 0,41,42
 859 -20 859 -20 576 -20 c 1,43,-1
 614 160 l 1,44,45
 797 160 797 160 916 256 c 0,46,47
 1008 330 1008 330 1036 460 c 0,48,49
 1044 498 1044 498 1044 531 c 0,50,51
 1044 605 1044 605 1003 652 c 0,52,53
 925 740 925 740 743 740 c 9,54,-1
 782 920 l 17,55,56
 860 920 860 920 945 984 c 0,57,58
 1032 1049 1032 1049 1053 1150 c 0,59,60
 1058 1175 1058 1175 1059 1197 c 0,61,62
 1059 1253 1059 1253 1025 1294 c 0,63,64
 973 1356 973 1356 850 1356 c 0,65,66
 688 1356 688 1356 653 1190 c 2,67,-1
 400 0 l 1,68,-1
 200 0 l 1,20,-1
EndSplineSet
Validated: 1
EndChar

StartChar: uni1E03
Encoding: 7683 7683 217
Width: 1230
Flags: W
HStem: -20 160<463.29 789.125> 960 160<799 946.619> 1490 20G<517.739 702> 1597 265<579.814 750.186>
VStem: 262 180<163.097 486.562> 522 180<1330 1510> 536 258<1641.06 1817.94> 1079 175<453.766 828.773>
DStem2: 196.229 -20 376.731 -20 0.207912 0.978148<322.964 1564.3>
LayerCount: 2
Fore
SplineSet
691 1862 m 0,0,1
 743 1862 743 1862 771 1826 c 0,2,3
 794 1797 794 1797 794 1754 c 0,4,5
 794 1737 794 1737 792 1725 c 0,6,7
 784 1668 784 1668 738 1630 c 0,8,9
 698 1597 698 1597 639 1597 c 0,10,11
 587 1597 587 1597 559 1633 c 0,12,13
 536 1662 536 1662 536 1705 c 0,14,15
 536 1722 536 1722 538 1734 c 0,16,17
 546 1791 546 1791 592 1829 c 0,18,19
 632 1862 632 1862 691 1862 c 0,0,1
547 -20 m 128,-1,21
 262 -20 262 -20 262 231 c 0,22,23
 262 290 262 290 277 360 c 2,24,-1
 522 1510 l 1,25,-1
 702 1510 l 1,26,-1
 449 320 l 2,27,28
 442 287 442 287 442 257 c 0,29,30
 442 140 442 140 571 140 c 0,31,32
 765 140 765 140 896 254 c 0,33,34
 1026 367 1026 367 1066 550 c 0,35,36
 1079 609 1079 609 1079 660 c 0,37,38
 1079 769 1079 769 1023 846 c 0,39,40
 941 960 941 960 765 960 c 1,41,-1
 799 1120 l 1,42,43
 1034 1120 1034 1120 1151 967 c 0,44,45
 1254 831 1254 831 1254 649 c 0,46,47
 1254 602 1254 602 1247 550 c 0,48,49
 1211 284 1211 284 1004 118 c 0,50,20
 832 -20 832 -20 547 -20 c 128,-1,21
EndSplineSet
Validated: 1
EndChar

StartChar: uni1E0A
Encoding: 7690 7690 218
Width: 1616
Flags: W
HStem: -20 180<614 1037> 0 21G<200 404.252> 1350 180<715.5 1266.11> 1597 265<956.814 1127.19>
VStem: 200 200<0 200> 913 258<1641.06 1817.94> 1494 194<658.119 1120.7>
DStem2: 195.749 -20 395.749 -20 0.207912 0.978148<62.0292 1410.96>
LayerCount: 2
Fore
SplineSet
1068 1862 m 0,0,1
 1120 1862 1120 1862 1148 1826 c 0,2,3
 1171 1797 1171 1797 1171 1754 c 0,4,5
 1171 1737 1171 1737 1169 1725 c 0,6,7
 1161 1668 1161 1668 1115 1630 c 0,8,9
 1075 1597 1075 1597 1016 1597 c 0,10,11
 964 1597 964 1597 936 1633 c 0,12,13
 913 1662 913 1662 913 1705 c 0,14,15
 913 1722 913 1722 915 1734 c 0,16,17
 923 1791 923 1791 969 1829 c 0,18,19
 1009 1862 1009 1862 1068 1862 c 0,0,1
200 0 m 1,20,-1
 453 1190 l 2,21,22
 525 1530 525 1530 885 1530 c 2,23,-1
 1091 1530 l 2,24,25
 1407 1530 1407 1530 1581 1286 c 0,26,27
 1688 1136 1688 1136 1688 916 c 0,28,29
 1688 832 1688 832 1676 755 c 0,30,31
 1626 415 1626 415 1379 198 c 0,32,33
 1132 -20 1132 -20 801 -20 c 2,34,-1
 576 -20 l 1,35,-1
 614 160 l 1,36,-1
 820 160 l 2,37,38
 1044 160 1044 160 1240 334 c 0,39,40
 1424 498 1424 498 1476 755 c 0,41,42
 1494 841 1494 841 1494 915 c 0,43,44
 1494 1068 1494 1068 1418 1176 c 0,45,46
 1296 1350 1296 1350 1073 1350 c 2,47,-1
 847 1350 l 2,48,49
 687 1350 687 1350 653 1190 c 2,50,-1
 400 0 l 1,51,-1
 200 0 l 1,20,-1
EndSplineSet
Validated: 1
EndChar

StartChar: uni1E0B
Encoding: 7691 7691 219
Width: 1228
Flags: W
HStem: -20 160<505.175 828.216> 960 160<672.156 872> 1490 20G<1164.75 1349> 1597 265<1220.81 1391.19>
VStem: 210 175<272.59 653.937> 1169 180<1330 1510> 1177 258<1641.06 1817.94>
DStem2: 843.731 -20 1023.73 -20 0.207912 0.978148<210.787 1564.19>
LayerCount: 2
Fore
SplineSet
1332 1862 m 0,0,1
 1384 1862 1384 1862 1412 1826 c 0,2,3
 1435 1797 1435 1797 1435 1754 c 0,4,5
 1435 1737 1435 1737 1433 1725 c 0,6,7
 1425 1668 1425 1668 1379 1630 c 0,8,9
 1339 1597 1339 1597 1280 1597 c 0,10,11
 1228 1597 1228 1597 1200 1633 c 0,12,13
 1177 1662 1177 1662 1177 1705 c 0,14,15
 1177 1722 1177 1722 1179 1734 c 0,16,17
 1187 1791 1187 1791 1233 1829 c 0,18,19
 1273 1862 1273 1862 1332 1862 c 0,0,1
645 -20 m 0,20,21
 435 -20 435 -20 313 133 c 0,22,23
 210 262 210 262 210 451 c 0,24,25
 210 498 210 498 217 550 c 0,26,27
 253 816 253 816 460 982 c 0,28,29
 633 1120 633 1120 906 1120 c 1,30,-1
 872 960 l 1,31,32
 699 960 699 960 568 846 c 0,33,34
 433 729 433 729 397 550 c 0,35,36
 385 491 385 491 385 440 c 0,37,38
 385 338 385 338 440 254 c 0,39,40
 514 140 514 140 655 140 c 0,41,42
 878 140 878 140 916 320 c 2,43,-1
 1169 1510 l 1,44,-1
 1349 1510 l 1,45,-1
 1096 320 l 2,46,47
 1024 -20 1024 -20 645 -20 c 0,20,21
EndSplineSet
Validated: 1
EndChar

StartChar: uni1E1E
Encoding: 7710 7710 220
Width: 1136
Flags: W
HStem: 0 21G<200 404.232> 661 180<568.5 1076> 1330 180<711.5 1219> 1597 265<934.814 1105.19>
VStem: 200 200<0 200> 392 200<901 1101> 891 258<1641.06 1817.94>
DStem2: 200 0 400 0 0.207912 0.978148<41.5823 686.112 962.812 1370.12>
LayerCount: 2
Fore
SplineSet
1046 1862 m 0,0,1
 1098 1862 1098 1862 1126 1826 c 0,2,3
 1149 1797 1149 1797 1149 1754 c 0,4,5
 1149 1737 1149 1737 1147 1725 c 0,6,7
 1139 1668 1139 1668 1093 1630 c 0,8,9
 1053 1597 1053 1597 994 1597 c 0,10,11
 942 1597 942 1597 914 1633 c 0,12,13
 891 1662 891 1662 891 1705 c 0,14,15
 891 1722 891 1722 893 1734 c 0,16,17
 901 1791 901 1791 947 1829 c 0,18,19
 987 1862 987 1862 1046 1862 c 0,0,1
392 901 m 1,20,-1
 449 1170 l 2,21,22
 521 1510 521 1510 881 1510 c 2,23,-1
 1257 1510 l 1,24,-1
 1219 1330 l 1,25,-1
 843 1330 l 2,26,27
 683 1330 683 1330 649 1170 c 2,28,-1
 592 901 l 1,29,-1
 392 901 l 1,20,-1
200 0 m 1,30,-1
 306 501 l 2,31,32
 379 841 379 841 739 841 c 2,33,-1
 1115 841 l 1,34,-1
 1076 661 l 1,35,-1
 700 661 l 2,36,37
 540 661 540 661 506 501 c 1,38,-1
 400 0 l 1,39,-1
 200 0 l 1,30,-1
EndSplineSet
Validated: 1
EndChar

StartChar: uni1E1F
Encoding: 7711 7711 221
Width: 740
Flags: W
HStem: 0 21G<200 384.263> 940 160<620.75 930> 1370 160<768.32 1021> 1597 265<764.814 935.186>
VStem: 200 180<0 180> 447 180<1160 1340> 721 258<1641.06 1817.94>
DStem2: 200 0 380 0 0.207912 0.978148<37.4241 959.017 1223.43 1358.4>
LayerCount: 2
Fore
SplineSet
876 1862 m 0,0,1
 928 1862 928 1862 956 1826 c 0,2,3
 979 1797 979 1797 979 1754 c 0,4,5
 979 1737 979 1737 977 1725 c 0,6,7
 969 1668 969 1668 923 1630 c 0,8,9
 883 1597 883 1597 824 1597 c 0,10,11
 772 1597 772 1597 744 1633 c 0,12,13
 721 1662 721 1662 721 1705 c 0,14,15
 721 1722 721 1722 723 1734 c 0,16,17
 731 1791 731 1791 777 1829 c 0,18,19
 817 1862 817 1862 876 1862 c 0,0,1
200 0 m 1,20,-1
 362 760 l 2,21,22
 434 1100 434 1100 774 1100 c 2,23,-1
 964 1100 l 25,24,-1
 930 940 l 1,25,-1
 774 940 l 18,26,27
 580 940 580 940 542 760 c 2,28,-1
 380 0 l 1,29,-1
 200 0 l 1,20,-1
447 1160 m 1,30,31
 526 1530 526 1530 1055 1530 c 1,32,-1
 1021 1370 l 1,33,34
 671 1370 671 1370 627 1160 c 1,35,-1
 447 1160 l 1,30,31
EndSplineSet
Validated: 1
EndChar

StartChar: uni1E40
Encoding: 7744 7744 222
Width: 2180
Flags: W
HStem: 0 21G<396.5 659 990 1194.26 1521 1810.5> 1350 180<902.03 1835.5> 1597 265<1373.81 1544.19>
VStem: 240 191<271.408 812.566> 990 200<0 200> 1239 200<970 1170> 1330 258<1641.06 1817.94> 2052 198<611.916 1133.28>
DStem2: 990 0 1190 0 0.207912 0.978148<41.5823 1196.2>
LayerCount: 2
Fore
SplineSet
990 0 m 1,0,-1
 1239 1170 l 1,1,-1
 1439 1170 l 1,2,-1
 1190 0 l 1,3,-1
 990 0 l 1,0,-1
659 0 m 1,4,5
 441 0 l 1,6,7
 352 96 352 96 305 216 c 0,8,9
 240 377 240 377 240 553 c 0,10,11
 240 642 240 642 256 735 c 0,12,13
 312 1055 312 1055 554 1294 c 0,14,15
 792 1530 792 1530 1135 1530 c 2,16,-1
 1655 1530 l 2,17,18
 1971 1530 1971 1530 2136 1294 c 0,19,20
 2250 1132 2250 1132 2250 902 c 0,21,22
 2250 823 2250 823 2236 735 c 0,23,24
 2191 445 2191 445 1987 216 c 0,25,26
 1862 77 1862 77 1759 0 c 1,27,-1
 1521 0 l 1,28,29
 1738 152 1738 152 1876 340 c 0,30,31
 2000 510 2000 510 2036 735 c 0,32,33
 2052 831 2052 831 2052 911 c 0,34,35
 2052 1078 2052 1078 1983 1176 c 0,36,37
 1861 1350 1861 1350 1637 1350 c 2,38,-1
 1117 1350 l 2,39,40
 893 1350 893 1350 697 1176 c 0,41,42
 516 1015 516 1015 456 735 c 0,43,44
 431 618 431 618 431 511 c 0,45,46
 431 422 431 422 448 340 c 0,47,48
 491 133 491 133 659 0 c 1,4,5
1485 1862 m 0,49,50
 1537 1862 1537 1862 1565 1826 c 0,51,52
 1588 1797 1588 1797 1588 1754 c 0,53,54
 1588 1737 1588 1737 1586 1725 c 0,55,56
 1578 1668 1578 1668 1532 1630 c 0,57,58
 1492 1597 1492 1597 1433 1597 c 0,59,60
 1381 1597 1381 1597 1353 1633 c 0,61,62
 1330 1662 1330 1662 1330 1705 c 0,63,64
 1330 1722 1330 1722 1332 1734 c 0,65,66
 1340 1791 1340 1791 1386 1829 c 0,67,68
 1426 1862 1426 1862 1485 1862 c 0,49,50
EndSplineSet
Validated: 1
EndChar

StartChar: uni1E41
Encoding: 7745 7745 223
Width: 1658
Flags: W
HStem: 0 21G<321.5 570 739 923.256 1088 1359.5> 960 160<687.582 1356.8> 1209 265<1038.81 1209.19>
VStem: 208 174<209.781 645.747> 359 211<0 211> 739 180<0 180> 905 180<600 780> 995 258<1253.06 1429.94> 1088 221<0 221> 1508 179<444.61 824.149>
DStem2: 739 0 919 0 0.207912 0.978148<37.4241 797.468>
LayerCount: 2
Fore
SplineSet
570 0 m 1,0,1
 359 0 l 1,2,3
 284 80 284 80 244 199 c 0,4,5
 208 307 208 307 208 426 c 0,6,7
 208 486 208 486 217 550 c 0,8,9
 257 816 257 816 474 980 c 0,10,11
 661 1120 661 1120 926 1120 c 2,12,-1
 1208 1120 l 2,13,14
 1443 1120 1443 1120 1570 980 c 0,15,16
 1687 852 1687 852 1687 671 c 0,17,18
 1687 613 1687 613 1675 550 c 0,19,20
 1639 358 1639 358 1508 199 c 0,21,22
 1410 79 1410 79 1309 0 c 1,23,-1
 1088 0 l 1,24,25
 1257 126 1257 126 1350 244 c 0,26,27
 1459 383 1459 383 1495 550 c 0,28,29
 1508 610 1508 610 1508 662 c 0,30,31
 1508 774 1508 774 1447 845 c 0,32,33
 1348 960 1348 960 1174 960 c 2,34,-1
 892 960 l 2,35,36
 718 960 718 960 571 845 c 0,37,38
 438 741 438 741 397 550 c 0,39,40
 382 481 382 481 382 417 c 0,41,42
 382 325 382 325 412 244 c 0,43,44
 455 125 455 125 570 0 c 1,0,1
919 0 m 1,45,-1
 739 0 l 1,46,-1
 905 780 l 9,47,-1
 1085 780 l 17,48,-1
 919 0 l 1,45,-1
1150 1474 m 0,49,50
 1202 1474 1202 1474 1230 1438 c 0,51,52
 1253 1409 1253 1409 1253 1366 c 0,53,54
 1253 1349 1253 1349 1251 1337 c 0,55,56
 1243 1280 1243 1280 1197 1242 c 0,57,58
 1157 1209 1157 1209 1098 1209 c 0,59,60
 1046 1209 1046 1209 1018 1245 c 0,61,62
 995 1274 995 1274 995 1317 c 0,63,64
 995 1334 995 1334 997 1346 c 0,65,66
 1005 1403 1005 1403 1051 1441 c 0,67,68
 1091 1474 1091 1474 1150 1474 c 0,49,50
EndSplineSet
Validated: 1
EndChar

StartChar: uni1E56
Encoding: 7766 7766 224
Width: 1324
Flags: W
HStem: 0 21G<200 404.252> 380 181<699 932.14> 1350 180<714.785 1089.04> 1597 265<845.814 1016.19>
VStem: 200 200<0 200> 802 258<1641.06 1817.94> 1241 196<868.781 1214.53>
DStem2: 200 0 400 0 0.207912 0.978148<41.5823 1390.52>
LayerCount: 2
Fore
SplineSet
957 1862 m 0,0,1
 1009 1862 1009 1862 1037 1826 c 0,2,3
 1060 1797 1060 1797 1060 1754 c 0,4,5
 1060 1737 1060 1737 1058 1725 c 0,6,7
 1050 1668 1050 1668 1004 1630 c 0,8,9
 964 1597 964 1597 905 1597 c 0,10,11
 853 1597 853 1597 825 1633 c 0,12,13
 802 1662 802 1662 802 1705 c 0,14,15
 802 1722 802 1722 804 1734 c 0,16,17
 812 1791 812 1791 858 1829 c 0,18,19
 898 1862 898 1862 957 1862 c 0,0,1
200 0 m 1,20,-1
 453 1190 l 2,21,22
 525 1530 525 1530 885 1530 c 0,23,24
 1152 1530 1152 1530 1298 1383 c 0,25,26
 1437 1241 1437 1241 1437 1055 c 0,27,28
 1437 1015 1437 1015 1431 974 c 0,29,30
 1393 723 1393 723 1216 568 c 0,31,32
 1002 380 1002 380 661 380 c 1,33,-1
 699 561 l 17,34,35
 917 561 917 561 1062 684 c 0,36,37
 1193 795 1193 795 1231 974 c 0,38,39
 1241 1021 1241 1021 1241 1062 c 0,40,41
 1241 1177 1241 1177 1166 1252 c 0,42,43
 1070 1350 1070 1350 847 1350 c 0,44,45
 687 1350 687 1350 653 1190 c 2,46,-1
 400 0 l 1,47,-1
 200 0 l 1,20,-1
EndSplineSet
Validated: 1
EndChar

